<svg xmlns="http://www.w3.org/2000/svg" viewBox="0 0 42.239 67.088">
  <defs>
    <style>
      .cls-1 {
        fill: none;
      }

      .cls-1, .cls-2 {
        stroke: #fff;
        stroke-linecap: round;
        stroke-linejoin: round;
        stroke-miterlimit: 10;
        stroke-width: 2px;
      }

      .cls-2 {
        fill: #fff;
      }
    </style>
  </defs>
  <g id="Group_197" data-name="Group 197" transform="translate(-329 -1656.698)">
    <path id="Path_406" data-name="Path 406" class="cls-1" d="M31.58,25.3h2.084a7.355,7.355,0,0,1,7.374,7.374V51.111H.8V32.674A7.355,7.355,0,0,1,8.174,25.3h2.084" transform="translate(329.2 1671.675)"/>
    <path id="Path_407" data-name="Path 407" class="cls-1" d="M23.417,40.472H13.8a9.3,9.3,0,0,1-9.3-9.3V14.822A11.153,11.153,0,0,1,15.722,3.6h5.771A11.153,11.153,0,0,1,32.715,14.822V31.174A9.3,9.3,0,0,1,23.417,40.472Z" transform="translate(331.432 1658.587)"/>
    <path id="Path_408" data-name="Path 408" class="cls-1" d="M4.5,19.24h8.817S22.936,18.6,26.623,9.3l6.092,7.855" transform="translate(331.432 1662.024)"/>
    <path id="Path_409" data-name="Path 409" class="cls-1" d="M3.944,23.1h0A2.192,2.192,0,0,1,1.7,20.855V15.244A2.192,2.192,0,0,1,3.944,13h0a2.192,2.192,0,0,1,2.244,2.244v5.611A2.192,2.192,0,0,1,3.944,23.1Z" transform="translate(329.743 1664.256)"/>
    <path id="Path_410" data-name="Path 410" class="cls-1" d="M24.344,23.1h0A2.192,2.192,0,0,1,22.1,20.855V15.244A2.192,2.192,0,0,1,24.344,13h0a2.192,2.192,0,0,1,2.244,2.244v5.611A2.1,2.1,0,0,1,24.344,23.1Z" transform="translate(342.047 1664.256)"/>
    <path id="Path_411" data-name="Path 411" class="cls-1" d="M1.6,26.45V15.228A14.681,14.681,0,0,1,16.509.8h7.535A14.681,14.681,0,0,1,38.953,15.228V32.061a3.628,3.628,0,0,1-3.687,3.687H24.846" transform="translate(329.683 1656.898)"/>
    <path id="Path_412" data-name="Path 412" class="cls-2" d="M18.908,24.465H16.183A1.264,1.264,0,0,1,14.9,23.183h0A1.264,1.264,0,0,1,16.183,21.9h2.725a1.264,1.264,0,0,1,1.283,1.283h0C20.03,23.984,19.549,24.465,18.908,24.465Z" transform="translate(337.705 1669.624)"/>
    <path id="Path_413" data-name="Path 413" class="cls-1" d="M15.532,33.173,21.463,26.6H9.6Z" transform="translate(334.508 1672.459)"/>
    <line id="Line_4" data-name="Line 4" class="cls-1" y1="16.993" transform="translate(350.04 1705.632)"/>
    <line id="Line_5" data-name="Line 5" class="cls-1" x2="6.413" transform="translate(358.376 1713.327)"/>
  </g>
</svg>
