<svg xmlns="http://www.w3.org/2000/svg" viewBox="0 0 81.054 72.361">
  <defs>
    <style>
      .cls-1 {
        fill: none;
        stroke: #fff;
        stroke-linecap: round;
        stroke-linejoin: round;
        stroke-miterlimit: 10;
        stroke-width: 2px;
      }
    </style>
  </defs>
  <g id="Group_327" data-name="Group 327" transform="translate(0.07 -0.025)">
    <path id="Path_604" data-name="Path 604" class="cls-1" d="M34.576,4.39,1.929,61.02a6.888,6.888,0,0,0,5.88,10.367H73.1a6.888,6.888,0,0,0,5.88-10.367L46.49,4.39A6.955,6.955,0,0,0,34.576,4.39Z" transform="translate(0 0)"/>
    <path id="Path_605" data-name="Path 605" class="cls-1" d="M27.94,39.347h-.928A2.048,2.048,0,0,1,25,37.335V16.911A2.048,2.048,0,0,1,27.011,14.9h.928a2.048,2.048,0,0,1,2.011,2.011V37.335A2.048,2.048,0,0,1,27.94,39.347Z" transform="translate(13.135 7.593)"/>
    <circle id="Ellipse_61" data-name="Ellipse 61" class="cls-1" cx="4.178" cy="4.178" r="4.178" transform="translate(36.433 50.344)"/>
  </g>
</svg>
