<svg xmlns="http://www.w3.org/2000/svg" viewBox="0 0 78.309 66.286">
  <defs>
    <style>
      .cls-1 {
        fill: none;
        stroke: #fff;
        stroke-linecap: round;
        stroke-linejoin: round;
        stroke-miterlimit: 10;
        stroke-width: 2px;
      }
    </style>
  </defs>
  <g id="Group_201" data-name="Group 201" transform="translate(-1028.305 -1656.698)">
    <g id="Group_95" data-name="Group 95" transform="translate(1029.305 1657.698)">
      <path id="Path_414" data-name="Path 414" class="cls-1" d="M.8,9.7,30.779,24.128V59.4L.8,44.809Z" transform="translate(-0.8 4.568)"/>
      <path id="Path_415" data-name="Path 415" class="cls-1" d="M30.779,29.5.8,15.068,30.3.8,60.6,15.068Z" transform="translate(-0.8 -0.8)"/>
      <path id="Path_416" data-name="Path 416" class="cls-1" d="M37.939,22.236,7.8,7.648,15.976,3.8,46.115,18.068Z" transform="translate(3.422 1.009)"/>
      <path id="Path_417" data-name="Path 417" class="cls-1" d="M34.836,12.7,26.5,16.868V29.212l8.336-4.168Z" transform="translate(14.701 6.377)"/>
      <line id="Line_6" data-name="Line 6" class="cls-1" x1="4.809" y1="2.405" transform="translate(3.527 43.606)"/>
      <line id="Line_7" data-name="Line 7" class="cls-1" x1="9.138" y1="4.328" transform="translate(3.527 39.117)"/>
      <path id="Path_418" data-name="Path 418" class="cls-1" d="M36.333,38.557a4.652,4.652,0,0,1,4.649-4.649h8.336V9.7L19.5,24.289V59.558l16.833-8.336Z" transform="translate(10.479 4.568)"/>
    </g>
    <path id="Path_419" data-name="Path 419" class="cls-1" d="M33.8,30.17V23.757A8.621,8.621,0,0,1,42.457,15.1h0a8.621,8.621,0,0,1,8.657,8.657V30.17" transform="translate(1048.408 1665.523)"/>
    <path id="Path_420" data-name="Path 420" class="cls-1" d="M54.849,50.611h-20.2A4.652,4.652,0,0,1,30,45.962V29.449A4.652,4.652,0,0,1,34.649,24.8h20.2A4.652,4.652,0,0,1,59.5,29.449V45.962A4.652,4.652,0,0,1,54.849,50.611Z" transform="translate(1046.116 1671.373)"/>
    <path id="Path_421" data-name="Path 421" class="cls-1" d="M45.819,41.4l-2.725-4.649a4.055,4.055,0,0,0,2.084-3.687,4.169,4.169,0,1,0-6.252,3.687L36.2,41.4Z" transform="translate(1049.856 1673.846)"/>
  </g>
</svg>
