<svg xmlns="http://www.w3.org/2000/svg" viewBox="0 0 81.343 72.499">
  <defs>
    <style>
      .cls-1 {
        fill: none;
        stroke: #fff;
        stroke-linecap: round;
        stroke-linejoin: round;
        stroke-miterlimit: 10;
        stroke-width: 2px;
      }

      .cls-2 {
        fill: #fff;
      }
    </style>
  </defs>
  <g id="Group_198" data-name="Group 198" transform="translate(-457.645 -1654.634)">
    <path id="Path_425" data-name="Path 425" class="cls-1" d="M34.507,4.512,1.963,60.782A7.137,7.137,0,0,0,8.055,71.523H73.142a7.137,7.137,0,0,0,6.092-10.741L46.851,4.512A7.206,7.206,0,0,0,34.507,4.512Z" transform="translate(457.717 1654.609)"/>
    <g id="Group_102" data-name="Group 102" transform="translate(481.001 1683.489)">
      <g id="Group_98" data-name="Group 98">
        <path id="Path_426" data-name="Path 426" class="cls-1" d="M21.793,22.729a2.285,2.285,0,0,0,.962-1.924,2.4,2.4,0,1,0-4.809,0,1.445,1.445,0,0,0,.16.8,1.445,1.445,0,0,0-.8-.16,2.4,2.4,0,0,0,0,4.809,2.8,2.8,0,0,0,1.924-.962" transform="translate(-14.9 -18.4)"/>
        <line id="Line_11" data-name="Line 11" class="cls-1" x1="3.206" y1="3.367" transform="translate(4.489 6.573)"/>
        <line id="Line_12" data-name="Line 12" class="cls-1" x1="3.046" y1="3.046" transform="translate(6.893 4.328)"/>
      </g>
      <g id="Group_99" data-name="Group 99" transform="translate(25.009)">
        <path id="Path_427" data-name="Path 427" class="cls-1" d="M32.762,22.729A2.285,2.285,0,0,1,31.8,20.8a2.4,2.4,0,1,1,4.809,0,1.445,1.445,0,0,1-.16.8,1.445,1.445,0,0,1,.8-.16,2.4,2.4,0,0,1,0,4.809,2.8,2.8,0,0,1-1.924-.962" transform="translate(-29.716 -18.4)"/>
        <line id="Line_13" data-name="Line 13" class="cls-1" y1="3.367" x2="3.206" transform="translate(2.244 6.573)"/>
        <line id="Line_14" data-name="Line 14" class="cls-1" y1="3.046" x2="3.046" transform="translate(0 4.328)"/>
      </g>
      <g id="Group_100" data-name="Group 100" transform="translate(0 24.688)">
        <path id="Path_428" data-name="Path 428" class="cls-1" d="M21.793,38.627a2.285,2.285,0,0,1,.962,1.924,2.4,2.4,0,1,1-4.809,0,1.445,1.445,0,0,1,.16-.8,1.445,1.445,0,0,1-.8.16,2.4,2.4,0,0,1,0-4.809,2.8,2.8,0,0,1,1.924.962" transform="translate(-14.9 -33.016)"/>
        <line id="Line_15" data-name="Line 15" class="cls-1" x1="3.206" y2="3.367" transform="translate(4.489)"/>
        <line id="Line_16" data-name="Line 16" class="cls-1" x1="3.848" y2="3.848" transform="translate(6.893 1.763)"/>
      </g>
      <g id="Group_101" data-name="Group 101" transform="translate(24.207 24.688)">
        <path id="Path_429" data-name="Path 429" class="cls-1" d="M32.762,38.627a2.285,2.285,0,0,0-.962,1.924,2.4,2.4,0,1,0,4.809,0,1.445,1.445,0,0,0-.16-.8,1.445,1.445,0,0,0,.8.16,2.4,2.4,0,0,0,0-4.809,2.8,2.8,0,0,0-1.924.962" transform="translate(-28.914 -33.016)"/>
        <line id="Line_17" data-name="Line 17" class="cls-1" x2="3.206" y2="3.367" transform="translate(3.046)"/>
        <line id="Line_18" data-name="Line 18" class="cls-1" x2="3.848" y2="3.848" transform="translate(0 1.763)"/>
      </g>
      <path id="Path_430" data-name="Path 430" class="cls-1" d="M29.641,22.8A9.753,9.753,0,0,0,19.7,32.579c0,1.763.641,2.4.962,3.527a29.688,29.688,0,0,1,.641,3.687l3.848-.16V44.6h8.817v-5.13l3.687-.16a15.882,15.882,0,0,1,.481-3.046c.481-1.122,1.443-1.924,1.443-4.008C39.58,27.609,35.092,22.8,29.641,22.8Z" transform="translate(-12.006 -15.746)"/>
      <line id="Line_19" data-name="Line 19" class="cls-1" y2="2.725" transform="translate(15.711 26.131)"/>
      <line id="Line_20" data-name="Line 20" class="cls-1" y2="2.725" transform="translate(19.238 26.131)"/>
      <ellipse id="Ellipse_54" data-name="Ellipse 54" class="cls-2" cx="1.924" cy="1.924" rx="1.924" ry="1.924" transform="translate(12.024 15.39)"/>
      <ellipse id="Ellipse_55" data-name="Ellipse 55" class="cls-2" cx="1.924" cy="1.924" rx="1.924" ry="1.924" transform="translate(19.238 15.39)"/>
      <path id="Path_431" data-name="Path 431" class="cls-2" d="M27.625,33.324H24.9c0-.8.641-1.924,1.283-1.924S27.625,32.362,27.625,33.324Z" transform="translate(-8.869 -10.559)"/>
    </g>
  </g>
</svg>
