<svg xmlns="http://www.w3.org/2000/svg" viewBox="0 0 26.854 53.04">
  <defs>
    <style>
      .cls-1 {
        fill: none;
        stroke: #fff;
        stroke-linecap: round;
        stroke-linejoin: round;
        stroke-miterlimit: 10;
        stroke-width: 2px;
      }
    </style>
  </defs>
  <g id="Group_118" data-name="Group 118" transform="translate(1 1)">
    <ellipse id="Ellipse_56" data-name="Ellipse 56" class="cls-1" cx="12.427" cy="6.99" rx="12.427" ry="6.99" transform="translate(0 0)"/>
    <path id="Path_521" data-name="Path 521" class="cls-1" d="M25.854,40.7c0,3.883-5.548,6.99-12.427,6.99S1,44.583,1,40.7" transform="translate(-1 3.349)"/>
    <path id="Path_522" data-name="Path 522" class="cls-1" d="M25.854,44.359V7.411c-.111,3.772-5.659,6.879-12.427,6.879S1.222,11.294,1,7.411V44.248" transform="translate(-1 -0.31)"/>
    <path id="Path_523" data-name="Path 523" class="cls-1" d="M22.8,32.552a15.426,15.426,0,0,1-8.544,3.107A26.765,26.765,0,0,1,5.6,34.216V23.564a25.063,25.063,0,0,0,8.654,1.221C20.357,24.23,22.8,21.9,22.8,21.9Z" transform="translate(-0.496 1.29)"/>
    <path id="Path_524" data-name="Path 524" class="cls-1" d="M8.1,26.8s3.44,1.442,8.765,0" transform="translate(-0.222 1.826)"/>
    <path id="Path_525" data-name="Path 525" class="cls-1" d="M8.1,29.8a19.155,19.155,0,0,0,4.438.444" transform="translate(-0.222 2.155)"/>
  </g>
</svg>
