<svg xmlns="http://www.w3.org/2000/svg" viewBox="0 0 104.525 93.1">
  <defs>
    <style>
      .cls-1 {
        fill: none;
        stroke: #fff;
        stroke-linecap: round;
        stroke-linejoin: round;
        stroke-miterlimit: 10;
        stroke-width: 2px;
      }

      .cls-2 {
        fill: #fff;
      }
    </style>
  </defs>
  <g id="Group_103" data-name="Group 103" transform="translate(1.089 1)">
    <path id="Path_425" data-name="Path 425" class="cls-1" d="M44.3,5.531,2.245,78.245a9.223,9.223,0,0,0,7.872,13.88H94.225a9.223,9.223,0,0,0,7.872-13.88L60.251,5.531A9.312,9.312,0,0,0,44.3,5.531Z" transform="translate(-0.998 -1.025)"/>
    <g id="Group_102" data-name="Group 102" transform="translate(28.8 35.995)">
      <g id="Group_98" data-name="Group 98">
        <path id="Path_426" data-name="Path 426" class="cls-1" d="M23.808,23.993a2.953,2.953,0,0,0,1.243-2.486,3.107,3.107,0,1,0-6.215,0,1.868,1.868,0,0,0,.207,1.036,1.868,1.868,0,0,0-1.036-.207,3.107,3.107,0,0,0,0,6.215,3.611,3.611,0,0,0,2.486-1.243" transform="translate(-14.9 -18.4)"/>
        <line id="Line_11" data-name="Line 11" class="cls-1" x1="4.143" y1="4.35" transform="translate(5.801 8.494)"/>
        <line id="Line_12" data-name="Line 12" class="cls-1" x1="3.936" y1="3.936" transform="translate(8.908 5.593)"/>
      </g>
      <g id="Group_99" data-name="Group 99" transform="translate(32.317)">
        <path id="Path_427" data-name="Path 427" class="cls-1" d="M33.043,23.993A2.953,2.953,0,0,1,31.8,21.507a3.107,3.107,0,1,1,6.215,0,1.868,1.868,0,0,1-.207,1.036,1.868,1.868,0,0,1,1.036-.207,3.107,3.107,0,0,1,0,6.215,3.611,3.611,0,0,1-2.486-1.243" transform="translate(-29.107 -18.4)"/>
        <line id="Line_13" data-name="Line 13" class="cls-1" y1="4.35" x2="4.143" transform="translate(2.9 8.494)"/>
        <line id="Line_14" data-name="Line 14" class="cls-1" y1="3.936" x2="3.936" transform="translate(0 5.593)"/>
      </g>
      <g id="Group_100" data-name="Group 100" transform="translate(0 31.903)">
        <path id="Path_428" data-name="Path 428" class="cls-1" d="M23.808,39.658a2.953,2.953,0,0,1,1.243,2.486,3.107,3.107,0,1,1-6.215,0,1.868,1.868,0,0,1,.207-1.036,1.868,1.868,0,0,1-1.036.207,3.107,3.107,0,0,1,0-6.215,3.611,3.611,0,0,1,2.486,1.243" transform="translate(-14.9 -32.407)"/>
        <line id="Line_15" data-name="Line 15" class="cls-1" x1="4.143" y2="4.35" transform="translate(5.801)"/>
        <line id="Line_16" data-name="Line 16" class="cls-1" x1="4.972" y2="4.972" transform="translate(8.908 2.279)"/>
      </g>
      <g id="Group_101" data-name="Group 101" transform="translate(31.282 31.903)">
        <path id="Path_429" data-name="Path 429" class="cls-1" d="M33.043,39.658A2.953,2.953,0,0,0,31.8,42.144a3.107,3.107,0,1,0,6.215,0,1.868,1.868,0,0,0-.207-1.036,1.868,1.868,0,0,0,1.036.207,3.107,3.107,0,0,0,0-6.215,3.611,3.611,0,0,0-2.486,1.243" transform="translate(-28.071 -32.407)"/>
        <line id="Line_17" data-name="Line 17" class="cls-1" x2="4.143" y2="4.35" transform="translate(3.936)"/>
        <line id="Line_18" data-name="Line 18" class="cls-1" x2="4.972" y2="4.972" transform="translate(0 2.279)"/>
      </g>
      <path id="Path_430" data-name="Path 430" class="cls-1" d="M32.547,22.8C25.5,22.8,19.5,28.393,19.7,35.437c0,2.279.829,3.107,1.243,4.558a38.363,38.363,0,0,1,.829,4.765l4.972-.207v6.422H38.14V44.345l4.765-.207c.207-.414,0-2.486.621-3.936s1.864-2.486,1.864-5.179C45.391,29.015,39.59,22.8,32.547,22.8Z" transform="translate(-9.759 -13.685)"/>
      <line id="Line_19" data-name="Line 19" class="cls-1" y2="3.522" transform="translate(20.302 33.768)"/>
      <line id="Line_20" data-name="Line 20" class="cls-1" y2="3.522" transform="translate(24.859 33.768)"/>
      <ellipse id="Ellipse_54" data-name="Ellipse 54" class="cls-2" cx="2.486" cy="2.486" rx="2.486" ry="2.486" transform="translate(15.537 19.888)"/>
      <ellipse id="Ellipse_55" data-name="Ellipse 55" class="cls-2" cx="2.486" cy="2.486" rx="2.486" ry="2.486" transform="translate(24.859 19.888)"/>
      <path id="Path_431" data-name="Path 431" class="cls-2" d="M28.422,33.886H24.9c0-1.036.829-2.486,1.657-2.486S28.422,32.643,28.422,33.886Z" transform="translate(-4.184 -4.469)"/>
    </g>
  </g>
</svg>
