<svg xmlns="http://www.w3.org/2000/svg" viewBox="0 0 16 16">
  <defs>
    <style>
      .cls-1 {
        fill: #fff;
      }
    </style>
  </defs>
  <g id="phone-call" transform="translate(-680.162 -64.581)">
    <g id="phone-call-2" data-name="phone-call" transform="translate(696.163 64.58) rotate(90)">
      <path id="Path_393" data-name="Path 393" class="cls-1" d="M0,13.646l.318.345c.175.191,1.755,1.868,3.161,2,.082.008.169.011.256.011,1.885,0,4.9-1.8,7.684-4.581a21.932,21.932,0,0,0,3.4-4.292A6.946,6.946,0,0,0,15.99,3.479c-.13-1.406-1.807-2.986-2-3.161L13.647,0,9.359,4.288l1.44,1.44L5.729,10.8l-1.44-1.44Zm1.368.015,2.92-2.92,1.44,1.44,6.453-6.453-1.44-1.44,2.92-2.92a4.811,4.811,0,0,1,1.353,2.2,5.885,5.885,0,0,1-1.041,3.064,20.946,20.946,0,0,1-3.247,4.094c-2.529,2.529-5.4,4.295-6.993,4.295-.057,0-.113,0-.166-.007A4.875,4.875,0,0,1,1.369,13.661Z" transform="translate(0)"/>
    </g>
  </g>
</svg>
