<svg xmlns="http://www.w3.org/2000/svg" xmlns:xlink="http://www.w3.org/1999/xlink" viewBox="0 0 175.055 76">
  <defs>
    <style>
      .cls-1 {
        fill: #375992;
      }

      .cls-2 {
        fill: url(#linear-gradient);
      }

      .cls-3 {
        fill: url(#linear-gradient-2);
      }

      .cls-4 {
        fill: url(#linear-gradient-3);
      }

      .cls-5 {
        fill: url(#linear-gradient-4);
      }

      .cls-6 {
        fill: #c23c30;
      }

      .cls-7 {
        fill: url(#linear-gradient-5);
      }

      .cls-8 {
        fill: url(#linear-gradient-6);
      }

      .cls-9 {
        fill: url(#linear-gradient-7);
      }

      .cls-10 {
        fill: #e22c2c;
      }
    </style>
    <linearGradient id="linear-gradient" x1="0.088" y1="0.446" x2="0.429" y2="0.85" gradientUnits="objectBoundingBox">
      <stop offset="0" stop-color="#901718"/>
      <stop offset="0.411" stop-color="#901718"/>
      <stop offset="1" stop-color="#e22c2c"/>
    </linearGradient>
    <linearGradient id="linear-gradient-2" x1="0.213" y1="0.945" x2="0.363" y2="0.44" gradientUnits="objectBoundingBox">
      <stop offset="0" stop-color="#901718"/>
      <stop offset="0.386" stop-color="#901718"/>
      <stop offset="1" stop-color="#e22c2c"/>
    </linearGradient>
    <linearGradient id="linear-gradient-3" y1="-0.156" x2="0.327" y2="0.571" gradientUnits="objectBoundingBox">
      <stop offset="0" stop-color="#901718"/>
      <stop offset="0.318" stop-color="#901718"/>
      <stop offset="1" stop-color="#e22c2c"/>
    </linearGradient>
    <linearGradient id="linear-gradient-4" x1="0.331" y1="0.915" x2="0.582" y2="0.471" gradientUnits="objectBoundingBox">
      <stop offset="0" stop-color="#901718"/>
      <stop offset="0.321" stop-color="#901718"/>
      <stop offset="1" stop-color="#e22c2c"/>
    </linearGradient>
    <linearGradient id="linear-gradient-5" x1="0.254" y1="-0.079" x2="0.271" y2="0.704" gradientUnits="objectBoundingBox">
      <stop offset="0" stop-color="#901718"/>
      <stop offset="0.336" stop-color="#901718"/>
      <stop offset="1" stop-color="#e22c2c"/>
    </linearGradient>
    <linearGradient id="linear-gradient-6" x1="0.5" x2="0.492" y2="0.599" gradientUnits="objectBoundingBox">
      <stop offset="0" stop-color="#901718"/>
      <stop offset="0.418" stop-color="#901718"/>
      <stop offset="1" stop-color="#e22c2c"/>
    </linearGradient>
    <linearGradient id="linear-gradient-7" x1="0.35" y1="0.704" x2="0.699" y2="0.168" gradientUnits="objectBoundingBox">
      <stop offset="0" stop-color="#901718"/>
      <stop offset="0.014" stop-color="#901718"/>
      <stop offset="1" stop-color="#e22c2c"/>
    </linearGradient>
  </defs>
  <g id="Group_90" data-name="Group 90" transform="translate(0 0.003)">
    <g id="Group_20" data-name="Group 20" transform="translate(0 58.428)">
      <g id="Group_19" data-name="Group 19">
        <g id="Group_18" data-name="Group 18">
          <g id="Group_2" data-name="Group 2" transform="translate(0 0.165)">
            <g id="Group_1" data-name="Group 1">
              <path id="Path_1" data-name="Path 1" class="cls-1" d="M251.535,15.072l-3.629,12.785H242.38l3.629-12.785H240.4l1.237-4.372h16.826l-1.237,4.372Z" transform="translate(-240.4 -10.7)"/>
            </g>
          </g>
          <g id="Group_4" data-name="Group 4" transform="translate(15.672)">
            <g id="Group_3" data-name="Group 3">
              <path id="Path_2" data-name="Path 2" class="cls-1" d="M274.412,20.563l1.815,7.176H270.04l-1.32-6.269h-2.062l-1.732,6.269H259.4L264.266,10.5h10.475c3.794,0,5.114,2.474,4.289,5.279A7.031,7.031,0,0,1,274.412,20.563Zm-2.145-6.021h-3.629l-.907,3.134h3.629a2.185,2.185,0,0,0,1.98-1.567A1.121,1.121,0,0,0,272.267,14.542Z" transform="translate(-259.4 -10.5)"/>
            </g>
          </g>
          <g id="Group_6" data-name="Group 6" transform="translate(34.23 0.082)">
            <g id="Group_5" data-name="Group 5">
              <path id="Path_3" data-name="Path 3" class="cls-1" d="M295.015,27.839l-.083-2.392h-6.021l-1.4,2.392H281.9L293.035,10.6h6.434l1.4,17.239ZM291.22,21.57h3.712l-.083-6.1h-.083Z" transform="translate(-281.9 -10.6)"/>
            </g>
          </g>
          <g id="Group_8" data-name="Group 8" transform="translate(55.263 0.082)">
            <g id="Group_7" data-name="Group 7">
              <path id="Path_4" data-name="Path 4" class="cls-1" d="M319.69,27.839l-4.866-8.331-2.31,8.331H307.4L312.266,10.6h4.784l4.866,8.5,2.392-8.5h5.114l-4.866,17.239Z" transform="translate(-307.4 -10.6)"/>
            </g>
          </g>
          <g id="Group_10" data-name="Group 10" transform="translate(94.194 0.082)">
            <g id="Group_9" data-name="Group 9">
              <path id="Path_5" data-name="Path 5" class="cls-1" d="M372.993,16.291l-.082.33a7.712,7.712,0,0,1-7.093,5.691h-4.124l-1.567,5.526H354.6L359.466,10.6h9.65C372.251,10.6,373.9,12.992,372.993,16.291Zm-10.228,1.98h2.31a2.231,2.231,0,0,0,2.227-1.65l.083-.165c.247-.99-.083-1.65-1.32-1.65h-2.309Z" transform="translate(-354.6 -10.6)"/>
            </g>
          </g>
          <g id="Group_12" data-name="Group 12" transform="translate(113.538 0.082)">
            <g id="Group_11" data-name="Group 11">
              <path id="Path_6" data-name="Path 6" class="cls-1" d="M396.98,19.343c-1.485,5.774-5.609,8.743-11.465,8.743s-8.5-2.969-7.093-8.743c1.485-5.774,5.609-8.743,11.465-8.743S398.465,13.569,396.98,19.343Zm-12.7-.742-.412,1.567c-.577,2.309.247,3.877,2.639,3.877a4.679,4.679,0,0,0,4.619-3.877l.412-1.567c.577-2.309-.247-3.877-2.639-3.877C386.422,14.642,384.855,16.291,384.278,18.6Z" transform="translate(-378.052 -10.6)"/>
            </g>
          </g>
          <g id="Group_14" data-name="Group 14" transform="translate(133.043)">
            <g id="Group_13" data-name="Group 13">
              <path id="Path_7" data-name="Path 7" class="cls-1" d="M416.712,20.563l1.815,7.176H412.34l-1.32-6.269h-2.062l-1.732,6.269H401.7L406.566,10.5h10.558c3.794,0,5.114,2.474,4.289,5.279A7.331,7.331,0,0,1,416.712,20.563Zm-2.145-6.021h-3.629l-.907,3.134h3.629a2.185,2.185,0,0,0,1.98-1.567A1.121,1.121,0,0,0,414.567,14.542Z" transform="translate(-401.7 -10.5)"/>
            </g>
          </g>
          <g id="Group_16" data-name="Group 16" transform="translate(154.571 0.165)">
            <g id="Group_15" data-name="Group 15">
              <path id="Path_8" data-name="Path 8" class="cls-1" d="M438.935,15.072l-3.547,12.785h-5.526l3.629-12.785H427.8l1.237-4.372h16.826l-1.237,4.372Z" transform="translate(-427.8 -10.7)"/>
            </g>
          </g>
          <g id="Group_17" data-name="Group 17" transform="translate(75.388 0.082)">
            <path id="Path_9" data-name="Path 9" class="cls-1" d="M341.368,17.2a1.24,1.24,0,0,1-.825-2.145.891.891,0,0,1,.577-.247h10.64c.247-1.567.99-4.207.99-4.207h-9.32c-4.042,0-7.258,1.237-8.413,5.2a10.262,10.262,0,0,0-.33,1.32,3.259,3.259,0,0,0,3.134,4.124h5.526a.642.642,0,0,1,.577.247,1.259,1.259,0,0,1-.825,2.145h-9.9c-.412,1.65-1.4,4.207-1.4,4.207h8.661c4.289,0,8.331.33,9.733-5.526.082-.247.082-.495.165-.66a3.567,3.567,0,0,0-3.464-4.372h-5.526Z" transform="translate(-331.8 -10.6)"/>
          </g>
        </g>
      </g>
    </g>
    <g id="Group_23" data-name="Group 23" transform="translate(0 -0.003)">
      <g id="Group_22" data-name="Group 22">
        <path id="Path_10" data-name="Path 10" class="cls-2" d="M196.161,37.93a14.291,14.291,0,0,1-10.067,1.2,14.235,14.235,0,0,1,3.6-28.044,13.619,13.619,0,0,1,6.472,1.6,7.631,7.631,0,0,0,8.869-1.358l3.036-3.036a25.115,25.115,0,0,0-27.724-6.232,25.665,25.665,0,0,0-14.142,13.9c-7.271,17.418,6.472,34.436,23.41,34.436a24.968,24.968,0,0,0,18.376-7.99l-2.956-2.956A7.547,7.547,0,0,0,196.161,37.93Z" transform="translate(-33.01 -0.056)"/>
        <path id="Path_11" data-name="Path 11" class="cls-3" d="M179.2.6a25.032,25.032,0,0,0-17.737,13.263c0,.08-.08.08-.08.16l-.24.479c-.08.24-.24.479-.32.719L149.483,39.509a10.672,10.672,0,0,1-4.714,5.034c-2.637,1.518-6.552,3.2-8.469,2.717a15.564,15.564,0,0,0,8.709,2.876c7.111.24,13.023-2.637,17.977-13.822l6.631-13.982a9.164,9.164,0,0,1,.719-1.518c.08-.08.08-.24.16-.32l1.119-2.317a14.237,14.237,0,0,1,12.3-7.111,14.647,14.647,0,0,1,6.711,1.678,7.453,7.453,0,0,0,8.629-1.518L202.3,8.189A25.444,25.444,0,0,0,179.2.6Z" transform="translate(-27.4 -0.037)"/>
        <path id="Path_12" data-name="Path 12" class="cls-4" d="M150.034,46.965c-3.116,0-9.508-2.637-12.384-8.549l-15.1-32.358a1.1,1.1,0,0,1-.32-.24c-.08-.08-.719-.639-2-.08-.24.08-.559.479-.879.879L114,17.243l9.588,19.894C129.021,49.282,135.572,51.12,141.4,51.12a14.681,14.681,0,0,0,9.268-2.876,18.514,18.514,0,0,0,2.637-2.4A6.71,6.71,0,0,1,150.034,46.965Z" transform="translate(-22.917 -1.102)"/>
        <path id="Path_13" data-name="Path 13" class="cls-5" d="M112.763,3.355h0A6.4,6.4,0,0,0,107.09,0a8.111,8.111,0,0,0-7.51,4.634L90.711,22.85h0L83.2,38.43a10.359,10.359,0,0,1-4.714,4.714,15.341,15.341,0,0,1-8.229,2.077A3.317,3.317,0,0,1,68.1,43.543s2.317,2,3.515,2.876a11.2,11.2,0,0,0,7.75,3.356c.16,0,.4.08.559.08,5.832.08,12.384-1.678,17.977-13.662l3.915-7.83h0l3.835-7.75L111.4,9.188a2.229,2.229,0,0,1,.879-.879c1.278-.559,1.918,0,2,.08.32.24,1.039.8,1.039.8Z" transform="translate(-13.69 0.003)"/>
        <g id="Group_21" data-name="Group 21" transform="translate(143.496 10.369)">
          <path id="Path_14" data-name="Path 14" class="cls-6" d="M180.239,23.6a.6.6,0,0,0-.4.08c-.16.08-.24.16-.24.32a.72.72,0,0,0,.08.4c.08.16.16.24.32.24h.16a.294.294,0,0,0,.24-.08c.16-.08.24-.16.24-.32a.72.72,0,0,0-.08-.4C180.559,23.68,180.4,23.6,180.239,23.6Z" transform="translate(-179.6 -15.111)"/>
          <path id="Path_15" data-name="Path 15" class="cls-6" d="M180.239,25.5a.6.6,0,0,0-.4.08c-.16.08-.24.16-.24.32a.72.72,0,0,0,.08.4c.08.16.16.24.32.24h.16a.294.294,0,0,0,.24-.08c.16-.08.24-.16.24-.32a.72.72,0,0,0-.08-.4C180.559,25.66,180.4,25.58,180.239,25.5Z" transform="translate(-179.6 -15.492)"/>
          <path id="Path_16" data-name="Path 16" class="cls-6" d="M180.239,27.5a.6.6,0,0,0-.4.08c-.16.08-.24.16-.24.32a.72.72,0,0,0,.08.4c.08.16.16.24.32.24h.16a.294.294,0,0,0,.24-.08c.16-.08.24-.16.24-.32a.72.72,0,0,0-.08-.4C180.559,27.58,180.4,27.5,180.239,27.5Z" transform="translate(-179.6 -15.895)"/>
          <path id="Path_17" data-name="Path 17" class="cls-6" d="M180.239,29.4a.6.6,0,0,0-.4.08c-.16.08-.24.16-.24.32a.72.72,0,0,0,.08.4c.08.16.16.24.32.24h.16a.294.294,0,0,0,.24-.08c.16-.08.24-.16.24-.32a.72.72,0,0,0-.08-.4C180.559,29.56,180.4,29.48,180.239,29.4Z" transform="translate(-179.6 -16.276)"/>
          <path id="Path_18" data-name="Path 18" class="cls-6" d="M181.934,20.8a.6.6,0,0,0-.4.08c-.16.08-.24.16-.24.32a.494.494,0,0,0,.4.639h.16a.447.447,0,0,0,.479-.4.72.72,0,0,0-.08-.4A.428.428,0,0,0,181.934,20.8Z" transform="translate(-179.937 -14.548)"/>
          <path id="Path_19" data-name="Path 19" class="cls-6" d="M181.934,22.7a.6.6,0,0,0-.4.08c-.16.08-.24.16-.24.32a.494.494,0,0,0,.4.639h.16a.447.447,0,0,0,.479-.4.72.72,0,0,0-.08-.4C182.174,22.86,182.014,22.78,181.934,22.7Z" transform="translate(-179.937 -14.93)"/>
          <path id="Path_20" data-name="Path 20" class="cls-6" d="M181.939,24.7a.6.6,0,0,0-.4.08c-.16.08-.24.16-.24.32a.72.72,0,0,0,.08.4c.08.16.16.24.32.24h.16a.447.447,0,0,0,.479-.4.72.72,0,0,0-.08-.4A.428.428,0,0,0,181.939,24.7Z" transform="translate(-179.942 -15.332)"/>
          <path id="Path_21" data-name="Path 21" class="cls-6" d="M181.939,26.6a.6.6,0,0,0-.4.08c-.16.08-.24.16-.24.32a.72.72,0,0,0,.08.4c.08.16.16.24.32.24h.16a.447.447,0,0,0,.479-.4.72.72,0,0,0-.08-.4C182.179,26.76,182.019,26.68,181.939,26.6Z" transform="translate(-179.942 -15.714)"/>
          <path id="Path_22" data-name="Path 22" class="cls-6" d="M181.939,28.595a.494.494,0,0,0-.639.4.72.72,0,0,0,.08.4c.08.16.16.24.32.24h.16a.447.447,0,0,0,.479-.4.72.72,0,0,0-.08-.4A.428.428,0,0,0,181.939,28.595Z" transform="translate(-179.942 -16.111)"/>
          <path id="Path_23" data-name="Path 23" class="cls-6" d="M181.939,30.5a.72.72,0,0,0-.4.08c-.16.08-.24.16-.24.32a.72.72,0,0,0,.08.4c.08.16.16.24.32.24h.16a.447.447,0,0,0,.479-.4.72.72,0,0,0-.08-.4A.428.428,0,0,0,181.939,30.5Z" transform="translate(-179.942 -16.498)"/>
          <path id="Path_24" data-name="Path 24" class="cls-6" d="M183.634,19.7a.6.6,0,0,0-.4.08c-.16.08-.24.16-.24.32a.494.494,0,0,0,.4.639h.16a.447.447,0,0,0,.479-.4.72.72,0,0,0-.08-.4C183.954,19.78,183.794,19.7,183.634,19.7Z" transform="translate(-180.278 -14.327)"/>
          <path id="Path_25" data-name="Path 25" class="cls-6" d="M183.634,21.6a.6.6,0,0,0-.4.08c-.16.08-.24.16-.24.32a.494.494,0,0,0,.4.639h.16a.447.447,0,0,0,.479-.4.72.72,0,0,0-.08-.4C183.954,21.76,183.794,21.68,183.634,21.6Z" transform="translate(-180.278 -14.708)"/>
          <path id="Path_26" data-name="Path 26" class="cls-6" d="M183.634,23.6a.6.6,0,0,0-.4.08c-.16.08-.24.16-.24.32a.494.494,0,0,0,.4.639h.16a.447.447,0,0,0,.479-.4.72.72,0,0,0-.08-.4C183.954,23.68,183.794,23.6,183.634,23.6Z" transform="translate(-180.278 -15.111)"/>
          <path id="Path_27" data-name="Path 27" class="cls-6" d="M183.634,25.5a.6.6,0,0,0-.4.08c-.16.08-.24.16-.24.32a.494.494,0,0,0,.4.639h.16a.447.447,0,0,0,.479-.4.72.72,0,0,0-.08-.4C183.954,25.66,183.794,25.58,183.634,25.5Z" transform="translate(-180.278 -15.492)"/>
          <path id="Path_28" data-name="Path 28" class="cls-6" d="M183.634,27.5a.6.6,0,0,0-.4.08c-.16.08-.24.16-.24.32a.494.494,0,0,0,.4.639h.16a.447.447,0,0,0,.479-.4.72.72,0,0,0-.08-.4C183.954,27.58,183.794,27.5,183.634,27.5Z" transform="translate(-180.278 -15.895)"/>
          <path id="Path_29" data-name="Path 29" class="cls-6" d="M183.634,29.4a.6.6,0,0,0-.4.08c-.16.08-.24.16-.24.32a.494.494,0,0,0,.4.639h.16a.447.447,0,0,0,.479-.4.72.72,0,0,0-.08-.4C183.954,29.56,183.794,29.48,183.634,29.4Z" transform="translate(-180.278 -16.276)"/>
          <path id="Path_30" data-name="Path 30" class="cls-6" d="M183.639,31.4a.6.6,0,0,0-.4.08c-.16.08-.24.16-.24.32a.72.72,0,0,0,.08.4c.08.16.16.24.32.24h.16a.447.447,0,0,0,.479-.4.72.72,0,0,0-.08-.4C183.959,31.48,183.8,31.4,183.639,31.4Z" transform="translate(-180.283 -16.679)"/>
          <path id="Path_31" data-name="Path 31" class="cls-6" d="M185,17.939h.16a.293.293,0,0,0,.24-.08c.16-.08.24-.16.24-.32a.494.494,0,0,0-.4-.639.72.72,0,0,0-.4.08c-.16.08-.24.16-.24.32A.712.712,0,0,0,185,17.939Z" transform="translate(-180.605 -13.764)"/>
          <path id="Path_32" data-name="Path 32" class="cls-6" d="M185,19.839h.16a.293.293,0,0,0,.24-.08c.16-.08.24-.16.24-.32a.494.494,0,0,0-.4-.639.6.6,0,0,0-.4.08c-.16.08-.24.16-.24.32A.633.633,0,0,0,185,19.839Z" transform="translate(-180.605 -14.146)"/>
          <path id="Path_33" data-name="Path 33" class="cls-6" d="M185,21.839h.16a.293.293,0,0,0,.24-.08c.16-.08.24-.16.24-.32a.494.494,0,0,0-.4-.639.6.6,0,0,0-.4.08c-.16.08-.24.16-.24.32A.712.712,0,0,0,185,21.839Z" transform="translate(-180.605 -14.548)"/>
          <path id="Path_34" data-name="Path 34" class="cls-6" d="M185,23.739h.16a.293.293,0,0,0,.24-.08c.16-.08.24-.16.24-.32a.494.494,0,0,0-.4-.639.6.6,0,0,0-.4.08c-.16.08-.24.16-.24.32A.712.712,0,0,0,185,23.739Z" transform="translate(-180.605 -14.93)"/>
          <path id="Path_35" data-name="Path 35" class="cls-6" d="M185,25.639h.16a.293.293,0,0,0,.24-.08c.16-.08.24-.16.24-.32a.494.494,0,0,0-.4-.639.6.6,0,0,0-.4.08c-.16.08-.24.16-.24.32a.72.72,0,0,0,.08.4A.428.428,0,0,0,185,25.639Z" transform="translate(-180.605 -15.312)"/>
          <path id="Path_36" data-name="Path 36" class="cls-6" d="M185,27.639h.16a.293.293,0,0,0,.24-.08c.16-.08.24-.16.24-.32a.494.494,0,0,0-.4-.639.6.6,0,0,0-.4.08c-.16.08-.24.16-.24.32a.72.72,0,0,0,.08.4C184.76,27.479,184.92,27.559,185,27.639Z" transform="translate(-180.605 -15.714)"/>
          <path id="Path_37" data-name="Path 37" class="cls-6" d="M185.339,28.595a.494.494,0,0,0-.639.4.72.72,0,0,0,.08.4c.08.16.16.24.32.24h.16a.294.294,0,0,0,.24-.08c.16-.08.24-.16.24-.32a.72.72,0,0,0-.08-.4A.428.428,0,0,0,185.339,28.595Z" transform="translate(-180.625 -16.111)"/>
          <path id="Path_38" data-name="Path 38" class="cls-6" d="M185.339,30.5a.72.72,0,0,0-.4.08c-.16.08-.24.16-.24.32a.72.72,0,0,0,.08.4c.08.16.16.24.32.24h.16a.294.294,0,0,0,.24-.08c.16-.08.24-.16.24-.32a.72.72,0,0,0-.08-.4A.428.428,0,0,0,185.339,30.5Z" transform="translate(-180.625 -16.498)"/>
          <path id="Path_39" data-name="Path 39" class="cls-6" d="M187.034,17.7a.72.72,0,0,0-.4.08c-.16.08-.24.16-.24.32a.494.494,0,0,0,.4.639h.16a.447.447,0,0,0,.479-.4.72.72,0,0,0-.08-.4A1.1,1.1,0,0,0,187.034,17.7Z" transform="translate(-180.962 -13.924)"/>
          <path id="Path_40" data-name="Path 40" class="cls-6" d="M187.034,19.7a.72.72,0,0,0-.4.08c-.16.08-.24.16-.24.32a.494.494,0,0,0,.4.639h.16a.447.447,0,0,0,.479-.4.72.72,0,0,0-.08-.4C187.274,19.78,187.194,19.7,187.034,19.7Z" transform="translate(-180.962 -14.327)"/>
          <path id="Path_41" data-name="Path 41" class="cls-6" d="M187.034,23.6a.72.72,0,0,0-.4.08c-.16.08-.24.16-.24.32a.494.494,0,0,0,.4.639h.16a.447.447,0,0,0,.479-.4.72.72,0,0,0-.08-.4C187.274,23.68,187.194,23.6,187.034,23.6Z" transform="translate(-180.962 -15.111)"/>
          <path id="Path_42" data-name="Path 42" class="cls-6" d="M187.034,25.5a.6.6,0,0,0-.4.08c-.16.08-.24.16-.24.32a.494.494,0,0,0,.4.639h.16a.447.447,0,0,0,.479-.4.72.72,0,0,0-.08-.4A1.1,1.1,0,0,0,187.034,25.5Z" transform="translate(-180.962 -15.492)"/>
          <path id="Path_43" data-name="Path 43" class="cls-6" d="M187.034,27.5a.6.6,0,0,0-.4.08c-.16.08-.24.16-.24.32a.494.494,0,0,0,.4.639h.16a.447.447,0,0,0,.479-.4.72.72,0,0,0-.08-.4C187.274,27.58,187.194,27.5,187.034,27.5Z" transform="translate(-180.962 -15.895)"/>
          <path id="Path_44" data-name="Path 44" class="cls-6" d="M187.034,29.4a.6.6,0,0,0-.4.08c-.16.08-.24.16-.24.32a.494.494,0,0,0,.4.639h.16a.447.447,0,0,0,.479-.4.72.72,0,0,0-.08-.4A1.1,1.1,0,0,0,187.034,29.4Z" transform="translate(-180.962 -16.276)"/>
          <path id="Path_45" data-name="Path 45" class="cls-6" d="M187.039,31.4a.6.6,0,0,0-.4.08c-.16.08-.24.16-.24.32a.72.72,0,0,0,.08.4c.08.16.16.24.32.24h.16a.447.447,0,0,0,.479-.4.72.72,0,0,0-.08-.4C187.279,31.48,187.2,31.4,187.039,31.4Z" transform="translate(-180.967 -16.679)"/>
          <path id="Path_46" data-name="Path 46" class="cls-6" d="M188.4,19.839h.16a.294.294,0,0,0,.24-.08c.16-.08.24-.16.24-.32a.494.494,0,0,0-.4-.639.6.6,0,0,0-.4.08c-.16.08-.24.16-.24.32A.633.633,0,0,0,188.4,19.839Z" transform="translate(-181.289 -14.146)"/>
          <path id="Path_47" data-name="Path 47" class="cls-6" d="M188.4,23.739h.16a.294.294,0,0,0,.24-.08c.16-.08.24-.16.24-.32a.494.494,0,0,0-.4-.639.6.6,0,0,0-.4.08c-.16.08-.24.16-.24.32A.712.712,0,0,0,188.4,23.739Z" transform="translate(-181.289 -14.93)"/>
          <path id="Path_48" data-name="Path 48" class="cls-6" d="M188.4,25.639h.16a.294.294,0,0,0,.24-.08c.16-.08.24-.16.24-.32a.494.494,0,0,0-.4-.639.6.6,0,0,0-.4.08c-.16.08-.24.16-.24.32a.72.72,0,0,0,.08.4A.428.428,0,0,0,188.4,25.639Z" transform="translate(-181.289 -15.312)"/>
          <path id="Path_49" data-name="Path 49" class="cls-6" d="M188.4,27.639h.16a.294.294,0,0,0,.24-.08c.16-.08.24-.16.24-.32a.494.494,0,0,0-.4-.639.6.6,0,0,0-.4.08c-.16.08-.24.16-.24.32a.72.72,0,0,0,.08.4C188.16,27.479,188.32,27.559,188.4,27.639Z" transform="translate(-181.289 -15.714)"/>
          <path id="Path_50" data-name="Path 50" class="cls-6" d="M190.434,19.7a.72.72,0,0,0-.4.08c-.16.08-.24.16-.24.32a.494.494,0,0,0,.4.639h.16a.447.447,0,0,0,.479-.4.72.72,0,0,0-.08-.4C190.674,19.78,190.594,19.7,190.434,19.7Z" transform="translate(-181.645 -14.327)"/>
          <path id="Path_51" data-name="Path 51" class="cls-6" d="M190.194,24.639h.16a.447.447,0,0,0,.479-.4.494.494,0,0,0-.4-.639.72.72,0,0,0-.4.08c-.16.08-.24.16-.24.32A.525.525,0,0,0,190.194,24.639Z" transform="translate(-181.645 -15.111)"/>
          <path id="Path_52" data-name="Path 52" class="cls-6" d="M190.194,26.539h.16a.447.447,0,0,0,.479-.4.494.494,0,0,0-.4-.639.6.6,0,0,0-.4.08c-.16.08-.24.16-.24.32A.525.525,0,0,0,190.194,26.539Z" transform="translate(-181.645 -15.492)"/>
          <path id="Path_53" data-name="Path 53" class="cls-6" d="M191.8,21.839h.16a.294.294,0,0,0,.24-.08c.16-.08.24-.16.24-.32a.494.494,0,0,0-.4-.639.6.6,0,0,0-.4.08c-.16.08-.24.16-.24.32A.6.6,0,0,0,191.8,21.839Z" transform="translate(-181.968 -14.548)"/>
          <path id="Path_54" data-name="Path 54" class="cls-6" d="M191.8,25.639h.16a.294.294,0,0,0,.24-.08c.16-.08.24-.16.24-.32a.494.494,0,0,0-.4-.639.6.6,0,0,0-.4.08c-.16.08-.24.16-.24.32a.72.72,0,0,0,.08.4C191.56,25.559,191.64,25.639,191.8,25.639Z" transform="translate(-181.972 -15.312)"/>
          <path id="Path_55" data-name="Path 55" class="cls-6" d="M193.839,13.9a.6.6,0,0,0-.4.08c-.16.08-.24.16-.24.32a.72.72,0,0,0,.08.4c.08.16.16.24.32.24h.16a.294.294,0,0,0,.24-.08c.16-.08.24-.16.24-.32a.72.72,0,0,0-.08-.4C194.079,13.98,194,13.9,193.839,13.9Z" transform="translate(-182.334 -13.161)"/>
          <path id="Path_56" data-name="Path 56" class="cls-6" d="M193.839,15.8a.6.6,0,0,0-.4.08c-.16.08-.24.16-.24.32a.72.72,0,0,0,.08.4c.08.16.16.24.32.24h.16a.447.447,0,0,0,.479-.4.72.72,0,0,0-.08-.4C194.079,15.96,194,15.8,193.839,15.8Z" transform="translate(-182.334 -13.543)"/>
          <path id="Path_57" data-name="Path 57" class="cls-6" d="M193.834,17.7a.6.6,0,0,0-.4.08c-.16.08-.24.16-.24.32a.494.494,0,0,0,.4.639h.16a.294.294,0,0,0,.24-.08c.16-.08.24-.16.24-.32a.72.72,0,0,0-.08-.4A1.1,1.1,0,0,0,193.834,17.7Z" transform="translate(-182.329 -13.924)"/>
          <path id="Path_58" data-name="Path 58" class="cls-6" d="M195.2,14.034h.16a.294.294,0,0,0,.24-.08c.16-.08.24-.16.24-.32a.494.494,0,0,0-.4-.639.525.525,0,0,0-.639.4.72.72,0,0,0,.08.4A1.1,1.1,0,0,0,195.2,14.034Z" transform="translate(-182.656 -12.975)"/>
          <path id="Path_59" data-name="Path 59" class="cls-6" d="M195.2,15.934h.16a.294.294,0,0,0,.24-.08c.16-.08.24-.16.24-.32a.494.494,0,0,0-.4-.639.525.525,0,0,0-.639.4.72.72,0,0,0,.08.4C194.96,15.854,195.04,15.934,195.2,15.934Z" transform="translate(-182.656 -13.356)"/>
          <path id="Path_60" data-name="Path 60" class="cls-6" d="M195.2,17.934h.16a.294.294,0,0,0,.24-.08c.16-.08.24-.16.24-.32a.494.494,0,0,0-.4-.639.525.525,0,0,0-.639.4.72.72,0,0,0,.08.4A1.1,1.1,0,0,0,195.2,17.934Z" transform="translate(-182.656 -13.759)"/>
          <path id="Path_61" data-name="Path 61" class="cls-6" d="M195.2,19.834h.16a.294.294,0,0,0,.24-.08c.16-.08.24-.16.24-.32a.494.494,0,0,0-.4-.639.525.525,0,0,0-.639.4.72.72,0,0,0,.08.4C194.96,19.754,195.04,19.834,195.2,19.834Z" transform="translate(-182.656 -14.14)"/>
          <path id="Path_62" data-name="Path 62" class="cls-6" d="M195.2,21.834h.16a.294.294,0,0,0,.24-.08c.16-.08.24-.16.24-.32a.494.494,0,0,0-.4-.639.525.525,0,0,0-.639.4.72.72,0,0,0,.08.4A1.1,1.1,0,0,0,195.2,21.834Z" transform="translate(-182.656 -14.543)"/>
          <path id="Path_63" data-name="Path 63" class="cls-6" d="M197.239,13.9a.72.72,0,0,0-.4.08c-.16.08-.24.16-.24.32a.72.72,0,0,0,.08.4c.08.16.16.24.32.24h.16a.294.294,0,0,0,.24-.08c.16-.08.24-.16.24-.32a.721.721,0,0,0-.08-.4C197.479,13.98,197.4,13.9,197.239,13.9Z" transform="translate(-183.017 -13.161)"/>
          <path id="Path_64" data-name="Path 64" class="cls-6" d="M197.239,15.8a.72.72,0,0,0-.4.08c-.16.08-.24.16-.24.32a.72.72,0,0,0,.08.4c.08.16.16.24.32.24h.16a.447.447,0,0,0,.479-.4.721.721,0,0,0-.08-.4C197.479,15.96,197.4,15.8,197.239,15.8Z" transform="translate(-183.017 -13.543)"/>
          <path id="Path_65" data-name="Path 65" class="cls-6" d="M197.234,17.7a.72.72,0,0,0-.4.08c-.16.08-.24.16-.24.32a.494.494,0,0,0,.4.639h.16a.294.294,0,0,0,.24-.08c.16-.08.24-.16.24-.32a.721.721,0,0,0-.08-.4A1.1,1.1,0,0,0,197.234,17.7Z" transform="translate(-183.012 -13.924)"/>
          <path id="Path_66" data-name="Path 66" class="cls-6" d="M197.234,19.7a.72.72,0,0,0-.4.08c-.16.08-.24.16-.24.32a.494.494,0,0,0,.4.639h.16a.294.294,0,0,0,.24-.08c.16-.08.24-.16.24-.32a.721.721,0,0,0-.08-.4C197.474,19.78,197.394,19.7,197.234,19.7Z" transform="translate(-183.012 -14.327)"/>
          <path id="Path_67" data-name="Path 67" class="cls-6" d="M199.034,16.9a.72.72,0,0,0-.4.08c-.16.08-.24.16-.24.32a.494.494,0,0,0,.4.639h.16a.447.447,0,0,0,.479-.4.72.72,0,0,0-.08-.4A.428.428,0,0,0,199.034,16.9Z" transform="translate(-183.374 -13.764)"/>
          <path id="Path_68" data-name="Path 68" class="cls-6" d="M204.134,17.7a.72.72,0,0,0-.4.08c-.16.08-.24.16-.24.32a.494.494,0,0,0,.4.639h.16a.447.447,0,0,0,.479-.4.72.72,0,0,0-.08-.4A1.1,1.1,0,0,0,204.134,17.7Z" transform="translate(-184.399 -13.924)"/>
          <path id="Path_69" data-name="Path 69" class="cls-6" d="M204.134,25.5a.6.6,0,0,0-.4.08c-.16.08-.24.16-.24.32a.494.494,0,0,0,.4.639h.16a.447.447,0,0,0,.479-.4.72.72,0,0,0-.08-.4A1.1,1.1,0,0,0,204.134,25.5Z" transform="translate(-184.399 -15.492)"/>
          <path id="Path_70" data-name="Path 70" class="cls-6" d="M204.134,27.5a.6.6,0,0,0-.4.08c-.16.08-.24.16-.24.32a.494.494,0,0,0,.4.639h.16a.447.447,0,0,0,.479-.4.72.72,0,0,0-.08-.4C204.374,27.58,204.294,27.5,204.134,27.5Z" transform="translate(-184.399 -15.895)"/>
          <path id="Path_71" data-name="Path 71" class="cls-6" d="M204.139,31.4a.6.6,0,0,0-.4.08c-.16.08-.24.16-.24.32a.72.72,0,0,0,.08.4c.08.16.16.24.32.24h.16a.447.447,0,0,0,.479-.4.72.72,0,0,0-.08-.4C204.379,31.48,204.3,31.4,204.139,31.4Z" transform="translate(-184.404 -16.679)"/>
          <path id="Path_72" data-name="Path 72" class="cls-6" d="M205.5,17.939h.16a.294.294,0,0,0,.24-.08c.16-.08.24-.16.24-.32a.494.494,0,0,0-.4-.639.72.72,0,0,0-.4.08c-.16.08-.24.16-.24.32A.6.6,0,0,0,205.5,17.939Z" transform="translate(-184.722 -13.764)"/>
          <path id="Path_73" data-name="Path 73" class="cls-6" d="M205.5,21.839h.16a.294.294,0,0,0,.24-.08c.16-.08.24-.16.24-.32a.494.494,0,0,0-.4-.639.6.6,0,0,0-.4.08c-.16.08-.24.16-.24.32A.6.6,0,0,0,205.5,21.839Z" transform="translate(-184.722 -14.548)"/>
          <path id="Path_74" data-name="Path 74" class="cls-6" d="M205.5,23.739h.16a.294.294,0,0,0,.24-.08c.16-.08.24-.16.24-.32a.494.494,0,0,0-.4-.639.6.6,0,0,0-.4.08c-.16.08-.24.16-.24.32A.6.6,0,0,0,205.5,23.739Z" transform="translate(-184.722 -14.93)"/>
          <path id="Path_75" data-name="Path 75" class="cls-6" d="M205.5,27.639h.16a.294.294,0,0,0,.24-.08c.16-.08.24-.16.24-.32a.494.494,0,0,0-.4-.639.6.6,0,0,0-.4.08c-.16.08-.24.16-.24.32a.72.72,0,0,0,.08.4A1.1,1.1,0,0,0,205.5,27.639Z" transform="translate(-184.726 -15.714)"/>
          <path id="Path_76" data-name="Path 76" class="cls-6" d="M205.739,30.5a.72.72,0,0,0-.4.08c-.16.08-.24.16-.24.32a.72.72,0,0,0,.08.4c.08.16.16.24.32.24h.16a.294.294,0,0,0,.24-.08c.16-.08.24-.16.24-.32a.72.72,0,0,0-.08-.4C206.059,30.58,205.9,30.5,205.739,30.5Z" transform="translate(-184.726 -16.498)"/>
          <path id="Path_77" data-name="Path 77" class="cls-6" d="M207.534,19.7a.72.72,0,0,0-.4.08c-.16.08-.24.16-.24.32a.494.494,0,0,0,.4.639h.16a.447.447,0,0,0,.479-.4.72.72,0,0,0-.08-.4C207.774,19.78,207.694,19.7,207.534,19.7Z" transform="translate(-185.083 -14.327)"/>
          <path id="Path_78" data-name="Path 78" class="cls-6" d="M207.534,21.6a.72.72,0,0,0-.4.08c-.16.08-.24.16-.24.32a.494.494,0,0,0,.4.639h.16a.447.447,0,0,0,.479-.4.72.72,0,0,0-.08-.4A1.1,1.1,0,0,0,207.534,21.6Z" transform="translate(-185.083 -14.708)"/>
          <path id="Path_79" data-name="Path 79" class="cls-6" d="M207.534,25.5a.6.6,0,0,0-.4.08c-.16.08-.24.16-.24.32a.494.494,0,0,0,.4.639h.16a.447.447,0,0,0,.479-.4.72.72,0,0,0-.08-.4A1.1,1.1,0,0,0,207.534,25.5Z" transform="translate(-185.083 -15.492)"/>
          <path id="Path_80" data-name="Path 80" class="cls-6" d="M207.534,27.5a.6.6,0,0,0-.4.08c-.16.08-.24.16-.24.32a.494.494,0,0,0,.4.639h.16a.447.447,0,0,0,.479-.4.72.72,0,0,0-.08-.4C207.774,27.58,207.694,27.5,207.534,27.5Z" transform="translate(-185.083 -15.895)"/>
          <path id="Path_81" data-name="Path 81" class="cls-6" d="M207.539,31.4a.6.6,0,0,0-.4.08c-.16.08-.24.16-.24.32a.72.72,0,0,0,.08.4c.08.16.16.24.32.24h.16a.447.447,0,0,0,.479-.4.72.72,0,0,0-.08-.4C207.779,31.48,207.7,31.4,207.539,31.4Z" transform="translate(-185.088 -16.679)"/>
          <path id="Path_82" data-name="Path 82" class="cls-6" d="M208.894,21.839h.16a.294.294,0,0,0,.24-.08c.16-.08.24-.16.24-.32a.494.494,0,0,0-.4-.639.6.6,0,0,0-.4.08c-.16.08-.24.16-.24.32A.525.525,0,0,0,208.894,21.839Z" transform="translate(-185.405 -14.548)"/>
          <path id="Path_83" data-name="Path 83" class="cls-6" d="M208.894,23.739h.16a.294.294,0,0,0,.24-.08c.16-.08.24-.16.24-.32a.494.494,0,0,0-.4-.639.6.6,0,0,0-.4.08c-.16.08-.24.16-.24.32A.525.525,0,0,0,208.894,23.739Z" transform="translate(-185.405 -14.93)"/>
          <path id="Path_84" data-name="Path 84" class="cls-6" d="M208.9,25.639h.16a.294.294,0,0,0,.24-.08c.16-.08.24-.16.24-.32a.494.494,0,0,0-.4-.639.6.6,0,0,0-.4.08c-.16.08-.24.16-.24.32a.72.72,0,0,0,.08.4C208.66,25.559,208.74,25.639,208.9,25.639Z" transform="translate(-185.41 -15.312)"/>
          <path id="Path_85" data-name="Path 85" class="cls-6" d="M208.9,27.639h.16a.294.294,0,0,0,.24-.08c.16-.08.24-.16.24-.32a.494.494,0,0,0-.4-.639.6.6,0,0,0-.4.08c-.16.08-.24.16-.24.32a.72.72,0,0,0,.08.4A1.1,1.1,0,0,0,208.9,27.639Z" transform="translate(-185.41 -15.714)"/>
          <path id="Path_86" data-name="Path 86" class="cls-6" d="M209.139,28.595a.494.494,0,0,0-.639.4.72.72,0,0,0,.08.4c.08.16.16.24.32.24h.16a.294.294,0,0,0,.24-.08c.16-.08.24-.16.24-.32a.72.72,0,0,0-.08-.4C209.379,28.675,209.3,28.595,209.139,28.595Z" transform="translate(-185.41 -16.111)"/>
          <path id="Path_87" data-name="Path 87" class="cls-6" d="M210.694,24.639h.16a.293.293,0,0,0,.24-.08c.16-.08.24-.16.24-.32a.494.494,0,0,0-.4-.639.721.721,0,0,0-.4.08c-.16.08-.24.16-.24.32A.525.525,0,0,0,210.694,24.639Z" transform="translate(-185.766 -15.111)"/>
          <path id="Path_88" data-name="Path 88" class="cls-6" d="M210.694,26.539h.16a.293.293,0,0,0,.24-.08c.16-.08.24-.16.24-.32a.494.494,0,0,0-.4-.639.6.6,0,0,0-.4.08c-.16.08-.24.16-.24.32A.525.525,0,0,0,210.694,26.539Z" transform="translate(-185.766 -15.492)"/>
          <path id="Path_89" data-name="Path 89" class="cls-6" d="M210.694,28.439h.16a.293.293,0,0,0,.24-.08c.16-.08.24-.16.24-.32a.494.494,0,0,0-.4-.639.6.6,0,0,0-.4.08c-.16.08-.24.16-.24.32C210.215,28.119,210.375,28.439,210.694,28.439Z" transform="translate(-185.766 -15.874)"/>
          <path id="Path_90" data-name="Path 90" class="cls-6" d="M210.694,30.439h.16a.293.293,0,0,0,.24-.08c.16-.08.24-.16.24-.32a.494.494,0,0,0-.4-.639.6.6,0,0,0-.4.08c-.16.08-.24.16-.24.32A.525.525,0,0,0,210.694,30.439Z" transform="translate(-185.766 -16.276)"/>
          <path id="Path_91" data-name="Path 91" class="cls-6" d="M210.7,32.339h.16a.294.294,0,0,0,.24-.08c.16-.08.24-.16.24-.32a.494.494,0,0,0-.4-.639.6.6,0,0,0-.4.08c-.16.08-.24.16-.24.32a.72.72,0,0,0,.08.4C210.38,32.259,210.54,32.339,210.7,32.339Z" transform="translate(-185.771 -16.658)"/>
          <path id="Path_92" data-name="Path 92" class="cls-6" d="M212.3,27.634h.16a.294.294,0,0,0,.24-.08c.16-.08.24-.16.24-.32a.494.494,0,0,0-.4-.639.525.525,0,0,0-.639.4.72.72,0,0,0,.08.4A1.1,1.1,0,0,0,212.3,27.634Z" transform="translate(-186.093 -15.708)"/>
          <path id="Path_93" data-name="Path 93" class="cls-6" d="M212.3,29.534h.16a.294.294,0,0,0,.24-.08c.16-.08.24-.16.24-.32a.72.72,0,0,0-.08-.4c-.08-.16-.16-.24-.32-.24a.494.494,0,0,0-.639.4.72.72,0,0,0,.08.4C212.06,29.454,212.14,29.534,212.3,29.534Z" transform="translate(-186.093 -16.09)"/>
          <path id="Path_94" data-name="Path 94" class="cls-6" d="M212.539,30.495a.525.525,0,0,0-.639.4.72.72,0,0,0,.08.4c.08.16.16.24.32.24h.16a.293.293,0,0,0,.24-.08c.16-.08.24-.16.24-.32a.72.72,0,0,0-.08-.4C212.779,30.575,212.7,30.495,212.539,30.495Z" transform="translate(-186.093 -16.492)"/>
          <path id="Path_95" data-name="Path 95" class="cls-6" d="M181.939,32.495a.494.494,0,0,0-.639.4.72.72,0,0,0,.08.4c.08.16.16.24.32.24h.16a.447.447,0,0,0,.479-.4.72.72,0,0,0-.08-.4C182.179,32.655,182.019,32.575,181.939,32.495Z" transform="translate(-179.942 -16.895)"/>
          <path id="Path_96" data-name="Path 96" class="cls-6" d="M183.634,33.4a.6.6,0,0,0-.4.08c-.16.08-.24.16-.24.32a.494.494,0,0,0,.4.639h.16a.447.447,0,0,0,.479-.4.72.72,0,0,0-.08-.4A.357.357,0,0,0,183.634,33.4Z" transform="translate(-180.278 -17.081)"/>
          <path id="Path_97" data-name="Path 97" class="cls-6" d="M185.339,34.5a.72.72,0,0,0-.4.08c-.16.08-.24.16-.24.32a.72.72,0,0,0,.08.4c.08.16.16.24.32.24h.16a.294.294,0,0,0,.24-.08c.16-.08.24-.16.24-.32a.72.72,0,0,0-.08-.4A.428.428,0,0,0,185.339,34.5Z" transform="translate(-180.625 -17.302)"/>
          <path id="Path_98" data-name="Path 98" class="cls-6" d="M187.039,35.3a.6.6,0,0,0-.4.08c-.16.08-.24.16-.24.32a.72.72,0,0,0,.08.4c.08.16.16.24.32.24h.16a.447.447,0,0,0,.479-.4.72.72,0,0,0-.08-.4A1.1,1.1,0,0,0,187.039,35.3Z" transform="translate(-180.967 -17.463)"/>
          <path id="Path_99" data-name="Path 99" class="cls-6" d="M187.039,37.3a.6.6,0,0,0-.4.08c-.16.08-.24.16-.24.32a.72.72,0,0,0,.08.4c.08.16.16.24.32.24h.16a.447.447,0,0,0,.479-.4.72.72,0,0,0-.08-.4C187.279,37.38,187.2,37.3,187.039,37.3Z" transform="translate(-180.967 -17.865)"/>
          <path id="Path_100" data-name="Path 100" class="cls-6" d="M187.039,39.2a.6.6,0,0,0-.4.08c-.16.08-.24.16-.24.32a.72.72,0,0,0,.08.4c.08.16.16.24.32.24h.16a.447.447,0,0,0,.479-.4.72.72,0,0,0-.08-.4A1.1,1.1,0,0,0,187.039,39.2Z" transform="translate(-180.967 -18.247)"/>
          <path id="Path_101" data-name="Path 101" class="cls-6" d="M188.739,34.5a.72.72,0,0,0-.4.08c-.16.08-.24.16-.24.32a.72.72,0,0,0,.08.4c.08.16.16.24.32.24h.16a.294.294,0,0,0,.24-.08c.16-.08.24-.16.24-.32a.72.72,0,0,0-.08-.4A.428.428,0,0,0,188.739,34.5Z" transform="translate(-181.309 -17.302)"/>
          <path id="Path_102" data-name="Path 102" class="cls-6" d="M188.739,36.4a.72.72,0,0,0-.4.08c-.16.08-.24.16-.24.32a.72.72,0,0,0,.08.4c.08.16.16.24.32.24h.16a.294.294,0,0,0,.24-.08c.16-.08.24-.16.24-.32a.72.72,0,0,0-.08-.4C188.979,36.56,188.819,36.48,188.739,36.4Z" transform="translate(-181.309 -17.684)"/>
          <path id="Path_103" data-name="Path 103" class="cls-6" d="M188.734,38.4a.72.72,0,0,0-.4.08c-.16.08-.24.16-.24.32a.494.494,0,0,0,.4.639h.16a.293.293,0,0,0,.24-.08c.16-.08.24-.16.24-.32a.721.721,0,0,0-.08-.4A.428.428,0,0,0,188.734,38.4Z" transform="translate(-181.304 -18.086)"/>
          <path id="Path_104" data-name="Path 104" class="cls-6" d="M188.734,40.3a.72.72,0,0,0-.4.08c-.16.08-.24.16-.24.32a.494.494,0,0,0,.4.639h.16a.294.294,0,0,0,.24-.08c.16-.08.24-.16.24-.32a.721.721,0,0,0-.08-.4C188.974,40.46,188.814,40.38,188.734,40.3Z" transform="translate(-181.304 -18.468)"/>
          <path id="Path_105" data-name="Path 105" class="cls-6" d="M188.734,42.3a.72.72,0,0,0-.4.08c-.16.08-.24.16-.24.32a.494.494,0,0,0,.4.639h.16a.293.293,0,0,0,.24-.08c.16-.08.24-.16.24-.32A.633.633,0,0,0,188.734,42.3Z" transform="translate(-181.304 -18.87)"/>
          <path id="Path_106" data-name="Path 106" class="cls-6" d="M190.2,36.339h.16a.447.447,0,0,0,.479-.4.494.494,0,0,0-.4-.639.6.6,0,0,0-.4.08c-.16.08-.24.16-.24.32a.72.72,0,0,0,.08.4C189.96,36.259,190.04,36.339,190.2,36.339Z" transform="translate(-181.65 -17.463)"/>
          <path id="Path_107" data-name="Path 107" class="cls-6" d="M190.2,38.339h.16a.447.447,0,0,0,.479-.4.494.494,0,0,0-.4-.639.6.6,0,0,0-.4.08c-.16.08-.24.16-.24.32a.72.72,0,0,0,.08.4A1.1,1.1,0,0,0,190.2,38.339Z" transform="translate(-181.65 -17.865)"/>
          <path id="Path_108" data-name="Path 108" class="cls-6" d="M190.439,39.2a.6.6,0,0,0-.4.08c-.16.08-.24.16-.24.32a.72.72,0,0,0,.08.4c.08.16.16.24.32.24h.16a.447.447,0,0,0,.479-.4.72.72,0,0,0-.08-.4A1.1,1.1,0,0,0,190.439,39.2Z" transform="translate(-181.65 -18.247)"/>
          <path id="Path_109" data-name="Path 109" class="cls-6" d="M190.439,41.2a.72.72,0,0,0-.4.08c-.16.08-.24.16-.24.32a.72.72,0,0,0,.08.4c.08.16.16.24.32.24h.16a.447.447,0,0,0,.479-.4.72.72,0,0,0-.08-.4C190.679,41.28,190.6,41.2,190.439,41.2Z" transform="translate(-181.65 -18.649)"/>
          <path id="Path_110" data-name="Path 110" class="cls-6" d="M190.439,43.1a.72.72,0,0,0-.4.08c-.16.08-.24.16-.24.32a.72.72,0,0,0,.08.4c.08.16.16.24.32.24h.16a.447.447,0,0,0,.479-.4.72.72,0,0,0-.08-.4A1.1,1.1,0,0,0,190.439,43.1Z" transform="translate(-181.65 -19.031)"/>
          <path id="Path_111" data-name="Path 111" class="cls-6" d="M190.434,45.1a.72.72,0,0,0-.4.08c-.16.08-.24.16-.24.32a.494.494,0,0,0,.4.639h.16a.447.447,0,0,0,.479-.4.72.72,0,0,0-.08-.4C190.674,45.18,190.594,45.1,190.434,45.1Z" transform="translate(-181.645 -19.433)"/>
          <path id="Path_112" data-name="Path 112" class="cls-6" d="M190.434,47a.72.72,0,0,0-.4.08c-.16.08-.24.16-.24.32a.494.494,0,0,0,.4.639h.16a.447.447,0,0,0,.479-.4.72.72,0,0,0-.08-.4A1.1,1.1,0,0,0,190.434,47Z" transform="translate(-181.645 -19.815)"/>
          <path id="Path_113" data-name="Path 113" class="cls-6" d="M192.039,36.4a.72.72,0,0,0-.4.08c-.16.08-.24.16-.24.32a.72.72,0,0,0,.08.4c.08.16.16.24.32.24h.16a.294.294,0,0,0,.24-.08c.16-.08.24-.16.24-.32a.721.721,0,0,0-.08-.4C192.279,36.48,192.2,36.48,192.039,36.4Z" transform="translate(-181.972 -17.684)"/>
          <path id="Path_114" data-name="Path 114" class="cls-6" d="M192.034,38.4a.72.72,0,0,0-.4.08c-.16.08-.24.16-.24.32a.494.494,0,0,0,.4.639h.16a.293.293,0,0,0,.24-.08c.16-.08.24-.16.24-.32a.72.72,0,0,0-.08-.4C192.354,38.48,192.194,38.4,192.034,38.4Z" transform="translate(-181.967 -18.086)"/>
          <path id="Path_115" data-name="Path 115" class="cls-6" d="M192.034,40.3a.72.72,0,0,0-.4.08c-.16.08-.24.16-.24.32a.494.494,0,0,0,.4.639h.16a.294.294,0,0,0,.24-.08c.16-.08.24-.16.24-.32a.72.72,0,0,0-.08-.4C192.354,40.46,192.194,40.38,192.034,40.3Z" transform="translate(-181.967 -18.468)"/>
          <path id="Path_116" data-name="Path 116" class="cls-6" d="M192.034,42.3a.72.72,0,0,0-.4.08c-.16.08-.24.16-.24.32a.494.494,0,0,0,.4.639h.16a.293.293,0,0,0,.24-.08c.16-.08.24-.16.24-.32A.494.494,0,0,0,192.034,42.3Z" transform="translate(-181.967 -18.87)"/>
          <path id="Path_117" data-name="Path 117" class="cls-6" d="M192.034,44.2a.72.72,0,0,0-.4.08c-.16.08-.24.16-.24.32a.494.494,0,0,0,.4.639h.16a.293.293,0,0,0,.24-.08c.16-.08.24-.16.24-.32A.525.525,0,0,0,192.034,44.2Z" transform="translate(-181.967 -19.252)"/>
          <path id="Path_118" data-name="Path 118" class="cls-6" d="M192.034,46.2a.6.6,0,0,0-.4.08c-.16.08-.24.16-.24.32a.494.494,0,0,0,.4.639h.16a.293.293,0,0,0,.24-.08c.16-.08.24-.16.24-.32C192.513,46.52,192.354,46.2,192.034,46.2Z" transform="translate(-181.967 -19.654)"/>
          <path id="Path_119" data-name="Path 119" class="cls-6" d="M192.034,48.1a.6.6,0,0,0-.4.08c-.16.08-.24.16-.24.32a.494.494,0,0,0,.4.639h.16a.293.293,0,0,0,.24-.08c.16-.08.24-.16.24-.32A.494.494,0,0,0,192.034,48.1Z" transform="translate(-181.967 -20.036)"/>
          <path id="Path_120" data-name="Path 120" class="cls-6" d="M193.839,39.2a.6.6,0,0,0-.4.08c-.16.08-.24.16-.24.32a.72.72,0,0,0,.08.4c.08.16.16.24.32.24h.16a.294.294,0,0,0,.24-.08c.16-.08.24-.16.24-.32a.72.72,0,0,0-.08-.4A1.1,1.1,0,0,0,193.839,39.2Z" transform="translate(-182.334 -18.247)"/>
          <path id="Path_121" data-name="Path 121" class="cls-6" d="M193.839,41.2a.6.6,0,0,0-.4.08c-.16.08-.24.16-.24.32a.72.72,0,0,0,.08.4c.08.16.16.24.32.24h.16a.294.294,0,0,0,.24-.08c.16-.08.24-.16.24-.32a.72.72,0,0,0-.08-.4C194.079,41.28,194,41.2,193.839,41.2Z" transform="translate(-182.334 -18.649)"/>
          <path id="Path_122" data-name="Path 122" class="cls-6" d="M193.839,43.1a.6.6,0,0,0-.4.08c-.16.08-.24.16-.24.32a.72.72,0,0,0,.08.4c.08.16.16.24.32.24h.16a.447.447,0,0,0,.479-.4.72.72,0,0,0-.08-.4A1.1,1.1,0,0,0,193.839,43.1Z" transform="translate(-182.334 -19.031)"/>
          <path id="Path_123" data-name="Path 123" class="cls-6" d="M195.439,38.395a.525.525,0,0,0-.639.4.72.72,0,0,0,.08.4c.08.16.16.24.32.24h.16a.294.294,0,0,0,.24-.08c.16-.08.24-.16.24-.32a.72.72,0,0,0-.08-.4C195.759,38.475,195.6,38.395,195.439,38.395Z" transform="translate(-182.656 -18.081)"/>
          <path id="Path_124" data-name="Path 124" class="cls-6" d="M195.439,40.295a.525.525,0,0,0-.639.4.72.72,0,0,0,.08.4c.08.16.16.24.32.24h.16a.294.294,0,0,0,.24-.08c.16-.08.24-.16.24-.32a.72.72,0,0,0-.08-.4C195.759,40.455,195.6,40.375,195.439,40.295Z" transform="translate(-182.656 -18.463)"/>
          <path id="Path_125" data-name="Path 125" class="cls-6" d="M202.339,32.495a.494.494,0,0,0-.639.4.72.72,0,0,0,.08.4c.08.16.16.24.32.24h.16a.447.447,0,0,0,.479-.4.72.72,0,0,0-.08-.4C202.659,32.655,202.5,32.575,202.339,32.495Z" transform="translate(-184.043 -16.895)"/>
          <path id="Path_126" data-name="Path 126" class="cls-6" d="M202.339,34.5a.6.6,0,0,0-.4.08c-.16.08-.24.16-.24.32a.72.72,0,0,0,.08.4c.08.16.16.24.32.24h.16a.447.447,0,0,0,.479-.4.72.72,0,0,0-.08-.4C202.659,34.58,202.5,34.5,202.339,34.5Z" transform="translate(-184.043 -17.302)"/>
          <path id="Path_127" data-name="Path 127" class="cls-6" d="M204.134,33.4a.6.6,0,0,0-.4.08c-.16.08-.24.16-.24.32a.494.494,0,0,0,.4.639h.16a.447.447,0,0,0,.479-.4.72.72,0,0,0-.08-.4C204.374,33.56,204.294,33.4,204.134,33.4Z" transform="translate(-184.399 -17.081)"/>
          <path id="Path_128" data-name="Path 128" class="cls-6" d="M204.139,35.3a.6.6,0,0,0-.4.08c-.16.08-.24.16-.24.32a.72.72,0,0,0,.08.4c.08.16.16.24.32.24h.16a.447.447,0,0,0,.479-.4.72.72,0,0,0-.08-.4A1.1,1.1,0,0,0,204.139,35.3Z" transform="translate(-184.404 -17.463)"/>
          <path id="Path_129" data-name="Path 129" class="cls-6" d="M205.739,32.495a.494.494,0,0,0-.639.4.72.72,0,0,0,.08.4c.08.16.16.24.32.24h.16a.294.294,0,0,0,.24-.08c.16-.08.24-.16.24-.32a.72.72,0,0,0-.08-.4C206.059,32.655,205.9,32.575,205.739,32.495Z" transform="translate(-184.726 -16.895)"/>
          <path id="Path_130" data-name="Path 130" class="cls-6" d="M205.739,34.5a.72.72,0,0,0-.4.08c-.16.08-.24.16-.24.32a.72.72,0,0,0,.08.4c.08.16.16.24.32.24h.16a.294.294,0,0,0,.24-.08c.16-.08.24-.16.24-.32a.72.72,0,0,0-.08-.4C206.059,34.58,205.9,34.5,205.739,34.5Z" transform="translate(-184.726 -17.302)"/>
          <path id="Path_131" data-name="Path 131" class="cls-6" d="M205.739,36.4a.72.72,0,0,0-.4.08c-.16.08-.24.16-.24.32a.72.72,0,0,0,.08.4c.08.16.16.24.32.24h.16a.294.294,0,0,0,.24-.08c.16-.08.24-.16.24-.32a.72.72,0,0,0-.08-.4C206.059,36.56,205.9,36.48,205.739,36.4Z" transform="translate(-184.726 -17.684)"/>
          <path id="Path_132" data-name="Path 132" class="cls-6" d="M207.534,33.4a.6.6,0,0,0-.4.08c-.16.08-.24.16-.24.32a.494.494,0,0,0,.4.639h.16a.447.447,0,0,0,.479-.4.72.72,0,0,0-.08-.4C207.774,33.56,207.694,33.4,207.534,33.4Z" transform="translate(-185.083 -17.081)"/>
          <path id="Path_133" data-name="Path 133" class="cls-6" d="M207.539,35.3a.6.6,0,0,0-.4.08c-.16.08-.24.16-.24.32a.72.72,0,0,0,.08.4c.08.16.16.24.32.24h.16a.447.447,0,0,0,.479-.4.72.72,0,0,0-.08-.4A1.1,1.1,0,0,0,207.539,35.3Z" transform="translate(-185.088 -17.463)"/>
          <path id="Path_134" data-name="Path 134" class="cls-6" d="M207.539,37.3a.6.6,0,0,0-.4.08c-.16.08-.24.16-.24.32a.72.72,0,0,0,.08.4c.08.16.16.24.32.24h.16a.447.447,0,0,0,.479-.4.72.72,0,0,0-.08-.4C207.779,37.38,207.7,37.3,207.539,37.3Z" transform="translate(-185.088 -17.865)"/>
          <path id="Path_135" data-name="Path 135" class="cls-6" d="M207.3,40.239h.16a.447.447,0,0,0,.479-.4.72.72,0,0,0-.08-.4c-.08-.16-.16-.24-.32-.24a.6.6,0,0,0-.4.08c-.16.08-.24.16-.24.32a.72.72,0,0,0,.08.4C206.98,40.159,207.14,40.239,207.3,40.239Z" transform="translate(-185.088 -18.247)"/>
          <path id="Path_136" data-name="Path 136" class="cls-6" d="M207.539,41.2a.72.72,0,0,0-.4.08c-.16.08-.24.16-.24.32a.72.72,0,0,0,.08.4c.08.16.16.24.32.24h.16a.447.447,0,0,0,.479-.4.72.72,0,0,0-.08-.4C207.779,41.28,207.7,41.2,207.539,41.2Z" transform="translate(-185.088 -18.649)"/>
          <path id="Path_137" data-name="Path 137" class="cls-6" d="M207.539,43.1a.72.72,0,0,0-.4.08c-.16.08-.24.16-.24.32a.72.72,0,0,0,.08.4c.08.16.16.24.32.24h.16a.447.447,0,0,0,.479-.4.72.72,0,0,0-.08-.4A1.1,1.1,0,0,0,207.539,43.1Z" transform="translate(-185.088 -19.031)"/>
          <path id="Path_138" data-name="Path 138" class="cls-6" d="M209.139,32.495a.494.494,0,0,0-.639.4.72.72,0,0,0,.08.4c.08.16.16.24.32.24h.16a.294.294,0,0,0,.24-.08c.16-.08.24-.16.24-.32a.72.72,0,0,0-.08-.4A1.1,1.1,0,0,0,209.139,32.495Z" transform="translate(-185.41 -16.895)"/>
          <path id="Path_139" data-name="Path 139" class="cls-6" d="M209.139,34.5a.72.72,0,0,0-.4.08c-.16.08-.24.16-.24.32a.72.72,0,0,0,.08.4c.08.16.16.24.32.24h.16a.294.294,0,0,0,.24-.08c.16-.08.24-.16.24-.32a.72.72,0,0,0-.08-.4C209.379,34.58,209.3,34.5,209.139,34.5Z" transform="translate(-185.41 -17.302)"/>
          <path id="Path_140" data-name="Path 140" class="cls-6" d="M209.139,36.4a.72.72,0,0,0-.4.08c-.16.08-.24.16-.24.32a.72.72,0,0,0,.08.4c.08.16.16.24.32.24h.16a.294.294,0,0,0,.24-.08c.16-.08.24-.16.24-.32a.72.72,0,0,0-.08-.4A1.1,1.1,0,0,0,209.139,36.4Z" transform="translate(-185.41 -17.684)"/>
          <path id="Path_141" data-name="Path 141" class="cls-6" d="M209.134,38.4a.72.72,0,0,0-.4.08c-.16.08-.24.16-.24.32a.494.494,0,0,0,.4.639h.16a.294.294,0,0,0,.24-.08c.16-.08.24-.16.24-.32a.72.72,0,0,0-.08-.4C209.374,38.48,209.294,38.4,209.134,38.4Z" transform="translate(-185.405 -18.086)"/>
          <path id="Path_142" data-name="Path 142" class="cls-6" d="M209.134,40.3a.72.72,0,0,0-.4.08c-.16.08-.24.16-.24.32a.494.494,0,0,0,.4.639h.16a.294.294,0,0,0,.24-.08c.16-.08.24-.16.24-.32a.72.72,0,0,0-.08-.4A1.1,1.1,0,0,0,209.134,40.3Z" transform="translate(-185.405 -18.468)"/>
          <path id="Path_143" data-name="Path 143" class="cls-6" d="M209.134,42.3a.72.72,0,0,0-.4.08c-.16.08-.24.16-.24.32a.494.494,0,0,0,.4.639h.16a.294.294,0,0,0,.24-.08c.16-.08.24-.16.24-.32A.494.494,0,0,0,209.134,42.3Z" transform="translate(-185.405 -18.87)"/>
          <path id="Path_144" data-name="Path 144" class="cls-6" d="M210.934,33.4a.6.6,0,0,0-.4.08c-.16.08-.24.16-.24.32a.494.494,0,0,0,.4.639h.16a.293.293,0,0,0,.24-.08c.16-.08.24-.16.24-.32A.6.6,0,0,0,210.934,33.4Z" transform="translate(-185.766 -17.081)"/>
          <path id="Path_145" data-name="Path 145" class="cls-6" d="M210.7,36.339h.16a.294.294,0,0,0,.24-.08c.16-.08.24-.16.24-.32a.494.494,0,0,0-.4-.639.6.6,0,0,0-.4.08c-.16.08-.24.16-.24.32a.72.72,0,0,0,.08.4C210.38,36.259,210.54,36.339,210.7,36.339Z" transform="translate(-185.771 -17.463)"/>
          <path id="Path_146" data-name="Path 146" class="cls-6" d="M210.7,38.339h.16a.294.294,0,0,0,.24-.08c.16-.08.24-.16.24-.32a.494.494,0,0,0-.4-.639.6.6,0,0,0-.4.08c-.16.08-.24.16-.24.32a.72.72,0,0,0,.08.4C210.38,38.179,210.54,38.259,210.7,38.339Z" transform="translate(-185.771 -17.865)"/>
          <path id="Path_147" data-name="Path 147" class="cls-6" d="M210.939,39.2a.6.6,0,0,0-.4.08c-.16.08-.24.16-.24.32a.72.72,0,0,0,.08.4c.08.16.16.24.32.24h.16a.294.294,0,0,0,.24-.08c.16-.08.24-.16.24-.32a.72.72,0,0,0-.08-.4A1.1,1.1,0,0,0,210.939,39.2Z" transform="translate(-185.771 -18.247)"/>
          <path id="Path_148" data-name="Path 148" class="cls-6" d="M212.539,32.495a.494.494,0,0,0-.639.4.72.72,0,0,0,.08.4c.08.16.16.24.32.24h.16a.294.294,0,0,0,.24-.08c.16-.08.24-.16.24-.32a.72.72,0,0,0-.08-.4A1.1,1.1,0,0,0,212.539,32.495Z" transform="translate(-186.093 -16.895)"/>
          <path id="Path_149" data-name="Path 149" class="cls-6" d="M212.539,34.495a.525.525,0,0,0-.639.4.72.72,0,0,0,.08.4c.08.16.16.24.32.24h.16a.294.294,0,0,0,.24-.08c.16-.08.24-.16.24-.32a.72.72,0,0,0-.08-.4C212.779,34.575,212.7,34.495,212.539,34.495Z" transform="translate(-186.093 -17.297)"/>
          <path id="Path_150" data-name="Path 150" class="cls-6" d="M212.539,36.395a.525.525,0,0,0-.639.4.72.72,0,0,0,.08.4c.08.16.16.24.32.24h.16a.294.294,0,0,0,.24-.08c.16-.08.24-.16.24-.32a.72.72,0,0,0-.08-.4A1.1,1.1,0,0,0,212.539,36.395Z" transform="translate(-186.093 -17.679)"/>
        </g>
        <path id="Path_151" data-name="Path 151" class="cls-7" d="M76.782,38.021c-.559-7.031-2-27.085-2-27.085L73.107,7.9a2.8,2.8,0,0,1-.639-.4,1.675,1.675,0,0,0-.639.479l-6.472,6.552L62.8,17.088l.959,17.657c.559,12.943,10.147,17.1,16.619,16.619,6.631-.479,9.188-3.436,11.266-5.593C81.5,49.366,77.022,41.217,76.782,38.021Z" transform="translate(-12.624 -1.505)"/>
        <path id="Path_152" data-name="Path 152" class="cls-8" d="M12.7,13.891,6.232,7.26l-.16-.16c-.32.24-.559.479-.8.639a.963.963,0,0,0-.4.4L3.515,10.7a.48.48,0,0,0-.08.32L0,51.283H5.992a7.747,7.747,0,0,0,7.75-7.43L15.58,16.608Z" transform="translate(0 -1.425)"/>
        <path id="Path_153" data-name="Path 153" class="cls-9" d="M60.311,1.525c-3.036-.879-6.152.24-8.549,2.557L36.582,19.1,34.824,20.78a7.845,7.845,0,0,1-7.59,1.918L22.2,20.78l8.789,8.709a8.411,8.411,0,0,0,12.144.4L57.2,15.906l6.472-6.552c1.119-1.039,2.557-1.2,3.036,1.758C66.383,3.842,62.548,2.244,60.311,1.525Z" transform="translate(-4.463 -0.244)"/>
        <path id="Path_154" data-name="Path 154" class="cls-10" d="M10.492,1.525c3.036-.879,6.152.24,8.549,2.557L34.221,19.1l1.758,1.678a7.845,7.845,0,0,0,7.59,1.918L48.6,20.78l-9.028,9.108a8.526,8.526,0,0,1-5.992,2.4,8.34,8.34,0,0,1-5.912-2.4L13.528,15.906,7.056,9.355C5.938,8.316,4.5,8.156,4.1,11.033,4.42,3.842,8.255,2.244,10.492,1.525Z" transform="translate(-0.824 -0.244)"/>
      </g>
    </g>
  </g>
</svg>
