<svg xmlns="http://www.w3.org/2000/svg" viewBox="0 0 100.609 85.073">
  <defs>
    <style>
      .cls-1 {
        fill: none;
        stroke: #fff;
        stroke-linecap: round;
        stroke-linejoin: round;
        stroke-miterlimit: 10;
        stroke-width: 2px;
      }
    </style>
  </defs>
  <g id="Group_96" data-name="Group 96" transform="translate(1 1)">
    <g id="Group_95" data-name="Group 95" transform="translate(0 0)">
      <path id="Path_414" data-name="Path 414" class="cls-1" d="M.8,9.7,39.539,28.345V73.921L.8,55.069Z" transform="translate(-0.8 8.738)"/>
      <path id="Path_415" data-name="Path 415" class="cls-1" d="M39.539,37.882.8,19.238,38.918.8,78.072,19.238Z" transform="translate(-0.8 -0.8)"/>
      <path id="Path_416" data-name="Path 416" class="cls-1" d="M46.747,27.624,7.8,8.772,18.365,3.8,57.312,22.238Z" transform="translate(6.701 2.415)"/>
      <path id="Path_417" data-name="Path 417" class="cls-1" d="M37.272,12.7,26.5,18.086V34.038l10.772-5.386Z" transform="translate(26.741 11.952)"/>
      <line id="Line_6" data-name="Line 6" class="cls-1" x1="6.215" y1="3.107" transform="translate(4.558 56.348)"/>
      <line id="Line_7" data-name="Line 7" class="cls-1" x1="11.808" y1="5.593" transform="translate(4.558 50.548)"/>
      <path id="Path_418" data-name="Path 418" class="cls-1" d="M41.252,46.989a6.012,6.012,0,0,1,6.008-6.008H58.032V9.7L19.5,28.552V74.128L41.252,63.355Z" transform="translate(19.239 8.738)"/>
    </g>
    <path id="Path_419" data-name="Path 419" class="cls-1" d="M33.8,34.573V26.287A11.14,11.14,0,0,1,44.987,15.1h0A11.14,11.14,0,0,1,56.174,26.287v8.287" transform="translate(34.564 14.524)"/>
    <path id="Path_420" data-name="Path 420" class="cls-1" d="M62.11,58.153h-26.1A6.012,6.012,0,0,1,30,52.146V30.808A6.012,6.012,0,0,1,36.008,24.8h26.1a6.012,6.012,0,0,1,6.008,6.008V52.146A6.012,6.012,0,0,1,62.11,58.153Z" transform="translate(30.491 24.919)"/>
    <path id="Path_421" data-name="Path 421" class="cls-1" d="M48.63,45.059l-3.522-6.008A5.24,5.24,0,0,0,47.8,34.286a5.387,5.387,0,1,0-8.079,4.765L36.2,45.059Z" transform="translate(37.135 29.313)"/>
  </g>
</svg>
