<svg xmlns="http://www.w3.org/2000/svg" viewBox="0 0 22.301 23">
  <defs>
    <style>
      .cls-1 {
        fill: #fff;
      }

      .cls-2 {
        fill: #e22c2c;
      }
    </style>
  </defs>
  <g id="Symbol_2_1" data-name="Symbol 2 – 1" transform="translate(-1687.699 -61.108)">
    <rect id="Rectangle_4" data-name="Rectangle 4" class="cls-1" width="22.301" height="23" rx="4" transform="translate(1687.699 61.108)"/>
    <g id="linkedin" transform="translate(1691.068 63.651)">
      <g id="Group_31" data-name="Group 31">
        <path id="Path_184" data-name="Path 184" class="cls-2" d="M42.878,33.521V39.55H39.488V33.925c0-1.412-.489-2.377-1.716-2.377a1.861,1.861,0,0,0-1.738,1.278,2.462,2.462,0,0,0-.112.852V39.55h-3.39s.045-9.527,0-10.513h3.39v1.49c-.007.012-.016.023-.022.034h.022v-.034a3.351,3.351,0,0,1,3.055-1.737c2.23,0,3.9,1.5,3.9,4.731ZM28.986,23.969a1.818,1.818,0,1,0-.044,3.633h.022a1.819,1.819,0,1,0,.022-3.633ZM27.269,39.55h3.388V29.037H27.269Z" transform="translate(-27.068 -23.969)"/>
      </g>
    </g>
  </g>
</svg>
