<svg xmlns="http://www.w3.org/2000/svg" xmlns:xlink="http://www.w3.org/1999/xlink" viewBox="0 0 356.887 50">
  <defs>
    <style>
      .cls-1 {
        fill: #375992;
      }

      .cls-2 {
        fill: url(#linear-gradient);
      }

      .cls-3 {
        fill: url(#linear-gradient-2);
      }

      .cls-4 {
        fill: url(#linear-gradient-3);
      }

      .cls-5 {
        fill: url(#linear-gradient-4);
      }

      .cls-6 {
        fill: #c23c30;
      }

      .cls-7 {
        fill: url(#linear-gradient-5);
      }

      .cls-8 {
        fill: url(#linear-gradient-6);
      }

      .cls-9 {
        fill: url(#linear-gradient-7);
      }

      .cls-10 {
        fill: #e22c2c;
      }

      .cls-11 {
        fill: #445e91;
      }
    </style>
    <linearGradient id="linear-gradient" x1="0.088" y1="0.446" x2="0.429" y2="0.85" gradientUnits="objectBoundingBox">
      <stop offset="0" stop-color="#901718"/>
      <stop offset="0.411" stop-color="#901718"/>
      <stop offset="1" stop-color="#e22c2c"/>
    </linearGradient>
    <linearGradient id="linear-gradient-2" x1="0.213" y1="0.945" x2="0.363" y2="0.44" gradientUnits="objectBoundingBox">
      <stop offset="0" stop-color="#901718"/>
      <stop offset="0.386" stop-color="#901718"/>
      <stop offset="1" stop-color="#e22c2c"/>
    </linearGradient>
    <linearGradient id="linear-gradient-3" y1="-0.156" x2="0.327" y2="0.571" gradientUnits="objectBoundingBox">
      <stop offset="0" stop-color="#901718"/>
      <stop offset="0.318" stop-color="#901718"/>
      <stop offset="1" stop-color="#e22c2c"/>
    </linearGradient>
    <linearGradient id="linear-gradient-4" x1="0.331" y1="0.915" x2="0.582" y2="0.471" gradientUnits="objectBoundingBox">
      <stop offset="0" stop-color="#901718"/>
      <stop offset="0.321" stop-color="#901718"/>
      <stop offset="1" stop-color="#e22c2c"/>
    </linearGradient>
    <linearGradient id="linear-gradient-5" x1="0.254" y1="-0.079" x2="0.271" y2="0.704" gradientUnits="objectBoundingBox">
      <stop offset="0" stop-color="#901718"/>
      <stop offset="0.336" stop-color="#901718"/>
      <stop offset="1" stop-color="#e22c2c"/>
    </linearGradient>
    <linearGradient id="linear-gradient-6" x1="0.5" x2="0.492" y2="0.599" gradientUnits="objectBoundingBox">
      <stop offset="0" stop-color="#901718"/>
      <stop offset="0.418" stop-color="#901718"/>
      <stop offset="1" stop-color="#e22c2c"/>
    </linearGradient>
    <linearGradient id="linear-gradient-7" x1="0.35" y1="0.704" x2="0.699" y2="0.168" gradientUnits="objectBoundingBox">
      <stop offset="0" stop-color="#901718"/>
      <stop offset="0.014" stop-color="#901718"/>
      <stop offset="1" stop-color="#e22c2c"/>
    </linearGradient>
  </defs>
  <g id="Symbol_1_1" data-name="Symbol 1 – 1" transform="translate(-193.966 -96.899)">
    <g id="Group_20" data-name="Group 20" transform="translate(384.75 105.235)">
      <g id="Group_19" data-name="Group 19">
        <g id="Group_18" data-name="Group 18">
          <g id="Group_2" data-name="Group 2" transform="translate(0 0.159)">
            <g id="Group_1" data-name="Group 1">
              <path id="Path_1" data-name="Path 1" class="cls-1" d="M251.114,14.906l-3.492,12.3H242.3l3.492-12.3h-5.4l1.19-4.206h16.19l-1.19,4.206Z" transform="translate(-240.4 -10.7)"/>
            </g>
          </g>
          <g id="Group_4" data-name="Group 4" transform="translate(15.079)">
            <g id="Group_3" data-name="Group 3">
              <path id="Path_2" data-name="Path 2" class="cls-1" d="M273.844,20.182l1.746,6.9h-5.952l-1.27-6.031h-1.984l-1.667,6.031H259.4L264.082,10.5h10.079c3.651,0,4.92,2.381,4.127,5.079A6.765,6.765,0,0,1,273.844,20.182Zm-2.063-5.793h-3.492l-.873,3.016h3.492a2.1,2.1,0,0,0,1.9-1.508A1.078,1.078,0,0,0,271.78,14.389Z" transform="translate(-259.4 -10.5)"/>
            </g>
          </g>
          <g id="Group_6" data-name="Group 6" transform="translate(32.935 0.079)">
            <g id="Group_5" data-name="Group 5">
              <path id="Path_3" data-name="Path 3" class="cls-1" d="M294.518,27.186l-.079-2.3h-5.793l-1.349,2.3h-5.4L292.614,10.6h6.19l1.349,16.586Zm-3.651-6.031h3.571l-.079-5.873h-.079Z" transform="translate(-281.9 -10.6)"/>
            </g>
          </g>
          <g id="Group_8" data-name="Group 8" transform="translate(53.172 0.079)">
            <g id="Group_7" data-name="Group 7">
              <path id="Path_4" data-name="Path 4" class="cls-1" d="M319.225,27.186l-4.682-8.015-2.222,8.015H307.4L312.082,10.6h4.6l4.682,8.174,2.3-8.174h4.92l-4.682,16.586Z" transform="translate(-307.4 -10.6)"/>
            </g>
          </g>
          <g id="Group_10" data-name="Group 10" transform="translate(90.63 0.079)">
            <g id="Group_9" data-name="Group 9">
              <path id="Path_5" data-name="Path 5" class="cls-1" d="M372.3,16.076l-.079.317a7.42,7.42,0,0,1-6.825,5.476h-3.968l-1.508,5.317H354.6L359.282,10.6h9.285C371.583,10.6,373.17,12.9,372.3,16.076Zm-9.841,1.9h2.222a2.147,2.147,0,0,0,2.143-1.587l.079-.159c.238-.952-.079-1.587-1.27-1.587h-2.222Z" transform="translate(-354.6 -10.6)"/>
            </g>
          </g>
          <g id="Group_12" data-name="Group 12" transform="translate(109.242 0.079)">
            <g id="Group_11" data-name="Group 11">
              <path id="Path_6" data-name="Path 6" class="cls-1" d="M396.264,19.012c-1.429,5.555-5.4,8.412-11.031,8.412s-8.174-2.857-6.825-8.412c1.428-5.555,5.4-8.412,11.031-8.412S397.692,13.457,396.264,19.012ZM384.042,18.3l-.4,1.508c-.556,2.222.238,3.73,2.54,3.73a4.5,4.5,0,0,0,4.444-3.73l.4-1.508c.556-2.222-.238-3.73-2.54-3.73C386.106,14.489,384.6,16.076,384.042,18.3Z" transform="translate(-378.052 -10.6)"/>
            </g>
          </g>
          <g id="Group_14" data-name="Group 14" transform="translate(128.01)">
            <g id="Group_13" data-name="Group 13">
              <path id="Path_7" data-name="Path 7" class="cls-1" d="M416.144,20.182l1.746,6.9h-5.952l-1.27-6.031h-1.984l-1.667,6.031H401.7L406.382,10.5H416.54c3.651,0,4.92,2.381,4.127,5.079A7.054,7.054,0,0,1,416.144,20.182Zm-2.063-5.793h-3.492l-.873,3.016h3.492a2.1,2.1,0,0,0,1.9-1.508A1.078,1.078,0,0,0,414.08,14.389Z" transform="translate(-401.7 -10.5)"/>
            </g>
          </g>
          <g id="Group_16" data-name="Group 16" transform="translate(148.723 0.159)">
            <g id="Group_15" data-name="Group 15">
              <path id="Path_8" data-name="Path 8" class="cls-1" d="M438.514,14.906l-3.413,12.3h-5.317l3.492-12.3H427.8l1.19-4.206h16.19l-1.19,4.206Z" transform="translate(-427.8 -10.7)"/>
            </g>
          </g>
          <g id="Group_17" data-name="Group 17" transform="translate(72.536 0.079)">
            <path id="Path_9" data-name="Path 9" class="cls-1" d="M341.006,16.949a1.194,1.194,0,0,1-.794-2.063.857.857,0,0,1,.556-.238h10.238c.238-1.508.952-4.047.952-4.047H342.99c-3.889,0-6.984,1.19-8.095,5a9.872,9.872,0,0,0-.317,1.27,3.136,3.136,0,0,0,3.016,3.968h5.317a.618.618,0,0,1,.556.238,1.211,1.211,0,0,1-.794,2.063h-9.523c-.4,1.587-1.349,4.047-1.349,4.047h8.333c4.127,0,8.015.317,9.365-5.317.079-.238.079-.476.159-.635a3.432,3.432,0,0,0-3.333-4.206h-5.317Z" transform="translate(-331.8 -10.6)"/>
          </g>
        </g>
      </g>
    </g>
    <g id="Group_23" data-name="Group 23" transform="translate(193.966 96.899)">
      <g id="Group_22" data-name="Group 22">
        <path id="Path_10" data-name="Path 10" class="cls-2" d="M195.946,37.677a14.2,14.2,0,0,1-10,1.19,14.139,14.139,0,0,1,3.571-27.856,13.527,13.527,0,0,1,6.428,1.587,7.58,7.58,0,0,0,8.809-1.349l3.016-3.016a24.947,24.947,0,0,0-27.538-6.19,25.493,25.493,0,0,0-14.047,13.809c-7.222,17.3,6.428,34.2,23.253,34.2a24.8,24.8,0,0,0,18.253-7.936l-2.936-2.936A7.5,7.5,0,0,0,195.946,37.677Z" transform="translate(-33.891 -0.058)"/>
        <path id="Path_11" data-name="Path 11" class="cls-3" d="M178.917.6A24.864,24.864,0,0,0,161.3,13.77c0,.079-.079.079-.079.159l-.238.476c-.079.238-.238.476-.317.714L149.395,39.245a10.6,10.6,0,0,1-4.682,5c-2.619,1.508-6.508,3.174-8.412,2.7a15.46,15.46,0,0,0,8.65,2.857c7.063.238,12.936-2.619,17.856-13.729l6.587-13.888a9.105,9.105,0,0,1,.714-1.508c.079-.079.079-.238.159-.317l1.111-2.3A14.141,14.141,0,0,1,183.6,10.992a14.548,14.548,0,0,1,6.666,1.667,7.4,7.4,0,0,0,8.571-1.508l3.016-3.016A25.273,25.273,0,0,0,178.917.6Z" transform="translate(-28.131 -0.038)"/>
        <path id="Path_12" data-name="Path 12" class="cls-4" d="M149.792,46.687c-3.1,0-9.444-2.619-12.3-8.492l-15-32.141a1.1,1.1,0,0,1-.317-.238c-.079-.079-.714-.635-1.984-.079-.238.079-.556.476-.873.873L114,17.165l9.523,19.761c5.4,12.063,11.9,13.888,17.7,13.888a14.582,14.582,0,0,0,9.206-2.857,18.39,18.39,0,0,0,2.619-2.381A6.665,6.665,0,0,1,149.792,46.687Z" transform="translate(-23.528 -1.131)"/>
        <path id="Path_13" data-name="Path 13" class="cls-5" d="M112.463,3.333h0A6.362,6.362,0,0,0,106.828,0a8.056,8.056,0,0,0-7.46,4.6L90.559,22.7h0L83.1,38.172a10.29,10.29,0,0,1-4.682,4.682,15.238,15.238,0,0,1-8.174,2.063A3.294,3.294,0,0,1,68.1,43.251s2.3,1.984,3.492,2.857a11.121,11.121,0,0,0,7.7,3.333c.159,0,.4.079.556.079,5.793.079,12.3-1.667,17.856-13.571l3.889-7.777h0l3.809-7.7,5.714-11.349a2.214,2.214,0,0,1,.873-.873c1.27-.556,1.9,0,1.984.079.317.238,1.032.794,1.032.794Z" transform="translate(-14.055 0.003)"/>
        <g id="Group_21" data-name="Group 21" transform="translate(142.533 10.299)">
          <path id="Path_14" data-name="Path 14" class="cls-6" d="M180.235,23.6a.6.6,0,0,0-.4.079c-.159.079-.238.159-.238.317a.715.715,0,0,0,.079.4c.079.159.159.238.317.238h.159a.292.292,0,0,0,.238-.079c.159-.079.238-.159.238-.317a.715.715,0,0,0-.079-.4C180.552,23.679,180.394,23.6,180.235,23.6Z" transform="translate(-179.6 -15.167)"/>
          <path id="Path_15" data-name="Path 15" class="cls-6" d="M180.235,25.5a.6.6,0,0,0-.4.079c-.159.079-.238.159-.238.317a.715.715,0,0,0,.079.4c.079.159.159.238.317.238h.159a.292.292,0,0,0,.238-.079c.159-.079.238-.159.238-.317a.715.715,0,0,0-.079-.4C180.552,25.659,180.394,25.579,180.235,25.5Z" transform="translate(-179.6 -15.56)"/>
          <path id="Path_16" data-name="Path 16" class="cls-6" d="M180.235,27.5a.6.6,0,0,0-.4.079c-.159.079-.238.159-.238.317a.715.715,0,0,0,.079.4c.079.159.159.238.317.238h.159a.292.292,0,0,0,.238-.079c.159-.079.238-.159.238-.317a.715.715,0,0,0-.079-.4C180.552,27.579,180.394,27.5,180.235,27.5Z" transform="translate(-179.6 -15.972)"/>
          <path id="Path_17" data-name="Path 17" class="cls-6" d="M180.235,29.4a.6.6,0,0,0-.4.079c-.159.079-.238.159-.238.317a.715.715,0,0,0,.079.4c.079.159.159.238.317.238h.159a.292.292,0,0,0,.238-.079c.159-.079.238-.159.238-.317a.715.715,0,0,0-.079-.4C180.552,29.559,180.394,29.479,180.235,29.4Z" transform="translate(-179.6 -16.365)"/>
          <path id="Path_18" data-name="Path 18" class="cls-6" d="M181.93,20.8a.6.6,0,0,0-.4.079c-.159.079-.238.159-.238.317a.491.491,0,0,0,.4.635h.159a.444.444,0,0,0,.476-.4.715.715,0,0,0-.079-.4A.425.425,0,0,0,181.93,20.8Z" transform="translate(-179.946 -14.59)"/>
          <path id="Path_19" data-name="Path 19" class="cls-6" d="M181.93,22.7a.6.6,0,0,0-.4.079c-.159.079-.238.159-.238.317a.491.491,0,0,0,.4.635h.159a.444.444,0,0,0,.476-.4.715.715,0,0,0-.079-.4C182.168,22.859,182.009,22.779,181.93,22.7Z" transform="translate(-179.946 -14.982)"/>
          <path id="Path_20" data-name="Path 20" class="cls-6" d="M181.935,24.7a.6.6,0,0,0-.4.079c-.159.079-.238.159-.238.317a.715.715,0,0,0,.079.4c.079.159.159.238.317.238h.159a.444.444,0,0,0,.476-.4.715.715,0,0,0-.079-.4A.425.425,0,0,0,181.935,24.7Z" transform="translate(-179.951 -15.395)"/>
          <path id="Path_21" data-name="Path 21" class="cls-6" d="M181.935,26.6a.6.6,0,0,0-.4.079c-.159.079-.238.159-.238.317a.715.715,0,0,0,.079.4c.079.159.159.238.317.238h.159a.444.444,0,0,0,.476-.4.715.715,0,0,0-.079-.4C182.173,26.759,182.014,26.679,181.935,26.6Z" transform="translate(-179.951 -15.787)"/>
          <path id="Path_22" data-name="Path 22" class="cls-6" d="M181.935,28.595a.491.491,0,0,0-.635.4.715.715,0,0,0,.079.4c.079.159.159.238.317.238h.159a.444.444,0,0,0,.476-.4.715.715,0,0,0-.079-.4A.425.425,0,0,0,181.935,28.595Z" transform="translate(-179.951 -16.194)"/>
          <path id="Path_23" data-name="Path 23" class="cls-6" d="M181.935,30.5a.715.715,0,0,0-.4.079c-.159.079-.238.159-.238.317a.715.715,0,0,0,.079.4c.079.159.159.238.317.238h.159a.444.444,0,0,0,.476-.4.715.715,0,0,0-.079-.4A.425.425,0,0,0,181.935,30.5Z" transform="translate(-179.951 -16.592)"/>
          <path id="Path_24" data-name="Path 24" class="cls-6" d="M183.63,19.7a.6.6,0,0,0-.4.079c-.159.079-.238.159-.238.317a.491.491,0,0,0,.4.635h.159a.444.444,0,0,0,.476-.4.715.715,0,0,0-.079-.4C183.947,19.779,183.788,19.7,183.63,19.7Z" transform="translate(-180.296 -14.363)"/>
          <path id="Path_25" data-name="Path 25" class="cls-6" d="M183.63,21.6a.6.6,0,0,0-.4.079c-.159.079-.238.159-.238.317a.491.491,0,0,0,.4.635h.159a.444.444,0,0,0,.476-.4.715.715,0,0,0-.079-.4C183.947,21.759,183.788,21.679,183.63,21.6Z" transform="translate(-180.296 -14.755)"/>
          <path id="Path_26" data-name="Path 26" class="cls-6" d="M183.63,23.6a.6.6,0,0,0-.4.079c-.159.079-.238.159-.238.317a.491.491,0,0,0,.4.635h.159a.444.444,0,0,0,.476-.4.715.715,0,0,0-.079-.4C183.947,23.679,183.788,23.6,183.63,23.6Z" transform="translate(-180.296 -15.167)"/>
          <path id="Path_27" data-name="Path 27" class="cls-6" d="M183.63,25.5a.6.6,0,0,0-.4.079c-.159.079-.238.159-.238.317a.491.491,0,0,0,.4.635h.159a.444.444,0,0,0,.476-.4.715.715,0,0,0-.079-.4C183.947,25.659,183.788,25.579,183.63,25.5Z" transform="translate(-180.296 -15.56)"/>
          <path id="Path_28" data-name="Path 28" class="cls-6" d="M183.63,27.5a.6.6,0,0,0-.4.079c-.159.079-.238.159-.238.317a.491.491,0,0,0,.4.635h.159a.444.444,0,0,0,.476-.4.715.715,0,0,0-.079-.4C183.947,27.579,183.788,27.5,183.63,27.5Z" transform="translate(-180.296 -15.972)"/>
          <path id="Path_29" data-name="Path 29" class="cls-6" d="M183.63,29.4a.6.6,0,0,0-.4.079c-.159.079-.238.159-.238.317a.491.491,0,0,0,.4.635h.159a.444.444,0,0,0,.476-.4.715.715,0,0,0-.079-.4C183.947,29.559,183.788,29.479,183.63,29.4Z" transform="translate(-180.296 -16.365)"/>
          <path id="Path_30" data-name="Path 30" class="cls-6" d="M183.635,31.4a.6.6,0,0,0-.4.079c-.159.079-.238.159-.238.317a.715.715,0,0,0,.079.4c.079.159.159.238.317.238h.159a.444.444,0,0,0,.476-.4.715.715,0,0,0-.079-.4C183.952,31.479,183.794,31.4,183.635,31.4Z" transform="translate(-180.302 -16.777)"/>
          <path id="Path_31" data-name="Path 31" class="cls-6" d="M185,17.932h.159a.292.292,0,0,0,.238-.079c.159-.079.238-.159.238-.317a.491.491,0,0,0-.4-.635.715.715,0,0,0-.4.079c-.159.079-.238.159-.238.317A.707.707,0,0,0,185,17.932Z" transform="translate(-180.632 -13.785)"/>
          <path id="Path_32" data-name="Path 32" class="cls-6" d="M185,19.832h.159a.292.292,0,0,0,.238-.079c.159-.079.238-.159.238-.317a.491.491,0,0,0-.4-.635.6.6,0,0,0-.4.079c-.159.079-.238.159-.238.317A.628.628,0,0,0,185,19.832Z" transform="translate(-180.632 -14.177)"/>
          <path id="Path_33" data-name="Path 33" class="cls-6" d="M185,21.832h.159a.292.292,0,0,0,.238-.079c.159-.079.238-.159.238-.317a.491.491,0,0,0-.4-.635.6.6,0,0,0-.4.079c-.159.079-.238.159-.238.317A.707.707,0,0,0,185,21.832Z" transform="translate(-180.632 -14.59)"/>
          <path id="Path_34" data-name="Path 34" class="cls-6" d="M185,23.732h.159a.292.292,0,0,0,.238-.079c.159-.079.238-.159.238-.317a.491.491,0,0,0-.4-.635.6.6,0,0,0-.4.079c-.159.079-.238.159-.238.317A.707.707,0,0,0,185,23.732Z" transform="translate(-180.632 -14.982)"/>
          <path id="Path_35" data-name="Path 35" class="cls-6" d="M185,25.632h.159a.292.292,0,0,0,.238-.079c.159-.079.238-.159.238-.317a.491.491,0,0,0-.4-.635.6.6,0,0,0-.4.079c-.159.079-.238.159-.238.317a.715.715,0,0,0,.079.4A.425.425,0,0,0,185,25.632Z" transform="translate(-180.632 -15.374)"/>
          <path id="Path_36" data-name="Path 36" class="cls-6" d="M185,27.632h.159a.292.292,0,0,0,.238-.079c.159-.079.238-.159.238-.317a.491.491,0,0,0-.4-.635.6.6,0,0,0-.4.079c-.159.079-.238.159-.238.317a.715.715,0,0,0,.079.4C184.759,27.473,184.917,27.552,185,27.632Z" transform="translate(-180.632 -15.787)"/>
          <path id="Path_37" data-name="Path 37" class="cls-6" d="M185.335,28.595a.491.491,0,0,0-.635.4.715.715,0,0,0,.079.4c.079.159.159.238.317.238h.159a.292.292,0,0,0,.238-.079c.159-.079.238-.159.238-.317a.716.716,0,0,0-.079-.4A.425.425,0,0,0,185.335,28.595Z" transform="translate(-180.653 -16.194)"/>
          <path id="Path_38" data-name="Path 38" class="cls-6" d="M185.335,30.5a.715.715,0,0,0-.4.079c-.159.079-.238.159-.238.317a.715.715,0,0,0,.079.4c.079.159.159.238.317.238h.159a.292.292,0,0,0,.238-.079c.159-.079.238-.159.238-.317a.716.716,0,0,0-.079-.4A.425.425,0,0,0,185.335,30.5Z" transform="translate(-180.653 -16.592)"/>
          <path id="Path_39" data-name="Path 39" class="cls-6" d="M187.03,17.7a.715.715,0,0,0-.4.079c-.159.079-.238.159-.238.317a.491.491,0,0,0,.4.635h.159a.444.444,0,0,0,.476-.4.715.715,0,0,0-.079-.4A1.1,1.1,0,0,0,187.03,17.7Z" transform="translate(-180.998 -13.95)"/>
          <path id="Path_40" data-name="Path 40" class="cls-6" d="M187.03,19.7a.715.715,0,0,0-.4.079c-.159.079-.238.159-.238.317a.491.491,0,0,0,.4.635h.159a.444.444,0,0,0,.476-.4.715.715,0,0,0-.079-.4C187.268,19.779,187.188,19.7,187.03,19.7Z" transform="translate(-180.998 -14.363)"/>
          <path id="Path_41" data-name="Path 41" class="cls-6" d="M187.03,23.6a.715.715,0,0,0-.4.079c-.159.079-.238.159-.238.317a.491.491,0,0,0,.4.635h.159a.444.444,0,0,0,.476-.4.715.715,0,0,0-.079-.4C187.268,23.679,187.188,23.6,187.03,23.6Z" transform="translate(-180.998 -15.167)"/>
          <path id="Path_42" data-name="Path 42" class="cls-6" d="M187.03,25.5a.6.6,0,0,0-.4.079c-.159.079-.238.159-.238.317a.491.491,0,0,0,.4.635h.159a.444.444,0,0,0,.476-.4.715.715,0,0,0-.079-.4A1.1,1.1,0,0,0,187.03,25.5Z" transform="translate(-180.998 -15.56)"/>
          <path id="Path_43" data-name="Path 43" class="cls-6" d="M187.03,27.5a.6.6,0,0,0-.4.079c-.159.079-.238.159-.238.317a.491.491,0,0,0,.4.635h.159a.444.444,0,0,0,.476-.4.715.715,0,0,0-.079-.4C187.268,27.579,187.188,27.5,187.03,27.5Z" transform="translate(-180.998 -15.972)"/>
          <path id="Path_44" data-name="Path 44" class="cls-6" d="M187.03,29.4a.6.6,0,0,0-.4.079c-.159.079-.238.159-.238.317a.491.491,0,0,0,.4.635h.159a.444.444,0,0,0,.476-.4.715.715,0,0,0-.079-.4A1.1,1.1,0,0,0,187.03,29.4Z" transform="translate(-180.998 -16.365)"/>
          <path id="Path_45" data-name="Path 45" class="cls-6" d="M187.035,31.4a.6.6,0,0,0-.4.079c-.159.079-.238.159-.238.317a.716.716,0,0,0,.079.4c.079.159.159.238.317.238h.159a.444.444,0,0,0,.476-.4.715.715,0,0,0-.079-.4C187.273,31.479,187.194,31.4,187.035,31.4Z" transform="translate(-181.003 -16.777)"/>
          <path id="Path_46" data-name="Path 46" class="cls-6" d="M188.4,19.832h.159a.291.291,0,0,0,.238-.079c.159-.079.238-.159.238-.317a.491.491,0,0,0-.4-.635.6.6,0,0,0-.4.079c-.159.079-.238.159-.238.317A.628.628,0,0,0,188.4,19.832Z" transform="translate(-181.334 -14.177)"/>
          <path id="Path_47" data-name="Path 47" class="cls-6" d="M188.4,23.732h.159a.291.291,0,0,0,.238-.079c.159-.079.238-.159.238-.317a.491.491,0,0,0-.4-.635.6.6,0,0,0-.4.079c-.159.079-.238.159-.238.317A.707.707,0,0,0,188.4,23.732Z" transform="translate(-181.334 -14.982)"/>
          <path id="Path_48" data-name="Path 48" class="cls-6" d="M188.4,25.632h.159a.291.291,0,0,0,.238-.079c.159-.079.238-.159.238-.317a.491.491,0,0,0-.4-.635.6.6,0,0,0-.4.079c-.159.079-.238.159-.238.317a.715.715,0,0,0,.079.4A.425.425,0,0,0,188.4,25.632Z" transform="translate(-181.334 -15.374)"/>
          <path id="Path_49" data-name="Path 49" class="cls-6" d="M188.4,27.632h.159a.291.291,0,0,0,.238-.079c.159-.079.238-.159.238-.317a.491.491,0,0,0-.4-.635.6.6,0,0,0-.4.079c-.159.079-.238.159-.238.317a.715.715,0,0,0,.079.4C188.159,27.473,188.317,27.552,188.4,27.632Z" transform="translate(-181.334 -15.787)"/>
          <path id="Path_50" data-name="Path 50" class="cls-6" d="M190.43,19.7a.715.715,0,0,0-.4.079c-.159.079-.238.159-.238.317a.491.491,0,0,0,.4.635h.159a.444.444,0,0,0,.476-.4.715.715,0,0,0-.079-.4C190.668,19.779,190.588,19.7,190.43,19.7Z" transform="translate(-181.7 -14.363)"/>
          <path id="Path_51" data-name="Path 51" class="cls-6" d="M190.192,24.632h.159a.444.444,0,0,0,.476-.4.491.491,0,0,0-.4-.635.715.715,0,0,0-.4.079c-.159.079-.238.159-.238.317A.521.521,0,0,0,190.192,24.632Z" transform="translate(-181.7 -15.167)"/>
          <path id="Path_52" data-name="Path 52" class="cls-6" d="M190.192,26.532h.159a.444.444,0,0,0,.476-.4.491.491,0,0,0-.4-.635.6.6,0,0,0-.4.079c-.159.079-.238.159-.238.317A.521.521,0,0,0,190.192,26.532Z" transform="translate(-181.7 -15.56)"/>
          <path id="Path_53" data-name="Path 53" class="cls-6" d="M191.793,21.832h.159a.292.292,0,0,0,.238-.079c.159-.079.238-.159.238-.317a.491.491,0,0,0-.4-.635.6.6,0,0,0-.4.079c-.159.079-.238.159-.238.317A.6.6,0,0,0,191.793,21.832Z" transform="translate(-182.031 -14.59)"/>
          <path id="Path_54" data-name="Path 54" class="cls-6" d="M191.8,25.632h.159a.292.292,0,0,0,.238-.079c.159-.079.238-.159.238-.317a.491.491,0,0,0-.4-.635.6.6,0,0,0-.4.079c-.159.079-.238.159-.238.317a.715.715,0,0,0,.079.4C191.559,25.552,191.638,25.632,191.8,25.632Z" transform="translate(-182.035 -15.374)"/>
          <path id="Path_55" data-name="Path 55" class="cls-6" d="M193.835,13.9a.6.6,0,0,0-.4.079c-.159.079-.238.159-.238.317a.715.715,0,0,0,.079.4c.079.159.159.238.317.238h.159a.292.292,0,0,0,.238-.079c.159-.079.238-.159.238-.317a.715.715,0,0,0-.079-.4C194.073,13.979,193.994,13.9,193.835,13.9Z" transform="translate(-182.407 -13.166)"/>
          <path id="Path_56" data-name="Path 56" class="cls-6" d="M193.835,15.8a.6.6,0,0,0-.4.079c-.159.079-.238.159-.238.317a.715.715,0,0,0,.079.4c.079.159.159.238.317.238h.159a.444.444,0,0,0,.476-.4.715.715,0,0,0-.079-.4C194.073,15.959,193.994,15.8,193.835,15.8Z" transform="translate(-182.407 -13.558)"/>
          <path id="Path_57" data-name="Path 57" class="cls-6" d="M193.83,17.7a.6.6,0,0,0-.4.079c-.159.079-.238.159-.238.317a.491.491,0,0,0,.4.635h.159a.292.292,0,0,0,.238-.079c.159-.079.238-.159.238-.317a.715.715,0,0,0-.079-.4A1.1,1.1,0,0,0,193.83,17.7Z" transform="translate(-182.402 -13.95)"/>
          <path id="Path_58" data-name="Path 58" class="cls-6" d="M195.2,14.026h.159a.292.292,0,0,0,.238-.079c.159-.079.238-.159.238-.317a.491.491,0,0,0-.4-.635.521.521,0,0,0-.635.4.715.715,0,0,0,.079.4A1.1,1.1,0,0,0,195.2,14.026Z" transform="translate(-182.737 -12.975)"/>
          <path id="Path_59" data-name="Path 59" class="cls-6" d="M195.2,15.926h.159a.292.292,0,0,0,.238-.079c.159-.079.238-.159.238-.317a.491.491,0,0,0-.4-.635.521.521,0,0,0-.635.4.715.715,0,0,0,.079.4C194.959,15.847,195.038,15.926,195.2,15.926Z" transform="translate(-182.737 -13.367)"/>
          <path id="Path_60" data-name="Path 60" class="cls-6" d="M195.2,17.926h.159a.292.292,0,0,0,.238-.079c.159-.079.238-.159.238-.317a.491.491,0,0,0-.4-.635.521.521,0,0,0-.635.4.715.715,0,0,0,.079.4A1.1,1.1,0,0,0,195.2,17.926Z" transform="translate(-182.737 -13.779)"/>
          <path id="Path_61" data-name="Path 61" class="cls-6" d="M195.2,19.826h.159a.292.292,0,0,0,.238-.079c.159-.079.238-.159.238-.317a.491.491,0,0,0-.4-.635.521.521,0,0,0-.635.4.715.715,0,0,0,.079.4C194.959,19.747,195.038,19.826,195.2,19.826Z" transform="translate(-182.737 -14.172)"/>
          <path id="Path_62" data-name="Path 62" class="cls-6" d="M195.2,21.826h.159a.292.292,0,0,0,.238-.079c.159-.079.238-.159.238-.317a.491.491,0,0,0-.4-.635.521.521,0,0,0-.635.4.715.715,0,0,0,.079.4A1.1,1.1,0,0,0,195.2,21.826Z" transform="translate(-182.737 -14.584)"/>
          <path id="Path_63" data-name="Path 63" class="cls-6" d="M197.235,13.9a.715.715,0,0,0-.4.079c-.159.079-.238.159-.238.317a.715.715,0,0,0,.079.4c.079.159.159.238.317.238h.159a.292.292,0,0,0,.238-.079c.159-.079.238-.159.238-.317a.716.716,0,0,0-.079-.4C197.473,13.979,197.394,13.9,197.235,13.9Z" transform="translate(-183.109 -13.166)"/>
          <path id="Path_64" data-name="Path 64" class="cls-6" d="M197.235,15.8a.715.715,0,0,0-.4.079c-.159.079-.238.159-.238.317a.715.715,0,0,0,.079.4c.079.159.159.238.317.238h.159a.444.444,0,0,0,.476-.4.716.716,0,0,0-.079-.4C197.473,15.959,197.394,15.8,197.235,15.8Z" transform="translate(-183.109 -13.558)"/>
          <path id="Path_65" data-name="Path 65" class="cls-6" d="M197.23,17.7a.715.715,0,0,0-.4.079c-.159.079-.238.159-.238.317a.491.491,0,0,0,.4.635h.159a.292.292,0,0,0,.238-.079c.159-.079.238-.159.238-.317a.716.716,0,0,0-.079-.4A1.1,1.1,0,0,0,197.23,17.7Z" transform="translate(-183.103 -13.95)"/>
          <path id="Path_66" data-name="Path 66" class="cls-6" d="M197.23,19.7a.715.715,0,0,0-.4.079c-.159.079-.238.159-.238.317a.491.491,0,0,0,.4.635h.159a.292.292,0,0,0,.238-.079c.159-.079.238-.159.238-.317a.716.716,0,0,0-.079-.4C197.468,19.779,197.388,19.7,197.23,19.7Z" transform="translate(-183.103 -14.363)"/>
          <path id="Path_67" data-name="Path 67" class="cls-6" d="M199.03,16.9a.715.715,0,0,0-.4.079c-.159.079-.238.159-.238.317a.491.491,0,0,0,.4.635h.159a.444.444,0,0,0,.476-.4.716.716,0,0,0-.079-.4A.425.425,0,0,0,199.03,16.9Z" transform="translate(-183.475 -13.785)"/>
          <path id="Path_68" data-name="Path 68" class="cls-6" d="M204.13,17.7a.715.715,0,0,0-.4.079c-.159.079-.238.159-.238.317a.491.491,0,0,0,.4.635h.159a.444.444,0,0,0,.476-.4.715.715,0,0,0-.079-.4A1.1,1.1,0,0,0,204.13,17.7Z" transform="translate(-184.527 -13.95)"/>
          <path id="Path_69" data-name="Path 69" class="cls-6" d="M204.13,25.5a.6.6,0,0,0-.4.079c-.159.079-.238.159-.238.317a.491.491,0,0,0,.4.635h.159a.444.444,0,0,0,.476-.4.715.715,0,0,0-.079-.4A1.1,1.1,0,0,0,204.13,25.5Z" transform="translate(-184.527 -15.56)"/>
          <path id="Path_70" data-name="Path 70" class="cls-6" d="M204.13,27.5a.6.6,0,0,0-.4.079c-.159.079-.238.159-.238.317a.491.491,0,0,0,.4.635h.159a.444.444,0,0,0,.476-.4.715.715,0,0,0-.079-.4C204.368,27.579,204.288,27.5,204.13,27.5Z" transform="translate(-184.527 -15.972)"/>
          <path id="Path_71" data-name="Path 71" class="cls-6" d="M204.135,31.4a.6.6,0,0,0-.4.079c-.159.079-.238.159-.238.317a.715.715,0,0,0,.079.4c.079.159.159.238.317.238h.159a.444.444,0,0,0,.476-.4.715.715,0,0,0-.079-.4C204.373,31.479,204.294,31.4,204.135,31.4Z" transform="translate(-184.533 -16.777)"/>
          <path id="Path_72" data-name="Path 72" class="cls-6" d="M205.493,17.932h.159a.292.292,0,0,0,.238-.079c.159-.079.238-.159.238-.317a.491.491,0,0,0-.4-.635.715.715,0,0,0-.4.079c-.159.079-.238.159-.238.317A.6.6,0,0,0,205.493,17.932Z" transform="translate(-184.859 -13.785)"/>
          <path id="Path_73" data-name="Path 73" class="cls-6" d="M205.493,21.832h.159a.292.292,0,0,0,.238-.079c.159-.079.238-.159.238-.317a.491.491,0,0,0-.4-.635.6.6,0,0,0-.4.079c-.159.079-.238.159-.238.317A.6.6,0,0,0,205.493,21.832Z" transform="translate(-184.859 -14.59)"/>
          <path id="Path_74" data-name="Path 74" class="cls-6" d="M205.493,23.732h.159a.292.292,0,0,0,.238-.079c.159-.079.238-.159.238-.317a.491.491,0,0,0-.4-.635.6.6,0,0,0-.4.079c-.159.079-.238.159-.238.317A.6.6,0,0,0,205.493,23.732Z" transform="translate(-184.859 -14.982)"/>
          <path id="Path_75" data-name="Path 75" class="cls-6" d="M205.5,27.632h.159a.292.292,0,0,0,.238-.079c.159-.079.238-.159.238-.317a.491.491,0,0,0-.4-.635.6.6,0,0,0-.4.079c-.159.079-.238.159-.238.317a.715.715,0,0,0,.079.4A1.1,1.1,0,0,0,205.5,27.632Z" transform="translate(-184.863 -15.787)"/>
          <path id="Path_76" data-name="Path 76" class="cls-6" d="M205.735,30.5a.715.715,0,0,0-.4.079c-.159.079-.238.159-.238.317a.715.715,0,0,0,.079.4c.079.159.159.238.317.238h.159a.292.292,0,0,0,.238-.079c.159-.079.238-.159.238-.317a.716.716,0,0,0-.079-.4C206.052,30.579,205.894,30.5,205.735,30.5Z" transform="translate(-184.863 -16.592)"/>
          <path id="Path_77" data-name="Path 77" class="cls-6" d="M207.53,19.7a.715.715,0,0,0-.4.079c-.159.079-.238.159-.238.317a.491.491,0,0,0,.4.635h.159a.444.444,0,0,0,.476-.4.716.716,0,0,0-.079-.4C207.768,19.779,207.688,19.7,207.53,19.7Z" transform="translate(-185.229 -14.363)"/>
          <path id="Path_78" data-name="Path 78" class="cls-6" d="M207.53,21.6a.715.715,0,0,0-.4.079c-.159.079-.238.159-.238.317a.491.491,0,0,0,.4.635h.159a.444.444,0,0,0,.476-.4.716.716,0,0,0-.079-.4A1.1,1.1,0,0,0,207.53,21.6Z" transform="translate(-185.229 -14.755)"/>
          <path id="Path_79" data-name="Path 79" class="cls-6" d="M207.53,25.5a.6.6,0,0,0-.4.079c-.159.079-.238.159-.238.317a.491.491,0,0,0,.4.635h.159a.444.444,0,0,0,.476-.4.716.716,0,0,0-.079-.4A1.1,1.1,0,0,0,207.53,25.5Z" transform="translate(-185.229 -15.56)"/>
          <path id="Path_80" data-name="Path 80" class="cls-6" d="M207.53,27.5a.6.6,0,0,0-.4.079c-.159.079-.238.159-.238.317a.491.491,0,0,0,.4.635h.159a.444.444,0,0,0,.476-.4.716.716,0,0,0-.079-.4C207.768,27.579,207.688,27.5,207.53,27.5Z" transform="translate(-185.229 -15.972)"/>
          <path id="Path_81" data-name="Path 81" class="cls-6" d="M207.535,31.4a.6.6,0,0,0-.4.079c-.159.079-.238.159-.238.317a.716.716,0,0,0,.079.4c.079.159.159.238.317.238h.159a.444.444,0,0,0,.476-.4.715.715,0,0,0-.079-.4C207.773,31.479,207.694,31.4,207.535,31.4Z" transform="translate(-185.234 -16.777)"/>
          <path id="Path_82" data-name="Path 82" class="cls-6" d="M208.892,21.832h.159a.292.292,0,0,0,.238-.079c.159-.079.238-.159.238-.317a.491.491,0,0,0-.4-.635.6.6,0,0,0-.4.079c-.159.079-.238.159-.238.317A.521.521,0,0,0,208.892,21.832Z" transform="translate(-185.559 -14.59)"/>
          <path id="Path_83" data-name="Path 83" class="cls-6" d="M208.892,23.732h.159a.292.292,0,0,0,.238-.079c.159-.079.238-.159.238-.317a.491.491,0,0,0-.4-.635.6.6,0,0,0-.4.079c-.159.079-.238.159-.238.317A.521.521,0,0,0,208.892,23.732Z" transform="translate(-185.559 -14.982)"/>
          <path id="Path_84" data-name="Path 84" class="cls-6" d="M208.9,25.632h.159a.292.292,0,0,0,.238-.079c.159-.079.238-.159.238-.317a.491.491,0,0,0-.4-.635.6.6,0,0,0-.4.079c-.159.079-.238.159-.238.317a.715.715,0,0,0,.079.4C208.659,25.552,208.738,25.632,208.9,25.632Z" transform="translate(-185.565 -15.374)"/>
          <path id="Path_85" data-name="Path 85" class="cls-6" d="M208.9,27.632h.159a.292.292,0,0,0,.238-.079c.159-.079.238-.159.238-.317a.491.491,0,0,0-.4-.635.6.6,0,0,0-.4.079c-.159.079-.238.159-.238.317a.715.715,0,0,0,.079.4A1.1,1.1,0,0,0,208.9,27.632Z" transform="translate(-185.565 -15.787)"/>
          <path id="Path_86" data-name="Path 86" class="cls-6" d="M209.135,28.595a.491.491,0,0,0-.635.4.715.715,0,0,0,.079.4c.079.159.159.238.317.238h.159a.292.292,0,0,0,.238-.079c.159-.079.238-.159.238-.317a.715.715,0,0,0-.079-.4C209.373,28.674,209.294,28.595,209.135,28.595Z" transform="translate(-185.565 -16.194)"/>
          <path id="Path_87" data-name="Path 87" class="cls-6" d="M210.691,24.632h.159a.292.292,0,0,0,.238-.079c.159-.079.238-.159.238-.317a.491.491,0,0,0-.4-.635.716.716,0,0,0-.4.079c-.159.079-.238.159-.238.317A.521.521,0,0,0,210.691,24.632Z" transform="translate(-185.931 -15.167)"/>
          <path id="Path_88" data-name="Path 88" class="cls-6" d="M210.691,26.532h.159a.292.292,0,0,0,.238-.079c.159-.079.238-.159.238-.317a.491.491,0,0,0-.4-.635.6.6,0,0,0-.4.079c-.159.079-.238.159-.238.317A.521.521,0,0,0,210.691,26.532Z" transform="translate(-185.931 -15.56)"/>
          <path id="Path_89" data-name="Path 89" class="cls-6" d="M210.691,28.432h.159a.291.291,0,0,0,.238-.079c.159-.079.238-.159.238-.317a.491.491,0,0,0-.4-.635.6.6,0,0,0-.4.079c-.159.079-.238.159-.238.317C210.215,28.114,210.374,28.432,210.691,28.432Z" transform="translate(-185.931 -15.952)"/>
          <path id="Path_90" data-name="Path 90" class="cls-6" d="M210.691,30.432h.159a.291.291,0,0,0,.238-.079c.159-.079.238-.159.238-.317a.491.491,0,0,0-.4-.635.6.6,0,0,0-.4.079c-.159.079-.238.159-.238.317A.521.521,0,0,0,210.691,30.432Z" transform="translate(-185.931 -16.365)"/>
          <path id="Path_91" data-name="Path 91" class="cls-6" d="M210.7,32.332h.159a.292.292,0,0,0,.238-.079c.159-.079.238-.159.238-.317a.491.491,0,0,0-.4-.635.6.6,0,0,0-.4.079c-.159.079-.238.159-.238.317a.716.716,0,0,0,.079.4C210.379,32.252,210.538,32.332,210.7,32.332Z" transform="translate(-185.936 -16.757)"/>
          <path id="Path_92" data-name="Path 92" class="cls-6" d="M212.3,27.626h.159a.292.292,0,0,0,.238-.079c.159-.079.238-.159.238-.317a.491.491,0,0,0-.4-.635.521.521,0,0,0-.635.4.716.716,0,0,0,.079.4A1.1,1.1,0,0,0,212.3,27.626Z" transform="translate(-186.266 -15.781)"/>
          <path id="Path_93" data-name="Path 93" class="cls-6" d="M212.3,29.526h.159a.292.292,0,0,0,.238-.079c.159-.079.238-.159.238-.317a.715.715,0,0,0-.079-.4c-.079-.159-.159-.238-.317-.238a.491.491,0,0,0-.635.4.716.716,0,0,0,.079.4C212.059,29.447,212.138,29.526,212.3,29.526Z" transform="translate(-186.266 -16.174)"/>
          <path id="Path_94" data-name="Path 94" class="cls-6" d="M212.535,30.495a.521.521,0,0,0-.635.4.716.716,0,0,0,.079.4c.079.159.159.238.317.238h.159a.291.291,0,0,0,.238-.079c.159-.079.238-.159.238-.317a.715.715,0,0,0-.079-.4C212.773,30.574,212.694,30.495,212.535,30.495Z" transform="translate(-186.266 -16.586)"/>
          <path id="Path_95" data-name="Path 95" class="cls-6" d="M181.935,32.495a.491.491,0,0,0-.635.4.715.715,0,0,0,.079.4c.079.159.159.238.317.238h.159a.444.444,0,0,0,.476-.4.715.715,0,0,0-.079-.4C182.173,32.653,182.014,32.574,181.935,32.495Z" transform="translate(-179.951 -16.999)"/>
          <path id="Path_96" data-name="Path 96" class="cls-6" d="M183.63,33.4a.6.6,0,0,0-.4.079c-.159.079-.238.159-.238.317a.491.491,0,0,0,.4.635h.159a.444.444,0,0,0,.476-.4.715.715,0,0,0-.079-.4A.354.354,0,0,0,183.63,33.4Z" transform="translate(-180.296 -17.19)"/>
          <path id="Path_97" data-name="Path 97" class="cls-6" d="M185.335,34.5a.715.715,0,0,0-.4.079c-.159.079-.238.159-.238.317a.715.715,0,0,0,.079.4c.079.159.159.238.317.238h.159a.292.292,0,0,0,.238-.079c.159-.079.238-.159.238-.317a.716.716,0,0,0-.079-.4A.425.425,0,0,0,185.335,34.5Z" transform="translate(-180.653 -17.417)"/>
          <path id="Path_98" data-name="Path 98" class="cls-6" d="M187.035,35.3a.6.6,0,0,0-.4.079c-.159.079-.238.159-.238.317a.716.716,0,0,0,.079.4c.079.159.159.238.317.238h.159a.444.444,0,0,0,.476-.4.715.715,0,0,0-.079-.4A1.1,1.1,0,0,0,187.035,35.3Z" transform="translate(-181.003 -17.582)"/>
          <path id="Path_99" data-name="Path 99" class="cls-6" d="M187.035,37.3a.6.6,0,0,0-.4.079c-.159.079-.238.159-.238.317a.716.716,0,0,0,.079.4c.079.159.159.238.317.238h.159a.444.444,0,0,0,.476-.4.715.715,0,0,0-.079-.4C187.273,37.379,187.194,37.3,187.035,37.3Z" transform="translate(-181.003 -17.995)"/>
          <path id="Path_100" data-name="Path 100" class="cls-6" d="M187.035,39.2a.6.6,0,0,0-.4.079c-.159.079-.238.159-.238.317a.716.716,0,0,0,.079.4c.079.159.159.238.317.238h.159a.444.444,0,0,0,.476-.4.715.715,0,0,0-.079-.4A1.1,1.1,0,0,0,187.035,39.2Z" transform="translate(-181.003 -18.387)"/>
          <path id="Path_101" data-name="Path 101" class="cls-6" d="M188.735,34.5a.716.716,0,0,0-.4.079c-.159.079-.238.159-.238.317a.715.715,0,0,0,.079.4c.079.159.159.238.317.238h.159a.292.292,0,0,0,.238-.079c.159-.079.238-.159.238-.317a.716.716,0,0,0-.079-.4A.425.425,0,0,0,188.735,34.5Z" transform="translate(-181.354 -17.417)"/>
          <path id="Path_102" data-name="Path 102" class="cls-6" d="M188.735,36.4a.716.716,0,0,0-.4.079c-.159.079-.238.159-.238.317a.715.715,0,0,0,.079.4c.079.159.159.238.317.238h.159a.292.292,0,0,0,.238-.079c.159-.079.238-.159.238-.317a.716.716,0,0,0-.079-.4C188.973,36.559,188.814,36.479,188.735,36.4Z" transform="translate(-181.354 -17.809)"/>
          <path id="Path_103" data-name="Path 103" class="cls-6" d="M188.73,38.4a.715.715,0,0,0-.4.079c-.159.079-.238.159-.238.317a.491.491,0,0,0,.4.635h.159a.292.292,0,0,0,.238-.079c.159-.079.238-.159.238-.317a.716.716,0,0,0-.079-.4A.425.425,0,0,0,188.73,38.4Z" transform="translate(-181.349 -18.222)"/>
          <path id="Path_104" data-name="Path 104" class="cls-6" d="M188.73,40.3a.715.715,0,0,0-.4.079c-.159.079-.238.159-.238.317a.491.491,0,0,0,.4.635h.159a.292.292,0,0,0,.238-.079c.159-.079.238-.159.238-.317a.716.716,0,0,0-.079-.4C188.968,40.459,188.809,40.379,188.73,40.3Z" transform="translate(-181.349 -18.614)"/>
          <path id="Path_105" data-name="Path 105" class="cls-6" d="M188.73,42.3a.716.716,0,0,0-.4.079c-.159.079-.238.159-.238.317a.491.491,0,0,0,.4.635h.159a.292.292,0,0,0,.238-.079c.159-.079.238-.159.238-.317A.628.628,0,0,0,188.73,42.3Z" transform="translate(-181.349 -19.027)"/>
          <path id="Path_106" data-name="Path 106" class="cls-6" d="M190.2,36.332h.159a.444.444,0,0,0,.476-.4.491.491,0,0,0-.4-.635.6.6,0,0,0-.4.079c-.159.079-.238.159-.238.317a.715.715,0,0,0,.079.4C189.959,36.252,190.038,36.332,190.2,36.332Z" transform="translate(-181.705 -17.582)"/>
          <path id="Path_107" data-name="Path 107" class="cls-6" d="M190.2,38.332h.159a.444.444,0,0,0,.476-.4.491.491,0,0,0-.4-.635.6.6,0,0,0-.4.079c-.159.079-.238.159-.238.317a.715.715,0,0,0,.079.4A1.1,1.1,0,0,0,190.2,38.332Z" transform="translate(-181.705 -17.995)"/>
          <path id="Path_108" data-name="Path 108" class="cls-6" d="M190.435,39.2a.6.6,0,0,0-.4.079c-.159.079-.238.159-.238.317a.715.715,0,0,0,.079.4c.079.159.159.238.317.238h.159a.444.444,0,0,0,.476-.4.715.715,0,0,0-.079-.4A1.1,1.1,0,0,0,190.435,39.2Z" transform="translate(-181.705 -18.387)"/>
          <path id="Path_109" data-name="Path 109" class="cls-6" d="M190.435,41.2a.715.715,0,0,0-.4.079c-.159.079-.238.159-.238.317a.715.715,0,0,0,.079.4c.079.159.159.238.317.238h.159a.444.444,0,0,0,.476-.4.715.715,0,0,0-.079-.4C190.673,41.279,190.594,41.2,190.435,41.2Z" transform="translate(-181.705 -18.8)"/>
          <path id="Path_110" data-name="Path 110" class="cls-6" d="M190.435,43.1a.715.715,0,0,0-.4.079c-.159.079-.238.159-.238.317a.715.715,0,0,0,.079.4c.079.159.159.238.317.238h.159a.444.444,0,0,0,.476-.4.715.715,0,0,0-.079-.4A1.1,1.1,0,0,0,190.435,43.1Z" transform="translate(-181.705 -19.192)"/>
          <path id="Path_111" data-name="Path 111" class="cls-6" d="M190.43,45.1a.715.715,0,0,0-.4.079c-.159.079-.238.159-.238.317a.491.491,0,0,0,.4.635h.159a.444.444,0,0,0,.476-.4.715.715,0,0,0-.079-.4C190.668,45.179,190.588,45.1,190.43,45.1Z" transform="translate(-181.7 -19.605)"/>
          <path id="Path_112" data-name="Path 112" class="cls-6" d="M190.43,47a.715.715,0,0,0-.4.079c-.159.079-.238.159-.238.317a.491.491,0,0,0,.4.635h.159a.444.444,0,0,0,.476-.4.715.715,0,0,0-.079-.4A1.1,1.1,0,0,0,190.43,47Z" transform="translate(-181.7 -19.997)"/>
          <path id="Path_113" data-name="Path 113" class="cls-6" d="M192.035,36.4a.715.715,0,0,0-.4.079c-.159.079-.238.159-.238.317a.715.715,0,0,0,.079.4c.079.159.159.238.317.238h.159a.292.292,0,0,0,.238-.079c.159-.079.238-.159.238-.317a.716.716,0,0,0-.079-.4C192.273,36.479,192.194,36.479,192.035,36.4Z" transform="translate(-182.035 -17.809)"/>
          <path id="Path_114" data-name="Path 114" class="cls-6" d="M192.03,38.4a.715.715,0,0,0-.4.079c-.159.079-.238.159-.238.317a.491.491,0,0,0,.4.635h.159a.292.292,0,0,0,.238-.079c.159-.079.238-.159.238-.317a.716.716,0,0,0-.079-.4C192.347,38.479,192.188,38.4,192.03,38.4Z" transform="translate(-182.03 -18.222)"/>
          <path id="Path_115" data-name="Path 115" class="cls-6" d="M192.03,40.3a.715.715,0,0,0-.4.079c-.159.079-.238.159-.238.317a.491.491,0,0,0,.4.635h.159a.292.292,0,0,0,.238-.079c.159-.079.238-.159.238-.317a.716.716,0,0,0-.079-.4C192.347,40.459,192.188,40.379,192.03,40.3Z" transform="translate(-182.03 -18.614)"/>
          <path id="Path_116" data-name="Path 116" class="cls-6" d="M192.03,42.3a.716.716,0,0,0-.4.079c-.159.079-.238.159-.238.317a.491.491,0,0,0,.4.635h.159a.292.292,0,0,0,.238-.079c.159-.079.238-.159.238-.317A.491.491,0,0,0,192.03,42.3Z" transform="translate(-182.03 -19.027)"/>
          <path id="Path_117" data-name="Path 117" class="cls-6" d="M192.03,44.2a.716.716,0,0,0-.4.079c-.159.079-.238.159-.238.317a.491.491,0,0,0,.4.635h.159a.292.292,0,0,0,.238-.079c.159-.079.238-.159.238-.317A.521.521,0,0,0,192.03,44.2Z" transform="translate(-182.03 -19.419)"/>
          <path id="Path_118" data-name="Path 118" class="cls-6" d="M192.03,46.2a.6.6,0,0,0-.4.079c-.159.079-.238.159-.238.317a.491.491,0,0,0,.4.635h.159a.292.292,0,0,0,.238-.079c.159-.079.238-.159.238-.317C192.506,46.517,192.347,46.2,192.03,46.2Z" transform="translate(-182.03 -19.832)"/>
          <path id="Path_119" data-name="Path 119" class="cls-6" d="M192.03,48.1a.6.6,0,0,0-.4.079c-.159.079-.238.159-.238.317a.491.491,0,0,0,.4.635h.159a.292.292,0,0,0,.238-.079c.159-.079.238-.159.238-.317A.491.491,0,0,0,192.03,48.1Z" transform="translate(-182.03 -20.224)"/>
          <path id="Path_120" data-name="Path 120" class="cls-6" d="M193.835,39.2a.6.6,0,0,0-.4.079c-.159.079-.238.159-.238.317a.715.715,0,0,0,.079.4c.079.159.159.238.317.238h.159a.292.292,0,0,0,.238-.079c.159-.079.238-.159.238-.317a.715.715,0,0,0-.079-.4A1.1,1.1,0,0,0,193.835,39.2Z" transform="translate(-182.407 -18.387)"/>
          <path id="Path_121" data-name="Path 121" class="cls-6" d="M193.835,41.2a.6.6,0,0,0-.4.079c-.159.079-.238.159-.238.317a.715.715,0,0,0,.079.4c.079.159.159.238.317.238h.159a.292.292,0,0,0,.238-.079c.159-.079.238-.159.238-.317a.715.715,0,0,0-.079-.4C194.073,41.279,193.994,41.2,193.835,41.2Z" transform="translate(-182.407 -18.8)"/>
          <path id="Path_122" data-name="Path 122" class="cls-6" d="M193.835,43.1a.6.6,0,0,0-.4.079c-.159.079-.238.159-.238.317a.715.715,0,0,0,.079.4c.079.159.159.238.317.238h.159a.444.444,0,0,0,.476-.4.715.715,0,0,0-.079-.4A1.1,1.1,0,0,0,193.835,43.1Z" transform="translate(-182.407 -19.192)"/>
          <path id="Path_123" data-name="Path 123" class="cls-6" d="M195.435,38.395a.521.521,0,0,0-.635.4.715.715,0,0,0,.079.4c.079.159.159.238.317.238h.159a.292.292,0,0,0,.238-.079c.159-.079.238-.159.238-.317a.716.716,0,0,0-.079-.4C195.752,38.474,195.594,38.395,195.435,38.395Z" transform="translate(-182.737 -18.217)"/>
          <path id="Path_124" data-name="Path 124" class="cls-6" d="M195.435,40.295a.521.521,0,0,0-.635.4.715.715,0,0,0,.079.4c.079.159.159.238.317.238h.159a.292.292,0,0,0,.238-.079c.159-.079.238-.159.238-.317a.716.716,0,0,0-.079-.4C195.752,40.453,195.594,40.374,195.435,40.295Z" transform="translate(-182.737 -18.609)"/>
          <path id="Path_125" data-name="Path 125" class="cls-6" d="M202.335,32.495a.491.491,0,0,0-.635.4.715.715,0,0,0,.079.4c.079.159.159.238.317.238h.159a.444.444,0,0,0,.476-.4.715.715,0,0,0-.079-.4C202.652,32.653,202.494,32.574,202.335,32.495Z" transform="translate(-184.161 -16.999)"/>
          <path id="Path_126" data-name="Path 126" class="cls-6" d="M202.335,34.5a.6.6,0,0,0-.4.079c-.159.079-.238.159-.238.317a.715.715,0,0,0,.079.4c.079.159.159.238.317.238h.159a.444.444,0,0,0,.476-.4.715.715,0,0,0-.079-.4C202.652,34.579,202.494,34.5,202.335,34.5Z" transform="translate(-184.161 -17.417)"/>
          <path id="Path_127" data-name="Path 127" class="cls-6" d="M204.13,33.4a.6.6,0,0,0-.4.079c-.159.079-.238.159-.238.317a.491.491,0,0,0,.4.635h.159a.444.444,0,0,0,.476-.4.715.715,0,0,0-.079-.4C204.368,33.559,204.288,33.4,204.13,33.4Z" transform="translate(-184.527 -17.19)"/>
          <path id="Path_128" data-name="Path 128" class="cls-6" d="M204.135,35.3a.6.6,0,0,0-.4.079c-.159.079-.238.159-.238.317a.715.715,0,0,0,.079.4c.079.159.159.238.317.238h.159a.444.444,0,0,0,.476-.4.715.715,0,0,0-.079-.4A1.1,1.1,0,0,0,204.135,35.3Z" transform="translate(-184.533 -17.582)"/>
          <path id="Path_129" data-name="Path 129" class="cls-6" d="M205.735,32.495a.491.491,0,0,0-.635.4.715.715,0,0,0,.079.4c.079.159.159.238.317.238h.159a.292.292,0,0,0,.238-.079c.159-.079.238-.159.238-.317a.716.716,0,0,0-.079-.4C206.052,32.653,205.894,32.574,205.735,32.495Z" transform="translate(-184.863 -16.999)"/>
          <path id="Path_130" data-name="Path 130" class="cls-6" d="M205.735,34.5a.716.716,0,0,0-.4.079c-.159.079-.238.159-.238.317a.715.715,0,0,0,.079.4c.079.159.159.238.317.238h.159a.292.292,0,0,0,.238-.079c.159-.079.238-.159.238-.317a.716.716,0,0,0-.079-.4C206.052,34.579,205.894,34.5,205.735,34.5Z" transform="translate(-184.863 -17.417)"/>
          <path id="Path_131" data-name="Path 131" class="cls-6" d="M205.735,36.4a.716.716,0,0,0-.4.079c-.159.079-.238.159-.238.317a.715.715,0,0,0,.079.4c.079.159.159.238.317.238h.159a.292.292,0,0,0,.238-.079c.159-.079.238-.159.238-.317a.716.716,0,0,0-.079-.4C206.052,36.559,205.894,36.479,205.735,36.4Z" transform="translate(-184.863 -17.809)"/>
          <path id="Path_132" data-name="Path 132" class="cls-6" d="M207.53,33.4a.6.6,0,0,0-.4.079c-.159.079-.238.159-.238.317a.491.491,0,0,0,.4.635h.159a.444.444,0,0,0,.476-.4.716.716,0,0,0-.079-.4C207.768,33.559,207.688,33.4,207.53,33.4Z" transform="translate(-185.229 -17.19)"/>
          <path id="Path_133" data-name="Path 133" class="cls-6" d="M207.535,35.3a.6.6,0,0,0-.4.079c-.159.079-.238.159-.238.317a.716.716,0,0,0,.079.4c.079.159.159.238.317.238h.159a.444.444,0,0,0,.476-.4.715.715,0,0,0-.079-.4A1.1,1.1,0,0,0,207.535,35.3Z" transform="translate(-185.234 -17.582)"/>
          <path id="Path_134" data-name="Path 134" class="cls-6" d="M207.535,37.3a.6.6,0,0,0-.4.079c-.159.079-.238.159-.238.317a.716.716,0,0,0,.079.4c.079.159.159.238.317.238h.159a.444.444,0,0,0,.476-.4.715.715,0,0,0-.079-.4C207.773,37.379,207.694,37.3,207.535,37.3Z" transform="translate(-185.234 -17.995)"/>
          <path id="Path_135" data-name="Path 135" class="cls-6" d="M207.3,40.232h.159a.444.444,0,0,0,.476-.4.715.715,0,0,0-.079-.4c-.079-.159-.159-.238-.317-.238a.6.6,0,0,0-.4.079c-.159.079-.238.159-.238.317a.716.716,0,0,0,.079.4C206.979,40.152,207.138,40.232,207.3,40.232Z" transform="translate(-185.234 -18.387)"/>
          <path id="Path_136" data-name="Path 136" class="cls-6" d="M207.535,41.2a.716.716,0,0,0-.4.079c-.159.079-.238.159-.238.317a.716.716,0,0,0,.079.4c.079.159.159.238.317.238h.159a.444.444,0,0,0,.476-.4.715.715,0,0,0-.079-.4C207.773,41.279,207.694,41.2,207.535,41.2Z" transform="translate(-185.234 -18.8)"/>
          <path id="Path_137" data-name="Path 137" class="cls-6" d="M207.535,43.1a.716.716,0,0,0-.4.079c-.159.079-.238.159-.238.317a.716.716,0,0,0,.079.4c.079.159.159.238.317.238h.159a.444.444,0,0,0,.476-.4.715.715,0,0,0-.079-.4A1.1,1.1,0,0,0,207.535,43.1Z" transform="translate(-185.234 -19.192)"/>
          <path id="Path_138" data-name="Path 138" class="cls-6" d="M209.135,32.495a.491.491,0,0,0-.635.4.715.715,0,0,0,.079.4c.079.159.159.238.317.238h.159a.292.292,0,0,0,.238-.079c.159-.079.238-.159.238-.317a.715.715,0,0,0-.079-.4A1.1,1.1,0,0,0,209.135,32.495Z" transform="translate(-185.565 -16.999)"/>
          <path id="Path_139" data-name="Path 139" class="cls-6" d="M209.135,34.5a.716.716,0,0,0-.4.079c-.159.079-.238.159-.238.317a.715.715,0,0,0,.079.4c.079.159.159.238.317.238h.159a.292.292,0,0,0,.238-.079c.159-.079.238-.159.238-.317a.715.715,0,0,0-.079-.4C209.373,34.579,209.294,34.5,209.135,34.5Z" transform="translate(-185.565 -17.417)"/>
          <path id="Path_140" data-name="Path 140" class="cls-6" d="M209.135,36.4a.716.716,0,0,0-.4.079c-.159.079-.238.159-.238.317a.715.715,0,0,0,.079.4c.079.159.159.238.317.238h.159a.292.292,0,0,0,.238-.079c.159-.079.238-.159.238-.317a.715.715,0,0,0-.079-.4A1.1,1.1,0,0,0,209.135,36.4Z" transform="translate(-185.565 -17.809)"/>
          <path id="Path_141" data-name="Path 141" class="cls-6" d="M209.13,38.4a.715.715,0,0,0-.4.079c-.159.079-.238.159-.238.317a.491.491,0,0,0,.4.635h.159a.292.292,0,0,0,.238-.079c.159-.079.238-.159.238-.317a.715.715,0,0,0-.079-.4C209.368,38.479,209.288,38.4,209.13,38.4Z" transform="translate(-185.559 -18.222)"/>
          <path id="Path_142" data-name="Path 142" class="cls-6" d="M209.13,40.3a.715.715,0,0,0-.4.079c-.159.079-.238.159-.238.317a.491.491,0,0,0,.4.635h.159a.292.292,0,0,0,.238-.079c.159-.079.238-.159.238-.317a.715.715,0,0,0-.079-.4A1.1,1.1,0,0,0,209.13,40.3Z" transform="translate(-185.559 -18.614)"/>
          <path id="Path_143" data-name="Path 143" class="cls-6" d="M209.13,42.3a.716.716,0,0,0-.4.079c-.159.079-.238.159-.238.317a.491.491,0,0,0,.4.635h.159a.292.292,0,0,0,.238-.079c.159-.079.238-.159.238-.317A.491.491,0,0,0,209.13,42.3Z" transform="translate(-185.559 -19.027)"/>
          <path id="Path_144" data-name="Path 144" class="cls-6" d="M210.93,33.4a.6.6,0,0,0-.4.079c-.159.079-.238.159-.238.317a.491.491,0,0,0,.4.635h.159a.292.292,0,0,0,.238-.079c.159-.079.238-.159.238-.317A.6.6,0,0,0,210.93,33.4Z" transform="translate(-185.931 -17.19)"/>
          <path id="Path_145" data-name="Path 145" class="cls-6" d="M210.7,36.332h.159a.292.292,0,0,0,.238-.079c.159-.079.238-.159.238-.317a.491.491,0,0,0-.4-.635.6.6,0,0,0-.4.079c-.159.079-.238.159-.238.317a.716.716,0,0,0,.079.4C210.379,36.252,210.538,36.332,210.7,36.332Z" transform="translate(-185.936 -17.582)"/>
          <path id="Path_146" data-name="Path 146" class="cls-6" d="M210.7,38.332h.159a.292.292,0,0,0,.238-.079c.159-.079.238-.159.238-.317a.491.491,0,0,0-.4-.635.6.6,0,0,0-.4.079c-.159.079-.238.159-.238.317a.716.716,0,0,0,.079.4C210.379,38.173,210.538,38.252,210.7,38.332Z" transform="translate(-185.936 -17.995)"/>
          <path id="Path_147" data-name="Path 147" class="cls-6" d="M210.935,39.2a.6.6,0,0,0-.4.079c-.159.079-.238.159-.238.317a.716.716,0,0,0,.079.4c.079.159.159.238.317.238h.159a.292.292,0,0,0,.238-.079c.159-.079.238-.159.238-.317a.715.715,0,0,0-.079-.4A1.1,1.1,0,0,0,210.935,39.2Z" transform="translate(-185.936 -18.387)"/>
          <path id="Path_148" data-name="Path 148" class="cls-6" d="M212.535,32.495a.491.491,0,0,0-.635.4.716.716,0,0,0,.079.4c.079.159.159.238.317.238h.159a.292.292,0,0,0,.238-.079c.159-.079.238-.159.238-.317a.715.715,0,0,0-.079-.4A1.1,1.1,0,0,0,212.535,32.495Z" transform="translate(-186.266 -16.999)"/>
          <path id="Path_149" data-name="Path 149" class="cls-6" d="M212.535,34.495a.521.521,0,0,0-.635.4.716.716,0,0,0,.079.4c.079.159.159.238.317.238h.159a.292.292,0,0,0,.238-.079c.159-.079.238-.159.238-.317a.715.715,0,0,0-.079-.4C212.773,34.574,212.694,34.495,212.535,34.495Z" transform="translate(-186.266 -17.412)"/>
          <path id="Path_150" data-name="Path 150" class="cls-6" d="M212.535,36.395a.521.521,0,0,0-.635.4.716.716,0,0,0,.079.4c.079.159.159.238.317.238h.159a.292.292,0,0,0,.238-.079c.159-.079.238-.159.238-.317a.715.715,0,0,0-.079-.4A1.1,1.1,0,0,0,212.535,36.395Z" transform="translate(-186.266 -17.804)"/>
        </g>
        <path id="Path_151" data-name="Path 151" class="cls-7" d="M76.688,37.816c-.556-6.984-1.984-26.9-1.984-26.9L73.038,7.9a2.784,2.784,0,0,1-.635-.4,1.664,1.664,0,0,0-.635.476L65.34,14.484l-2.54,2.54.952,17.539c.556,12.857,10.079,16.983,16.507,16.507,6.587-.476,9.127-3.413,11.19-5.555C81.371,49.085,76.926,40.99,76.688,37.816Z" transform="translate(-12.961 -1.545)"/>
        <path id="Path_152" data-name="Path 152" class="cls-8" d="M12.618,13.846,6.19,7.259,6.031,7.1c-.317.238-.556.476-.794.635a.956.956,0,0,0-.4.4l-1.349,2.54a.477.477,0,0,0-.079.317L0,50.987H5.952a7.7,7.7,0,0,0,7.7-7.381l1.825-27.062Z" transform="translate(0 -1.463)"/>
        <path id="Path_153" data-name="Path 153" class="cls-9" d="M60.055,1.523c-3.016-.873-6.111.238-8.492,2.54L36.485,18.982l-1.746,1.667a7.792,7.792,0,0,1-7.539,1.9l-5-1.9,8.73,8.65a8.355,8.355,0,0,0,12.063.4L56.96,15.808,63.388,9.3c1.111-1.032,2.54-1.19,3.016,1.746C66.087,3.824,62.277,2.237,60.055,1.523Z" transform="translate(-4.582 -0.25)"/>
        <path id="Path_154" data-name="Path 154" class="cls-10" d="M10.449,1.523c3.016-.873,6.111.238,8.492,2.54l15.079,14.92,1.746,1.667a7.792,7.792,0,0,0,7.539,1.9l5-1.9L39.336,29.7a8.468,8.468,0,0,1-5.952,2.381A8.284,8.284,0,0,1,27.512,29.7L13.465,15.808,7.036,9.3C5.925,8.268,4.5,8.11,4.1,10.967,4.417,3.824,8.227,2.237,10.449,1.523Z" transform="translate(-0.846 -0.25)"/>
      </g>
    </g>
    <g id="Group_27" data-name="Group 27" transform="translate(384.192 130.392)">
      <g id="Group_24" data-name="Group 24" transform="translate(0 0.017)">
        <path id="Path_155" data-name="Path 155" class="cls-10" d="M240.255,49.823a.55.55,0,0,1-.476-.873l1.746-2.936L240.175,43a.553.553,0,1,1,1.032-.4l1.508,3.333a.5.5,0,0,1,0,.476l-1.9,3.174C240.572,49.664,240.413,49.823,240.255,49.823Z" transform="translate(-239.696 -42.222)"/>
      </g>
      <g id="Group_26" data-name="Group 26" transform="translate(5.082)">
        <g id="Group_25" data-name="Group 25">
          <path id="Path_156" data-name="Path 156" class="cls-11" d="M248.4,43.152h-2.3l.159-.952h5.555l-.159.952h-2.3l-1.032,6.587H247.29Z" transform="translate(-246.1 -42.2)"/>
          <path id="Path_157" data-name="Path 157" class="cls-11" d="M254.1,49.581a1.082,1.082,0,0,1-.4-.952v-.4l.714-4.444a1.742,1.742,0,0,1,.635-1.19,1.949,1.949,0,0,1,1.19-.4c.635,0,1.667,0,3.1.079l-.159.873H256.4a.781.781,0,0,0-.635.238,1.6,1.6,0,0,0-.317.635l-.238,1.508,3.174.079-.159.794-3.174.079-.238,1.587v.238a.671.671,0,0,0,.159.476,1.147,1.147,0,0,0,.556.159H258.3l-.159.873h-.4a6.72,6.72,0,0,0-1.032.079c-.556,0-1.111.079-1.667.079C254.732,49.819,254.414,49.739,254.1,49.581Z" transform="translate(-247.669 -42.2)"/>
          <path id="Path_158" data-name="Path 158" class="cls-11" d="M265.2,47.438a15.148,15.148,0,0,1,.159-1.587,5.99,5.99,0,0,1,1.032-2.778,2.4,2.4,0,0,1,2.063-.873,8.193,8.193,0,0,1,2.381.317l-.159.794a10.3,10.3,0,0,0-2.063-.238,1.985,1.985,0,0,0-1.032.238,1.6,1.6,0,0,0-.714.873,12.866,12.866,0,0,0-.476,1.746,11.847,11.847,0,0,0-.159,1.349,1.229,1.229,0,0,0,1.508,1.508h1.111c.317,0,.635-.079.952-.079l-.159.794a8.637,8.637,0,0,1-2.222.238C265.994,49.819,265.2,49.025,265.2,47.438Z" transform="translate(-250.042 -42.2)"/>
          <path id="Path_159" data-name="Path 159" class="cls-11" d="M274.111,49.66a1.193,1.193,0,0,1-.794-.714A3.17,3.17,0,0,1,273,47.517a13.061,13.061,0,0,1,.159-1.667,8.463,8.463,0,0,1,.635-2.222,2.5,2.5,0,0,1,1.111-1.111,3.82,3.82,0,0,1,1.746-.317,3.42,3.42,0,0,1,1.349.238,1.94,1.94,0,0,1,.873.714,2.545,2.545,0,0,1,.317,1.429,14.542,14.542,0,0,1-.159,1.667,8.468,8.468,0,0,1-.635,2.222,1.986,1.986,0,0,1-1.111,1.032,5.279,5.279,0,0,1-1.746.317A7.118,7.118,0,0,1,274.111,49.66Zm2.778-1.032a1.6,1.6,0,0,0,.714-.873,10.211,10.211,0,0,0,.476-1.746,13.981,13.981,0,0,0,.159-1.508,2.959,2.959,0,0,0-.159-.952,1.067,1.067,0,0,0-.556-.476,2.976,2.976,0,0,0-.873-.079,2.65,2.65,0,0,0-1.19.238,1.6,1.6,0,0,0-.714.873,11.593,11.593,0,0,0-.476,1.825,14,14,0,0,0-.159,1.508,2.45,2.45,0,0,0,.159.873c.079.238.317.317.556.4a3.271,3.271,0,0,0,.952.079A1.745,1.745,0,0,0,276.889,48.628Z" transform="translate(-251.652 -42.2)"/>
          <path id="Path_160" data-name="Path 160" class="cls-11" d="M283.07,42.2h.794l2.778,5.793.952-5.793h1.032l-1.19,7.539h-.873l-2.778-5.793-.952,5.793H281.8Z" transform="translate(-253.468 -42.2)"/>
          <path id="Path_161" data-name="Path 161" class="cls-11" d="M291.7,49.581a1.082,1.082,0,0,1-.4-.952v-.4l.714-4.444a1.742,1.742,0,0,1,.635-1.19,1.949,1.949,0,0,1,1.19-.4c.635,0,1.667,0,3.1.079l-.159.873H294a.781.781,0,0,0-.635.238,1.6,1.6,0,0,0-.317.635l-.238,1.508,3.174.079-.159.794-3.174.079-.238,1.587v.238a.671.671,0,0,0,.159.476,1.147,1.147,0,0,0,.556.159H295.9l-.159.873h-.4a6.72,6.72,0,0,0-1.032.079c-.556,0-1.111.079-1.667.079A5.759,5.759,0,0,1,291.7,49.581Z" transform="translate(-255.429 -42.2)"/>
          <path id="Path_162" data-name="Path 162" class="cls-11" d="M299.3,47.438a15.147,15.147,0,0,1,.159-1.587,5.991,5.991,0,0,1,1.032-2.778,2.4,2.4,0,0,1,2.063-.873,8.192,8.192,0,0,1,2.381.317l-.159.794a10.3,10.3,0,0,0-2.063-.238,1.985,1.985,0,0,0-1.032.238,1.6,1.6,0,0,0-.714.873,12.87,12.87,0,0,0-.476,1.746,11.853,11.853,0,0,0-.159,1.349,1.229,1.229,0,0,0,1.508,1.508h1.111c.317,0,.635-.079.952-.079l-.159.794a8.637,8.637,0,0,1-2.222.238C300.014,49.819,299.3,49.025,299.3,47.438Z" transform="translate(-257.08 -42.2)"/>
          <path id="Path_163" data-name="Path 163" class="cls-11" d="M309.8,43.152h-2.3l.159-.952h5.555l-.159.952h-2.3l-1.032,6.587H308.69Z" transform="translate(-258.772 -42.2)"/>
          <path id="Path_164" data-name="Path 164" class="cls-11" d="M317.63,42.2h1.27l1.27,7.539h-1.032l-.317-1.984h-2.936l-.952,1.984H313.9Zm1.111,4.682-.556-3.73-1.825,3.73Z" transform="translate(-260.093 -42.2)"/>
          <path id="Path_165" data-name="Path 165" class="cls-11" d="M325.322,42.2h.952l.952,6.27,2.936-6.27h.952l-.317,7.539h-1.032L330,44.025l-2.619,5.714h-.952L325.64,44.1l-1.508,5.635H323.1Z" transform="translate(-261.992 -42.2)"/>
          <path id="Path_166" data-name="Path 166" class="cls-11" d="M335.811,49.66a1.193,1.193,0,0,1-.794-.714,3.169,3.169,0,0,1-.317-1.429,13.061,13.061,0,0,1,.159-1.667,8.466,8.466,0,0,1,.635-2.222,2.5,2.5,0,0,1,1.111-1.111,3.82,3.82,0,0,1,1.746-.317,3.42,3.42,0,0,1,1.349.238,1.941,1.941,0,0,1,.873.714,2.546,2.546,0,0,1,.317,1.429,14.537,14.537,0,0,1-.159,1.667,8.462,8.462,0,0,1-.635,2.222,1.986,1.986,0,0,1-1.111,1.032,5.279,5.279,0,0,1-1.746.317A6.475,6.475,0,0,1,335.811,49.66Zm2.778-1.032a1.6,1.6,0,0,0,.714-.873,10.216,10.216,0,0,0,.476-1.746,14,14,0,0,0,.159-1.508,2.96,2.96,0,0,0-.159-.952,1.067,1.067,0,0,0-.556-.476,2.976,2.976,0,0,0-.873-.079,2.65,2.65,0,0,0-1.19.238,1.6,1.6,0,0,0-.714.873,11.59,11.59,0,0,0-.476,1.825,13.989,13.989,0,0,0-.159,1.508,2.449,2.449,0,0,0,.159.873c.079.238.317.317.556.4a3.27,3.27,0,0,0,.952.079A1.745,1.745,0,0,0,338.589,48.628Z" transform="translate(-264.386 -42.2)"/>
          <path id="Path_167" data-name="Path 167" class="cls-11" d="M344.611,49.739a4.136,4.136,0,0,1-1.111-.159l.159-.794a19.4,19.4,0,0,0,2.3.079,2.65,2.65,0,0,0,1.19-.238,1.142,1.142,0,0,0,.476-.794l.079-.4V47.2a.721.721,0,0,0-.238-.556,1.707,1.707,0,0,0-.794-.159h-.794a1.643,1.643,0,0,1-1.19-.4,1.133,1.133,0,0,1-.4-1.032v-.4l.079-.635a1.823,1.823,0,0,1,.794-1.429,2.718,2.718,0,0,1,1.746-.4,5.623,5.623,0,0,1,1.111.079c.476.079.794.079,1.111.159l-.159.794a20.8,20.8,0,0,0-2.222-.079,1.986,1.986,0,0,0-1.032.238.876.876,0,0,0-.4.794l-.079.4V44.9a.48.48,0,0,0,.238.476,1.5,1.5,0,0,0,.635.159h.873a1.864,1.864,0,0,1,1.27.4,1.28,1.28,0,0,1,.476,1.032v.4l-.079.714a1.8,1.8,0,0,1-.794,1.349,3.664,3.664,0,0,1-1.825.4A8.161,8.161,0,0,1,344.611,49.739Z" transform="translate(-266.202 -42.2)"/>
          <path id="Path_168" data-name="Path 168" class="cls-11" d="M355.2,47.438a15.162,15.162,0,0,1,.159-1.587,5.99,5.99,0,0,1,1.032-2.778,2.4,2.4,0,0,1,2.063-.873,8.192,8.192,0,0,1,2.381.317l-.159.794a10.3,10.3,0,0,0-2.063-.238,1.985,1.985,0,0,0-1.032.238,1.6,1.6,0,0,0-.714.873,12.885,12.885,0,0,0-.476,1.746,11.85,11.85,0,0,0-.159,1.349,1.229,1.229,0,0,0,1.508,1.508h1.111c.317,0,.635-.079.952-.079l-.159.794a8.637,8.637,0,0,1-2.222.238C355.914,49.819,355.2,49.025,355.2,47.438Z" transform="translate(-268.617 -42.2)"/>
          <path id="Path_169" data-name="Path 169" class="cls-11" d="M364.111,49.66a1.193,1.193,0,0,1-.794-.714A3.169,3.169,0,0,1,363,47.517a13.061,13.061,0,0,1,.159-1.667,8.464,8.464,0,0,1,.635-2.222,2.5,2.5,0,0,1,1.111-1.111,3.82,3.82,0,0,1,1.746-.317,3.42,3.42,0,0,1,1.349.238,1.94,1.94,0,0,1,.873.714,2.545,2.545,0,0,1,.317,1.429,14.53,14.53,0,0,1-.159,1.667,8.462,8.462,0,0,1-.635,2.222,1.986,1.986,0,0,1-1.111,1.032,5.279,5.279,0,0,1-1.746.317A5.911,5.911,0,0,1,364.111,49.66Zm2.7-1.032a1.6,1.6,0,0,0,.714-.873A10.21,10.21,0,0,0,368,46.009a14,14,0,0,0,.159-1.508,2.96,2.96,0,0,0-.159-.952,1.067,1.067,0,0,0-.556-.476,2.976,2.976,0,0,0-.873-.079,2.65,2.65,0,0,0-1.19.238,1.6,1.6,0,0,0-.714.873,11.583,11.583,0,0,0-.476,1.825,13.989,13.989,0,0,0-.159,1.508,2.449,2.449,0,0,0,.159.873c.079.238.317.317.556.4a3.27,3.27,0,0,0,.952.079A1.665,1.665,0,0,0,366.809,48.628Z" transform="translate(-270.227 -42.2)"/>
          <path id="Path_170" data-name="Path 170" class="cls-11" d="M373.07,42.2h.794l2.778,5.793.952-5.793h1.032l-1.19,7.539h-.873l-2.778-5.793-.952,5.793H371.8Z" transform="translate(-272.043 -42.2)"/>
          <path id="Path_171" data-name="Path 171" class="cls-11" d="M385.1,49.581a1.082,1.082,0,0,1-.4-.952v-.4l.714-4.444a1.741,1.741,0,0,1,.635-1.19,1.95,1.95,0,0,1,1.19-.4c.635,0,1.667,0,3.1.079l-.159.873h-2.857a.781.781,0,0,0-.635.238,1.6,1.6,0,0,0-.317.635l-.238,1.508,3.174.079-.159.794-3.174.079-.238,1.587v.238a.671.671,0,0,0,.159.476,1.147,1.147,0,0,0,.556.159h2.778l-.159.873h-.4a6.72,6.72,0,0,0-1.032.079c-.556,0-1.111.079-1.667.079A9.3,9.3,0,0,1,385.1,49.581Z" transform="translate(-274.705 -42.2)"/>
          <path id="Path_172" data-name="Path 172" class="cls-11" d="M392.5,48.549v-.4l.952-5.952h1.032l-.952,5.793v.238a.671.671,0,0,0,.159.476,1.147,1.147,0,0,0,.556.159h2.619l-.159.952h-2.857C392.976,49.739,392.5,49.343,392.5,48.549Z" transform="translate(-276.315 -42.2)"/>
          <path id="Path_173" data-name="Path 173" class="cls-11" d="M404.743,42.2h.952l.952,6.27,2.936-6.27h.952l-.317,7.539h-.952l.238-5.714-2.619,5.714h-.952L405.14,44.1l-1.508,5.635H402.6Z" transform="translate(-278.4 -42.2)"/>
          <path id="Path_174" data-name="Path 174" class="cls-11" d="M414.655,49.343a2.017,2.017,0,0,1-.556-1.667,10.132,10.132,0,0,1,.159-1.349l.635-4.127h1.032l-.714,4.285a6.485,6.485,0,0,0-.079,1.111,1.347,1.347,0,0,0,.317,1.032,1.551,1.551,0,0,0,1.111.317,3.522,3.522,0,0,0,1.032-.159,3.032,3.032,0,0,0,.714-.714,8.563,8.563,0,0,0,.476-1.508l.714-4.285h1.032l-.714,4.365a5.763,5.763,0,0,1-.635,2.063,2.327,2.327,0,0,1-1.032.952,4.458,4.458,0,0,1-1.587.238A3.618,3.618,0,0,1,414.655,49.343Z" transform="translate(-280.773 -42.2)"/>
          <path id="Path_175" data-name="Path 175" class="cls-11" d="M423.87,42.2h.794l2.778,5.793.952-5.793h1.032l-1.19,7.539h-.873l-2.778-5.793-.952,5.793H422.6Z" transform="translate(-282.528 -42.2)"/>
          <path id="Path_176" data-name="Path 176" class="cls-11" d="M433.011,42.2h2.778a2.613,2.613,0,0,1,1.9.635,2.958,2.958,0,0,1,.556,1.984,8.163,8.163,0,0,1-.079,1.349,4.975,4.975,0,0,1-1.111,2.7,2.951,2.951,0,0,1-2.381.873H431.9Zm1.667,6.666a1.892,1.892,0,0,0,1.587-.714,4.5,4.5,0,0,0,.794-2.063,6.483,6.483,0,0,0,.079-1.111,2.1,2.1,0,0,0-.4-1.349,1.724,1.724,0,0,0-1.27-.4H433.8l-.873,5.714h1.746Z" transform="translate(-284.447 -42.2)"/>
          <path id="Path_177" data-name="Path 177" class="cls-11" d="M442.411,49.66a1.193,1.193,0,0,1-.794-.714,3.17,3.17,0,0,1-.317-1.429,13.056,13.056,0,0,1,.159-1.667,8.463,8.463,0,0,1,.635-2.222,2.5,2.5,0,0,1,1.111-1.111,3.819,3.819,0,0,1,1.746-.317,3.42,3.42,0,0,1,1.349.238,1.94,1.94,0,0,1,.873.714,2.546,2.546,0,0,1,.317,1.429,14.549,14.549,0,0,1-.159,1.667,8.466,8.466,0,0,1-.635,2.222,1.986,1.986,0,0,1-1.111,1.032,5.279,5.279,0,0,1-1.746.317A5.912,5.912,0,0,1,442.411,49.66Zm2.7-1.032a1.6,1.6,0,0,0,.714-.873,10.214,10.214,0,0,0,.476-1.746,13.988,13.988,0,0,0,.159-1.508,2.96,2.96,0,0,0-.159-.952,1.067,1.067,0,0,0-.556-.476,2.976,2.976,0,0,0-.873-.079,2.65,2.65,0,0,0-1.19.238,1.6,1.6,0,0,0-.714.873,11.582,11.582,0,0,0-.476,1.825,14,14,0,0,0-.159,1.508,2.45,2.45,0,0,0,.159.873c.079.238.317.317.556.4a3.27,3.27,0,0,0,.952.079A1.746,1.746,0,0,0,445.109,48.628Z" transform="translate(-286.387 -42.2)"/>
        </g>
      </g>
    </g>
  </g>
</svg>
