<svg xmlns="http://www.w3.org/2000/svg" viewBox="0 0 182 95">
  <defs>
    <style>
      .cls-1 {
        fill: #adadad;
      }
    </style>
  </defs>
  <g id="flat-world-map" transform="translate(32 -114.782)">
    <g id="Group_91" data-name="Group 91" transform="translate(-32 114.782)">
      <path id="Path_394" data-name="Path 394" class="cls-1" d="M60.569,69.816l7.487,3.644-4.278,8.783-4.283.652-.651,3.438-8.77,7.51-4.064,7.716L49,104.782l-4.907-1.29L42.368,99.2l4.92-19.937L43.219,75.62l-1.912-7.711,2.3-3.773-2.1.317L38.522,60.6l-2.571-1.286-5.99-2.148-4.929-7.716-2.99-5.572v-7.51l-4.92-8.359L10.91,24.151l-3.85,2.143L0,29.732l4.488-3.644L1.7,25.441.646,21.8l3.2-2.576L.646,18.8l.633-2.358H3.637L1.5,13.22,7.273,9.782l10.486,5.8,3.864-3.644,8.338,4.929,16.048-1.728v8.153L39.592,24.57,38.3,28.013l6.208,6.64,1.5-.214L47.07,26.08l4.082-.21,1.7,4.706,2.144-1.281L59.7,39.81,53.068,42.8l-5.134,2.8L43.87,51.169V53.96l-1.5.21-1.061-3-5.78.853-1.283,3.639,1.493,2.148,2.135-1.724,2.144.21-1.07,3.059,2.563.183.86,3.21,1.729.576,1.275-2.085,8.561.857L59.7,66.386ZM161.928,67.9l-.463,3.635-3.071-1.125.566-1.96-3.369-.281-4.363,4.072-4.63,1.683,1.123,6.3-.428,1.264,1.7.978,6.868-1.7,2.665,1.558,1.261-.7.838,2.541,3.5.991,2.531-1.558,1.395-7.564-3.8-3.8Zm-17.011-3.523,3.641.7,1.685-5.188-.989-.853-4.907,3.094Zm11.208-1.415,3.788,3.938,2.17.143.914-.839,3.084,1.956-1.261-2.67-5.753-2.8ZM163,31.081h-.985l-.138,5.055-2.522,5.345-3.227,2.384-.138,2.108,5.887-3.51.281-3.657,1.952-1.817-1.537-1.255.838-2.96Zm15.157,51,.419,3.925-4.345,4.081,2.8.281,2.509-3.8,1.961-2.661-1.261-.138ZM84.4,22.954v4.095L87.241,25.8l.8-1.25-3.071-5.921L83.159,19.9l.111,1.581-1.707,2.063-.116,2.152H83.5Zm25.652,48.2-.111,4.559,1.827.795,1.809-5.461-.463-2.286Zm63.055-47.674.138,3.237-3.645,4.5-.138-5.063,4.76-5.764-2.932.433-3.8,3.085-4.635-.277-3.5,3.376,2.518,1.822-2.937,8.149-2.518.433-1.551,2.246.7,2.951-1.818.973-.566-2.666L151.633,38.8l-2.1,2.237,1.68,4.773-2.375,4.367-5.2.277-1.114,1.831L144.9,55.8l-2.518,2.112L139.8,55.215l-.094,2.536,2.255,2.536.985,4.492,2.812,1,3.8,1.545-7.015-1.259-2.95-2.809-2.656-3.8,3.628,1.831-1.68-3.076-.343-4.2-1.6.406L134.97,50.2,129.493,54v2.407l-1.965,1.956-2.509-6.323-2.8-3.376-6.738-1.264-1.956-1.674-.989.558,1.395,3.376,2.237-1.125,2.95,2.246-8.686,5.2-4.5-8.85-.94.165,4.586,10.511,4.488-2.112-1.395,4.925-4.492,4.063.7,6.046-2.522,1.96L101.738,81.4l-4.635.844L93.039,72.41l.989-4.492L91.5,60.037l-8.557.558L78.167,55.96l.847-7.586,4.63-5.622,8.971-1.545.566,2.38,3.65,2.384,1.395-1.96L103.8,45.44l1.439-.871.637-2.1-3.846-.647-1.243-2.152-.9-.464-.793,2.728L97.371,39.77l.111-1.813L95.191,36.14l-1.359-.683.116,1.822,2.843,1.933-1.48,1.715-2.037-2.733L91.8,36.479l-3.409,1.715-2.384,3.755-3.632-.567-.227-4.55,4.648.326-1.466-2.375-.914-1.947,3.521-1.143,1.93-2.608,1.591-.121-.343-1.473,1.021-1.371.8,2.273,4.425.112L98.6,25.312l1.716.576-.575-2.157,2.638-.844-.82-.973-2.389.67-.838-2.041-.1-.013.071-.143-.348-.857.958-.683.838-2.139-.887-.134L97.384,18.4l-1.243,2.719,1.377,1.473-1.377,3.644-2.046.8L92.968,23.4l-2.389,1.366-1.132-.679.107-3.527,2.05-1.581,1.707-4.211,4.318-2.38L108.4,14.368c12.429-1.308,34.984-3.706,34.984-3.706L180.6,15.926,182,19.86l-5.058,2.817ZM109.274,37.725l-5.9-3.072-1.814,3.184.793,1.469,3.418-.563,2.5.683Zm6.23,3.858-.553-3.523-1.145-1.706,1.377-.572v-1.7l-3.525,1.933L112.9,39.2l-.557,2.157ZM64.66,13.948l-3.16-.871-3.908,4.184,5.023,13.105,2.375.589.187-4.26,1.609-.991.094-1.616,1.658-3.121-1.159-2.353Z" transform="translate(0 -9.782)"/>
    </g>
  </g>
</svg>
