<svg xmlns="http://www.w3.org/2000/svg" xmlns:xlink="http://www.w3.org/1999/xlink" viewBox="0 0 163.458 164.428">
  <defs>
    <style>
      .cls-1 {
        fill: #ffd832;
      }

      .cls-2 {
        fill: #e75656;
      }

      .cls-3 {
        fill: #ffefad;
      }

      .cls-4 {
        fill: #fff;
      }

      .cls-5 {
        clip-path: url(#clip-path);
      }

      .cls-6 {
        fill: #e22c2c;
      }
    </style>
    <clipPath id="clip-path">
      <path id="Path_223" data-name="Path 223" d="M43.8,89.7v20.779a19.45,19.45,0,0,0,19.393,19.393h4.294a19.45,19.45,0,0,0,19.393-19.393V89.7Z" transform="translate(-43.8 -89.7)"/>
    </clipPath>
  </defs>
  <g id="Symbol_6_1" data-name="Symbol 6 – 1" transform="translate(-1291.78 -1786.063)">
    <g id="Group_45" data-name="Group 45" transform="translate(1323.927 1814.56)">
      <path id="Path_213" data-name="Path 213" class="cls-1" d="M123.212,70.479a50,50,0,1,0-71.617,45.159v21.471A19.45,19.45,0,0,0,70.988,156.5h4.294a19.45,19.45,0,0,0,19.393-19.393V115.638A49.926,49.926,0,0,0,123.212,70.479Z" transform="translate(-23.206 -20.572)"/>
    </g>
    <g id="Group_46" data-name="Group 46" transform="translate(1352.454 1910.319)">
      <path id="Path_214" data-name="Path 214" class="cls-2" d="M43.8,89.7v20.779a19.45,19.45,0,0,0,19.393,19.393h4.294a19.45,19.45,0,0,0,19.393-19.393V89.7Z" transform="translate(-43.8 -89.7)"/>
    </g>
    <g id="Group_48" data-name="Group 48" transform="translate(1291.78 1866.822)">
      <g id="Group_47" data-name="Group 47">
        <path id="Path_215" data-name="Path 215" class="cls-3" d="M162.073,61.07H148.22a1.385,1.385,0,0,1,0-2.77h13.852a1.385,1.385,0,1,1,0,2.77Zm-146.835,0H1.385a1.385,1.385,0,1,1,0-2.77H15.238a1.385,1.385,0,1,1,0,2.77Z" transform="translate(0 -58.3)"/>
      </g>
    </g>
    <g id="Group_49" data-name="Group 49" transform="translate(1345.112 1835.654)">
      <path id="Path_216" data-name="Path 216" class="cls-4" d="M96.126,66.968v-4.71l-5.818-.831a22.075,22.075,0,0,0-1.385-5.4l4.571-3.6-2.355-4.156-5.4,2.078a22.754,22.754,0,0,0-4.156-4.017l2.078-5.541L79.5,38.432,75.9,43a21.567,21.567,0,0,0-5.125-1.385L69.945,35.8h-4.71l-1.108,5.957a25.827,25.827,0,0,0-5.4,1.385l-3.74-4.571-4.156,2.355,2.216,5.541a27.533,27.533,0,0,0-4.017,4.017l-5.541-2.078-2.355,4.156,4.71,3.74a21.567,21.567,0,0,0-1.385,5.125l-5.957.831v4.71l5.957.831a22.673,22.673,0,0,0,1.385,5.264l-4.71,3.74,2.355,4.156,5.541-2.216a22.056,22.056,0,0,0,4.017,4.017L50.967,88.3l4.156,2.355,3.6-4.71a21.567,21.567,0,0,0,5.125,1.385l.831,5.818h4.71l.831-5.818a22.074,22.074,0,0,0,5.4-1.385l3.6,4.571,4.156-2.355-2.216-5.4A19.061,19.061,0,0,0,85.182,78.6l5.4,2.078,2.355-4.156-4.571-3.6a22.673,22.673,0,0,0,1.385-5.264ZM67.451,77.634A13.021,13.021,0,1,1,80.473,64.613,13.006,13.006,0,0,1,67.451,77.634Z" transform="translate(-38.5 -35.8)"/>
    </g>
    <g id="Group_52" data-name="Group 52" transform="translate(1315.468 1809.75)">
      <g id="Group_50" data-name="Group 50">
        <path id="Path_217" data-name="Path 217" class="cls-3" d="M132.075,133.46a1.258,1.258,0,0,1-.97-.416l-9.835-9.835a1.371,1.371,0,1,1,1.939-1.939l9.835,9.835a1.339,1.339,0,0,1,0,1.939A1.258,1.258,0,0,1,132.075,133.46ZM28.32,29.706a1.258,1.258,0,0,1-.97-.416l-9.835-9.835a1.371,1.371,0,0,1,1.939-1.939l9.835,9.835a1.339,1.339,0,0,1,0,1.939A1.5,1.5,0,0,1,28.32,29.706Z" transform="translate(-17.1 -17.1)"/>
      </g>
      <g id="Group_51" data-name="Group 51" transform="translate(0.693)">
        <path id="Path_218" data-name="Path 218" class="cls-3" d="M18.985,133.46a1.258,1.258,0,0,1-.97-.416,1.339,1.339,0,0,1,0-1.939l9.835-9.835a1.371,1.371,0,1,1,1.939,1.939l-9.835,9.835A1.5,1.5,0,0,1,18.985,133.46ZM122.74,29.706a1.258,1.258,0,0,1-.97-.416,1.339,1.339,0,0,1,0-1.939l9.835-9.835a1.371,1.371,0,0,1,1.939,1.939l-9.835,9.835A1.258,1.258,0,0,1,122.74,29.706Z" transform="translate(-17.6 -17.1)"/>
      </g>
    </g>
    <g id="Group_53" data-name="Group 53" transform="translate(1372.54 1786.063)">
      <path id="Path_219" data-name="Path 219" class="cls-3" d="M59.685,16.623A1.309,1.309,0,0,1,58.3,15.238V1.385a1.385,1.385,0,1,1,2.77,0V15.238A1.309,1.309,0,0,1,59.685,16.623Z" transform="translate(-58.3 0)"/>
    </g>
    <g id="Group_58" data-name="Group 58" transform="translate(1352.454 1910.319)">
      <g id="Group_57" data-name="Group 57" class="cls-5">
        <g id="Group_54" data-name="Group 54" transform="translate(-1.406 14.939)">
          <path id="Path_220" data-name="Path 220" class="cls-6" d="M44.191,107.986a1.473,1.473,0,0,1-1.385-1.247,1.376,1.376,0,0,1,1.247-1.524l43.081-4.71a1.309,1.309,0,0,1,1.524,1.247,1.376,1.376,0,0,1-1.247,1.524l-43.081,4.71Z" transform="translate(-42.785 -100.485)"/>
        </g>
        <g id="Group_55" data-name="Group 55" transform="translate(1.918 26.021)">
          <path id="Path_221" data-name="Path 221" class="cls-6" d="M46.591,115.571a1.473,1.473,0,0,1-1.385-1.247,1.376,1.376,0,0,1,1.247-1.524l38.51-4.294a1.392,1.392,0,1,1,.277,2.77l-38.51,4.294Z" transform="translate(-45.185 -108.485)"/>
        </g>
        <g id="Group_56" data-name="Group 56" transform="translate(-1.406 2.611)">
          <path id="Path_222" data-name="Path 222" class="cls-6" d="M44.191,100.056a1.473,1.473,0,0,1-1.385-1.247,1.376,1.376,0,0,1,1.247-1.524l51.254-5.679a1.309,1.309,0,0,1,1.524,1.247,1.376,1.376,0,0,1-1.247,1.524L44.33,100.056Z" transform="translate(-42.785 -91.585)"/>
        </g>
      </g>
    </g>
  </g>
</svg>
