<svg xmlns="http://www.w3.org/2000/svg" viewBox="0 0 50.355 80.525">
  <defs>
    <style>
      .cls-1 {
        fill: none;
      }

      .cls-1, .cls-2 {
        stroke: #365891;
        stroke-linecap: round;
        stroke-linejoin: round;
        stroke-miterlimit: 10;
        stroke-width: 1.5px;
      }

      .cls-2 {
        fill: #fff;
      }
    </style>
  </defs>
  <g id="Group_239" data-name="Group 239" transform="translate(-329.25 -1656.948)">
    <path id="Path_406" data-name="Path 406" class="cls-1" d="M38.171,25.3H40.7a8.93,8.93,0,0,1,8.954,8.954V56.638H.8V34.254A8.93,8.93,0,0,1,9.754,25.3h2.53" transform="translate(329.2 1680.086)"/>
    <path id="Path_407" data-name="Path 407" class="cls-1" d="M27.468,48.368H15.789A11.3,11.3,0,0,1,4.5,37.079V17.225A13.541,13.541,0,0,1,18.125,3.6h7.007A13.541,13.541,0,0,1,38.757,17.225V37.079A11.3,11.3,0,0,1,27.468,48.368Z" transform="translate(332.702 1659.548)"/>
    <path id="Path_408" data-name="Path 408" class="cls-1" d="M4.5,21.368H15.205S26.884,20.589,31.361,9.3l7.4,9.538" transform="translate(332.702 1664.942)"/>
    <path id="Path_409" data-name="Path 409" class="cls-1" d="M4.425,25.263h0A2.661,2.661,0,0,1,1.7,22.538V15.725A2.661,2.661,0,0,1,4.425,13h0A2.661,2.661,0,0,1,7.15,15.725v6.813A2.661,2.661,0,0,1,4.425,25.263Z" transform="translate(330.052 1668.444)"/>
    <path id="Path_410" data-name="Path 410" class="cls-1" d="M24.825,25.263h0A2.661,2.661,0,0,1,22.1,22.538V15.725A2.661,2.661,0,0,1,24.825,13h0a2.661,2.661,0,0,1,2.725,2.725v6.813A2.553,2.553,0,0,1,24.825,25.263Z" transform="translate(349.359 1668.444)"/>
    <path id="Path_411" data-name="Path 411" class="cls-1" d="M1.6,31.943V18.318C1.6,8.586,9.775.8,19.7.8H28.85c9.927,0,18.1,7.786,18.1,17.518V38.755a4.4,4.4,0,0,1-4.477,4.477H29.823" transform="translate(329.957 1656.898)"/>
    <path id="Path_412" data-name="Path 412" class="cls-2" d="M19.766,25.014H16.457A1.535,1.535,0,0,1,14.9,23.457h0A1.535,1.535,0,0,1,16.457,21.9h3.309a1.535,1.535,0,0,1,1.557,1.557h0C21.129,24.43,20.545,25.014,19.766,25.014Z" transform="translate(342.545 1676.868)"/>
    <path id="Path_413" data-name="Path 413" class="cls-1" d="M16.8,34.58,24,26.6H9.6Z" transform="translate(337.529 1681.316)"/>
    <line id="Line_4" data-name="Line 4" class="cls-1" y1="20.632" transform="translate(354.331 1715.896)"/>
    <line id="Line_5" data-name="Line 5" class="cls-1" x2="7.786" transform="translate(364.452 1725.239)"/>
  </g>
</svg>
