<svg xmlns="http://www.w3.org/2000/svg" viewBox="0 0 86.296 76.978">
  <defs>
    <style>
      .cls-1 {
        fill: none;
        stroke: #365891;
        stroke-linecap: round;
        stroke-linejoin: round;
        stroke-miterlimit: 10;
        stroke-width: 1.5px;
      }
    </style>
  </defs>
  <g id="Group_326" data-name="Group 326" transform="translate(-0.177 -0.275)">
    <path id="Path_604" data-name="Path 604" class="cls-1" d="M37.018,4.635,2,65.382A7.389,7.389,0,0,0,8.3,76.5H78.346a7.389,7.389,0,0,0,6.307-11.12L49.8,4.635A7.461,7.461,0,0,0,37.018,4.635Z" transform="translate(0 0)"/>
    <path id="Path_605" data-name="Path 605" class="cls-1" d="M28.154,41.124h-1A2.2,2.2,0,0,1,25,38.967V17.058A2.2,2.2,0,0,1,27.158,14.9h1a2.2,2.2,0,0,1,2.158,2.158V38.967A2.2,2.2,0,0,1,28.154,41.124Z" transform="translate(15.836 9.154)"/>
    <circle id="Ellipse_61" data-name="Ellipse 61" class="cls-1" cx="4.481" cy="4.481" r="4.481" transform="translate(39.01 53.93)"/>
  </g>
</svg>
