<svg xmlns="http://www.w3.org/2000/svg" viewBox="0 0 105.982 70.507">
  <defs>
    <style>
      .cls-1 {
        fill: none;
        stroke: #48679b;
        stroke-linecap: round;
        stroke-linejoin: round;
        stroke-miterlimit: 10;
        stroke-width: 2px;
      }
    </style>
  </defs>
  <g id="Group_288" data-name="Group 288" transform="translate(-741.461 -1660.308)">
    <path id="Path_395" data-name="Path 395" class="cls-1" d="M57.4,13.379H36.2V4H48.229A9.312,9.312,0,0,1,57.4,13.379Z" transform="translate(778.437 1663.833)"/>
    <path id="Path_396" data-name="Path 396" class="cls-1" d="M60.87,23.688H36.2V8.6H56.385Z" transform="translate(778.437 1668.612)"/>
    <ellipse id="Ellipse_50" data-name="Ellipse 50" class="cls-1" cx="3.874" cy="3.874" rx="3.874" ry="3.874" transform="translate(761.831 1716.155)"/>
    <ellipse id="Ellipse_51" data-name="Ellipse 51" class="cls-1" cx="3.874" cy="3.874" rx="3.874" ry="3.874" transform="translate(824.424 1716.155)"/>
    <path id="Path_397" data-name="Path 397" class="cls-1" d="M54.528,26.028h1.427A27.508,27.508,0,0,0,55.14,19.3H47.8A6.788,6.788,0,0,0,54.528,26.028Z" transform="translate(790.488 1679.728)"/>
    <path id="Path_398" data-name="Path 398" class="cls-1" d="M11.9,17.248l9.583,9.379L38.609,9.5" transform="translate(753.193 1669.547)"/>
    <path id="Path_399" data-name="Path 399" class="cls-1" d="M.8.8V58.7H14.46a9.621,9.621,0,0,1,19.165,0h39.35V.8Z" transform="translate(741.662 1660.509)"/>
    <path id="Path_400" data-name="Path 400" class="cls-1" d="M57,16H36.2V42.913h4.078a9.621,9.621,0,0,1,19.165,0h8.563V27.01A10.964,10.964,0,0,0,57,16Z" transform="translate(778.437 1676.3)"/>
    <ellipse id="Ellipse_52" data-name="Ellipse 52" class="cls-1" cx="9.786" cy="9.787" rx="9.786" ry="9.787" transform="translate(755.918 1710.242)"/>
    <ellipse id="Ellipse_53" data-name="Ellipse 53" class="cls-1" cx="9.786" cy="9.787" rx="9.786" ry="9.787" transform="translate(818.511 1710.242)"/>
  </g>
</svg>
