<svg xmlns="http://www.w3.org/2000/svg" viewBox="0 0 86.056 76.635">
  <defs>
    <style>
      .cls-1 {
        fill: none;
        stroke: #365891;
        stroke-linecap: round;
        stroke-linejoin: round;
        stroke-miterlimit: 10;
        stroke-width: 1.5px;
      }

      .cls-2 {
        fill: #375992;
      }

      .cls-3 {
        fill: #fff;
      }
    </style>
  </defs>
  <g id="Group_253" data-name="Group 253" transform="translate(-457.893 -1654.884)">
    <path id="Path_425" data-name="Path 425" class="cls-1" d="M36.711,4.741,2.027,64.712A7.607,7.607,0,0,0,8.519,76.16H77.887A7.607,7.607,0,0,0,84.38,64.712L49.867,4.741A7.68,7.68,0,0,0,36.711,4.741Z" transform="translate(457.717 1654.609)"/>
    <g id="Group_102" data-name="Group 102" transform="translate(482.467 1685.321)">
      <g id="Group_98" data-name="Group 98">
        <path id="Path_426" data-name="Path 426" class="cls-1" d="M22.247,23.013a2.436,2.436,0,0,0,1.025-2.05,2.563,2.563,0,1,0-5.126,0,1.54,1.54,0,0,0,.171.854,1.54,1.54,0,0,0-.854-.171,2.563,2.563,0,0,0,0,5.126,2.978,2.978,0,0,0,2.05-1.025" transform="translate(-14.9 -18.4)"/>
        <line id="Line_11" data-name="Line 11" class="cls-1" x1="3.417" y1="3.588" transform="translate(4.784 7.005)"/>
        <line id="Line_12" data-name="Line 12" class="cls-1" x1="3.246" y1="3.246" transform="translate(7.347 4.613)"/>
      </g>
      <g id="Group_99" data-name="Group 99" transform="translate(26.654)">
        <path id="Path_427" data-name="Path 427" class="cls-1" d="M32.825,23.013a2.436,2.436,0,0,1-1.025-2.05,2.563,2.563,0,1,1,5.126,0,1.54,1.54,0,0,1-.171.854,1.54,1.54,0,0,1,.854-.171,2.563,2.563,0,0,1,0,5.126,2.978,2.978,0,0,1-2.05-1.025" transform="translate(-29.579 -18.4)"/>
        <line id="Line_13" data-name="Line 13" class="cls-1" y1="3.588" x2="3.417" transform="translate(2.392 7.005)"/>
        <line id="Line_14" data-name="Line 14" class="cls-1" y1="3.246" x2="3.246" transform="translate(0 4.613)"/>
      </g>
      <g id="Group_100" data-name="Group 100" transform="translate(0 26.312)">
        <path id="Path_428" data-name="Path 428" class="cls-1" d="M22.247,38.859a2.436,2.436,0,0,1,1.025,2.05,2.563,2.563,0,1,1-5.126,0,1.54,1.54,0,0,1,.171-.854,1.54,1.54,0,0,1-.854.171,2.563,2.563,0,0,1,0-5.126,2.978,2.978,0,0,1,2.05,1.025" transform="translate(-14.9 -32.879)"/>
        <line id="Line_15" data-name="Line 15" class="cls-1" x1="3.417" y2="3.588" transform="translate(4.784)"/>
        <line id="Line_16" data-name="Line 16" class="cls-1" x1="4.101" y2="4.101" transform="translate(7.347 1.879)"/>
      </g>
      <g id="Group_101" data-name="Group 101" transform="translate(25.799 26.312)">
        <path id="Path_429" data-name="Path 429" class="cls-1" d="M32.825,38.859a2.436,2.436,0,0,0-1.025,2.05,2.563,2.563,0,1,0,5.126,0,1.54,1.54,0,0,0-.171-.854,1.54,1.54,0,0,0,.854.171,2.563,2.563,0,0,0,0-5.126,2.978,2.978,0,0,0-2.05,1.025" transform="translate(-28.725 -32.879)"/>
        <line id="Line_17" data-name="Line 17" class="cls-1" x2="3.417" y2="3.588" transform="translate(3.246)"/>
        <line id="Line_18" data-name="Line 18" class="cls-1" x2="4.101" y2="4.101" transform="translate(0 1.879)"/>
      </g>
      <path id="Path_430" data-name="Path 430" class="cls-1" d="M30.295,22.8c-5.809,0-10.764,4.613-10.593,10.422,0,1.879.683,2.563,1.025,3.759a31.64,31.64,0,0,1,.683,3.93l4.1-.171v5.3h9.4V40.569l3.93-.171c.171-.342,0-2.05.513-3.246s1.538-2.05,1.538-4.271C40.888,27.926,36.1,22.8,30.295,22.8Z" transform="translate(-11.501 -15.282)"/>
      <line id="Line_19" data-name="Line 19" class="cls-1" y2="2.905" transform="translate(16.744 27.85)"/>
      <line id="Line_20" data-name="Line 20" class="cls-1" y2="2.905" transform="translate(20.503 27.85)"/>
      <ellipse id="Ellipse_54" data-name="Ellipse 54" class="cls-2" cx="2.05" cy="2.05" rx="2.05" ry="2.05" transform="translate(12.814 16.402)"/>
      <ellipse id="Ellipse_55" data-name="Ellipse 55" class="cls-2" cx="2.05" cy="2.05" rx="2.05" ry="2.05" transform="translate(20.503 16.402)"/>
      <path id="Path_431" data-name="Path 431" class="cls-3" d="M27.8,33.45H24.9c0-.854.683-2.05,1.367-2.05S27.8,32.425,27.8,33.45Z" transform="translate(-7.814 -9.188)"/>
    </g>
  </g>
</svg>
