<svg xmlns="http://www.w3.org/2000/svg" viewBox="0 0 51.324 51.422">
  <defs>
    <style>
      .cls-1 {
        fill: none;
        stroke: #fff;
        stroke-linecap: round;
        stroke-linejoin: round;
        stroke-miterlimit: 10;
        stroke-width: 1.5px;
      }
    </style>
  </defs>
  <g id="Symbol_16_1" data-name="Symbol 16 – 1" transform="translate(-173.551 -1327.25)">
    <circle id="Ellipse_59" data-name="Ellipse 59" class="cls-1" cx="11.225" cy="11.225" r="11.225" transform="translate(188.086 1341.687)"/>
    <path id="Path_564" data-name="Path 564" class="cls-1" d="M50.824,27.98V23.844L45.8,23.056a18.594,18.594,0,0,0-1.28-4.726l3.939-3.151-2.068-3.545-4.726,1.871A30.131,30.131,0,0,0,38.122,9.96l1.772-4.726L36.251,3.166,33.1,7.2a17.344,17.344,0,0,0-4.431-1.182L27.98,1H23.844l-.788,5.12A19.012,19.012,0,0,0,18.429,7.4L15.179,3.363,11.634,5.431l1.871,4.825A16.841,16.841,0,0,0,10.059,13.8L5.234,11.831,3.166,15.475,7.3,18.724A20.908,20.908,0,0,0,6.12,23.155L1,23.844V27.98l5.12.788A18.808,18.808,0,0,0,7.3,33.4L3.265,36.645,5.333,40.19l4.825-1.871A19.032,19.032,0,0,0,13.6,41.765L11.831,46.59l3.643,2.068,3.151-4.037A16.33,16.33,0,0,0,23.056,45.8l.788,5.12H27.98l.788-5.022a18.481,18.481,0,0,0,4.726-1.182l3.151,3.939L40.19,46.59l-1.871-4.726a24.126,24.126,0,0,0,3.545-3.545l4.726,1.772,2.068-3.643L44.719,33.3A18.068,18.068,0,0,0,45.9,28.768Z" transform="translate(173.301 1327)"/>
  </g>
</svg>
